<svg viewBox="0 0 48 48" xmlns="http://www.w3.org/2000/svg"><g fill="none"><path d="M9.265 43.435L2.132 20.942a3.632 3.632 0 0 1 1.243-3.907L21.767 2.75a3.553 3.553 0 0 1 4.403.03l18.453 14.735a3.632 3.632 0 0 1 1.2 3.892l-7.12 22.046A3.58 3.58 0 0 1 35.285 46H12.69a3.584 3.584 0 0 1-3.425-2.565z" fill="#4285F4"/><path d="M14.04 35s8.46-19.5 11.808-21l17.265 15.796-4.41 13.657A3.58 3.58 0 0 1 35.285 46h-8.629L14.04 35z" fill-opacity=".1" fill="#000"/><path d="M28.585 30l1.865 5h3.48l-8.08-21h-3.728l-8.08 21h3.483l1.865-5h9.195zm-8.203-3l3.605-10 3.606 10h-7.21z" fill="#F5F5F5"/></g></svg>