<svg viewBox="0 0 48 48" xmlns="http://www.w3.org/2000/svg"><g fill="none"><path d="M45.119 36.119A2.99 2.99 0 0 1 43 37H5c-1.65 0-3-1.35-3-3V8c0-1.65 1.35-3 3-3h38c1.65 0 3 1.35 3 3v26a2.99 2.99 0 0 1-.881 2.119z" fill="#03A9F4"/><path d="M46 34v-4.625L35.312 18.687H14V37h29c1.65 0 3-1.35 3-3z" fill-opacity=".1" fill="#000"/><path d="M46 8v13H2V8c0-1.65 1.35-3 3-3h38c1.65 0 3 1.35 3 3z" fill="#039BE5"/><path d="M24 14c-8.838 0-16 7.163-16 16s7.162 16 16 16c8.837 0 16-7.163 16-16s-7.163-16-16-16zm0 23c-3.865 0-7-3.135-7-7s3.135-7 7-7 7 3.135 7 7-3.135 7-7 7z" fill="#EEE"/><path d="M24 43l3-3h-6l3 3zM11 30l3 3v-6l-3 3zm13-13l-3 3h6l-3-3zm13 13l-3-3v6l3-3z" fill="#BDBDBD"/></g></svg>