<svg viewBox="0 0 48 48" xmlns="http://www.w3.org/2000/svg"><g fill="none"><circle fill="#03A9F4" cx="24" cy="24" r="21"/><path d="M24 3C12.402 3 3 12.402 3 24h42c0-11.598-9.403-21-21-21z" fill="#039BE5"/><path d="M20.587 42l-7.292-7.295L16.587 13l-3.292-3.295L35 6.11C41 9.807 45 16.438 45 24c0 7.563-4 14.19-10 17.888L20.587 42z" fill-opacity=".1" fill="#000"/><path d="M34 2c.55 0 1 .45 1 1v6c0 .55-.45 1-1 1H14c-.55 0-1-.45-1-1V3c0-.55.45-1 1-1h20zm0 11c.55 0 1 .45 1 1v20c0 .55-.45 1-1 1H14c-.55 0-1-.45-1-1V14c0-.55.45-1 1-1h20zm0 25c.55 0 1 .45 1 1v6c0 .55-.45 1-1 1H14c-.55 0-1-.45-1-1v-6c0-.55.45-1 1-1h20z" fill="#EEE"/></g></svg>