<svg viewBox="0 0 48 48" xmlns="http://www.w3.org/2000/svg"><g fill="none"><circle fill="#8BC34A" cx="24" cy="24" r="19"/><path d="M24 5C13.508 5 5 13.508 5 24h38c0-10.492-8.508-19-19-19z" fill="#7CB342"/><path d="M26 12l-4 3-2.043 9-5.02 16.703A18.905 18.905 0 0 0 24 43c3.282 0 6.37-.833 9.065-2.297l3.303-2.286a18.996 18.996 0 0 0 6.102-9.947L26 12z" fill-opacity=".1" fill="#000"/><path d="M28.043 24h-4.62l11.76 20.367 2.712 1.566a.501.501 0 0 0 .752-.432v-3.136L28.044 24z" fill="#CFCFCF"/><path d="M34 24c0 5.523-4.477 10-10 10a9.951 9.951 0 0 1-4.56-1.1L24 25l.578-1h-4.62L9.352 42.365V45.5a.501.501 0 0 0 .752.432l2.713-1.565 4.62-8A13.945 13.945 0 0 0 24 38c7.733 0 14-6.267 14-14h-4z" fill="#EEE"/><path d="M28.5 15H26v-3h-4v3h-2.5c-.825 0-1.5.675-1.5 1.5V24l4.94 4.935a1.5 1.5 0 0 0 2.12 0L30 24v-7.5c0-.825-.675-1.5-1.5-1.5z" fill="#616161"/><circle fill="#7CAF42" cx="24" cy="21" r="2.5"/></g></svg>