<svg viewBox="0 0 48 48" xmlns="http://www.w3.org/2000/svg"><g fill="none" fill-rule="evenodd"><path d="M35.64 19.285h-3.458A15.54 15.54 0 0 0 17.537 9C8.954 9 2 15.953 2 24.5S8.953 40 17.538 40H35.64C41.365 40 46 35.343 46 29.642c0-5.7-4.635-10.357-10.36-10.357z" fill="#4285F4" fill-rule="nonzero"/><path d="M28.745 33.62l-4.52-4.527a8.172 8.172 0 0 0 1.51-4.745c0-4.535-3.67-8.21-8.197-8.21-4.528 0-8.198 3.674-8.198 8.21 0 4.535 3.67 8.21 8.198 8.21a8.15 8.15 0 0 0 4.494-1.346l4.555 4.563c.39.39 1.026.39 1.416 0l.742-.742a1.003 1.003 0 0 0 0-1.413zm-11.207-4.095a5.17 5.17 0 0 1-5.168-5.175 5.173 5.173 0 0 1 5.168-5.175 5.17 5.17 0 0 1 5.167 5.175 5.17 5.17 0 0 1-5.167 5.175z" fill="#F5F5F5"/><path d="M24.797 20.525v.01a8.184 8.184 0 0 1 .938 3.813c0 1.767-.56 3.405-1.51 4.745l4.52 4.527a1.003 1.003 0 0 1 0 1.413l-.742.742c-.39.39-1.026.39-1.416 0l-4.555-4.563a8.143 8.143 0 0 1-4.494 1.345 8.154 8.154 0 0 1-5.083-1.77h-.002L21.665 40h13.977c2.42 0 4.643-.835 6.405-2.225l-17.25-17.25z" fill-opacity=".1" fill="#000" fill-rule="nonzero"/></g></svg>