<svg viewBox="0 0 48 48" xmlns="http://www.w3.org/2000/svg"><g fill="none"><circle fill="#4285F4" cx="24" cy="24" r="22"/><path d="M22.75 34a4.568 4.568 0 0 1 1.855-3.365h-.01c.81-.64 1.93-1.193 3.19-1.53.53-.143 1.453-.32 2.415-.433 3.42-.395 5.405-2.8 5.79-6.18l.377-2.637a1 1 0 0 1 .99-.858l1.395.003a1 1 0 0 1 .988 1.135l-.905 6.617c-.04.293-.153.568-.33.803l-2.288 3.31c-.164.218-.477.533-.477 1.207v1.923H22.75V34zm7.75-8a3.5 3.5 0 1 1 0-7 3.5 3.5 0 0 1 0 7z" fill="#7BAAF7"/><path d="M31 34H14v-1.867c0-.913-.425-1.338-.648-1.633l-3.684-5.207a2.343 2.343 0 0 1-.445-1.088l-1.18-8.682c-.028-.238-.055-.36-.03-.623a1 1 0 0 1 .995-.9h2.562a1 1 0 0 1 .99.857l.505 3.585c.525 4.57 3.21 7.823 7.838 8.355 1.302.15 2.55.393 3.267.585 1.705.458 3.22 1.203 4.317 2.068h-.012c1.42 1.047 2.397 2.683 2.525 4.55zM20.5 23a4.5 4.5 0 1 1 0-9 4.5 4.5 0 0 1 0 9z" fill="#F5F5F5"/><path d="M43.165 34.807c-3.48 6.158-9.84 10.47-17.25 11.108L14 34h17c-.128-1.867-1.105-3.503-2.525-4.55l.01.003c-1.098-.866-2.613-1.613-4.317-2.068a17.826 17.826 0 0 0-1.43-.31l-5.14-5.137a4.5 4.5 0 0 0 6.232-6.463h.003l19.332 19.332z" fill-opacity=".1" fill="#000"/></g></svg>