<svg viewBox="0 0 48 48" xmlns="http://www.w3.org/2000/svg"><g fill-rule="nonzero" fill="none"><path d="M27.555 32.172L16.945 46h5.52c.933 0 1.813-.435 2.38-1.172l9.71-12.653h-7v-.002zM4.832 36c-.932 0-1.81.432-2.377 1.172l-.455.59 2.987.666 1.748 2.28L10.355 36H4.832z" fill="#E0E0E0"/><path d="M19.592 42.552l3.401 3.401c-.173.031-.35.047-.528.047h-5.52l2.647-3.448z" fill-opacity=".05" fill="#000"/><path d="M24 2c-.727 0-1.454.263-2.027.788L5.753 17.65a3 3 0 0 0-.353 4.038h37.197a3 3 0 0 0-.352-4.038L26.025 2.788A2.989 2.989 0 0 0 24 2z" fill="#009688"/><path d="M11.011 29H36.99L26.38 42.825a3 3 0 0 1-4.76 0L11.011 29z" fill="#FDD835"/><path d="M35.452 31.002L24 30l-11.452 1.002L5.4 21.688a2.992 2.992 0 0 1-.614-2.007L24 18l19.214 1.681a2.983 2.983 0 0 1-.614 2.006l-7.148 9.315z" fill="#00E676"/><path d="M22.465 46a3.006 3.006 0 0 1-2.38-1.172l-5.873-7.653a2.998 2.998 0 0 0-2.38-1.172h-7c.933 0 1.813.434 2.38 1.172l5.873 7.653A2.998 2.998 0 0 0 15.465 46h7z" fill="#F5F5F5"/></g></svg>