<svg viewBox="0 0 48 48" xmlns="http://www.w3.org/2000/svg"><g fill="none"><path d="M24 2c-6.075 0-11 4.925-11 11v6.005h5V13c0-3.313 2.688-6 6-6 3.313 0 6 2.688 6 6v6h5v-6c0-6.075-4.925-11-11-11z" fill="#BDBDBD"/><path fill="#FFC107" d="M37 46H11L9 32l2-15h26l2 15z"/><path d="M38 46h-1V17h1a3 3 0 0 1 3 3v23a3 3 0 0 1-3 3z" fill="#FFA726"/><path d="M10 17h1v29h-1a3 3 0 0 1-3-3V20a3 3 0 0 1 3-3z" fill="#FDD835"/><path fill="#F5F5F5" d="M32.403 23L21 34.403 15.59 29l-2.297 2.29L21 39l13.7-13.703z"/><path d="M41 31.598V43a3 3 0 0 1-3 3H28l-7-7 13.7-13.703 6.3 6.3z" fill-opacity=".1" fill="#BF360C"/></g></svg>