<svg viewBox="0 0 48 48" xmlns="http://www.w3.org/2000/svg"><g fill="none"><path d="M35.797 30.813c-.13.225-.317.415-.547.547l-10.5 6.063a1.507 1.507 0 0 1-1.503 0l-10.5-6.078a1.47 1.47 0 0 1-.537-.535l-7.808 4.508A3 3 0 0 0 5.5 36.415l17 9.815a3.004 3.004 0 0 0 3 0l17-9.815a3.02 3.02 0 0 0 1.097-1.097l-7.8-4.505z" fill="#00ACC1"/><path d="M12.44 31.358a1.575 1.575 0 0 1-.327-.49v-.003l-7.71 4.45A3 3 0 0 0 5.5 36.413l17 9.815a3.004 3.004 0 0 0 3 0l1.148-.663L12.44 31.358z" fill-opacity=".1" fill="#000"/><path d="M42.5 11.588l-2.502-1.445-2.503-1.446a2.983 2.983 0 0 0-1.497-.394v21.76c0 .267-.073.524-.2.75l7.8 4.502c.26-.447.402-.965.402-1.5v-19.63a2.999 2.999 0 0 0-1.5-2.598z" fill="#FF5722"/><path d="M36 17.073l8 8V14.185a1 1 0 0 0-1.5-.865L36 17.073z" fill-opacity=".1" fill="#000"/><path d="M12.21 30.808a1.494 1.494 0 0 1-.21-.763V17.937c0-.535.285-1.03.75-1.3l10.5-6.062c.465-.268.75-.762.75-1.3V1.987c0-.48-.52-.782-.938-.542L5.5 11.588A3.002 3.002 0 0 0 4 14.184v19.63c0 .535.143 1.053.402 1.5l7.808-4.507z" fill="#673AB7"/><path d="M20.933 17.613l.127.072a.624.624 0 0 1 0 1.082l-2.122 1.226a.624.624 0 0 0 0 1.082l.125.073a.624.624 0 0 1 0 1.082l-2.125 1.227a.624.624 0 0 0 0 1.083l.312.183a1.502 1.502 0 0 0 1.5 0l2.5-1.443a1.502 1.502 0 0 1 1.5 0l.5.287a1.502 1.502 0 0 0 1.5 0L36 17.073l-3.708-3.678a4.002 4.002 0 0 0-4.83-.627l-6.53 3.78a.61.61 0 0 0 0 1.065z" fill="#FFC107"/><path d="M33.25 17.793l-.5-.288a1.502 1.502 0 0 0-1.5 0l-4.5 2.598a1.502 1.502 0 0 1-1.5 0l-.313-.18a.624.624 0 0 1 0-1.083l2.125-1.227a.624.624 0 0 0 0-1.083l-.125-.073a.624.624 0 0 1 0-1.082l.128-.072a.624.624 0 0 0 0-1.083l-.13-.075a.626.626 0 0 1 0-1.082l7.56-4.366a3.004 3.004 0 0 1 3 0l2.5 1.443.003 3.465c0 .715-.38 1.377-1 1.735l-.998.578-3.25 1.877a1.496 1.496 0 0 1-1.5-.003z" fill="#FF9800"/><path d="M44 14.185a2.999 2.999 0 0 0-1.5-2.598L37.498 8.7a2.997 2.997 0 0 0-2.98-.01l-1.583.912a.624.624 0 0 0 0 1.083l.127.072a.624.624 0 0 1 0 1.083l-2.122 1.225a.624.624 0 0 0 0 1.083l.313.18a1.502 1.502 0 0 0 1.5 0l.5-.288a1.502 1.502 0 0 1 1.5 0l2.5 1.443a1.502 1.502 0 0 0 1.5 0l3.75-2.165a1 1 0 0 1 1.497.867z" fill="#FF5722"/></g></svg>