<svg viewBox="0 0 48 48" xmlns="http://www.w3.org/2000/svg"><g fill="none"><path fill="#34A853" d="M24 30.668l.801 4.582 4.478 1.64 12.7-14.968-.745-5.29h-5.327L24 30.666z"/><path d="M20.02 25.977l-4.805 1.148-.473 5.075 7.71 9.085a2.02 2.02 0 0 0 1.55.715 2.02 2.02 0 0 0 1.55-.715l3.73-4.395-9.261-10.913z" fill="#FBBC05"/><path d="M20.02 25.975l-7.93-9.345C15.43 14.288 19.576 13 24 13l2.149-4.25L24 5C15.15 5 7.27 8.775 2.205 14.905a1.979 1.979 0 0 0 .023 2.548L14.742 32.2l5.279-6.225z" fill="#4285F4"/><path d="M45.795 14.905C40.73 8.775 32.85 5 24 5v8c.25 0 .498.005.746.012 4.143.138 8.011 1.408 11.164 3.616 2.187 1.41 4.224 3.192 6.07 5.292l3.794-4.47a1.981 1.981 0 0 0 .02-2.545z" fill="#EA4335"/></g></svg>