<svg style="position: absolute; width: 0; height: 0; overflow: hidden;" version="1.1" xmlns="http://www.w3.org/2000/svg" xmlns:xlink="http://www.w3.org/1999/xlink">
<defs>
<symbol id="icon-flame1" viewBox="0 0 21 32">
<title>flame1</title>
<path fill="#f2c500" style="fill: var(--color1, #f2c500)" d="M11.111 3.567c2.002 4.003 1.103 10.804 1.103 10.804s-5.825-2.951-8.006-7.339c-0.975-1.899-0.205-4.234 1.694-5.184 1.925-0.975 4.234-0.205 5.209 1.719z"></path>
</symbol>
<symbol id="icon-flame2" viewBox="0 0 21 32">
<title>flame2</title>
<path fill="#f59d00" style="fill: var(--color2, #f59d00)" d="M13.78 3.849c3.31 6.569 1.822 17.758 1.822 17.758s-9.546-4.876-13.164-12.061c-1.565-3.131-0.308-6.954 2.823-8.52 3.131-1.591 6.954-0.308 8.52 2.823z"></path>
</symbol>
<symbol id="icon-flame3" viewBox="0 0 21 32">
<title>flame3</title>
<path fill="#e87e04" style="fill: var(--color3, #e87e04)" d="M18.091 5.261c4.978 9.905 2.746 26.739 2.746 26.739s-14.37-7.339-19.811-18.143c-2.387-4.722-0.488-10.47 4.234-12.831s10.444-0.488 12.831 4.234z"></path>
</symbol>
<symbol id="icon-rocket" viewBox="0 0 25 32">
<title>rocket</title>
<path fill="#ecf0f1" style="fill: var(--color4, #ecf0f1)" d="M9.945 3.653c-0.232-0.18-4.229 3.962-4.229 3.962s-5.716 0.748-5.707 1.040c0.009 0 0.017 0 0.026 0 0.258 10.907 10.796 17.904 10.796 17.904s0.344 0.258 0.756 0.052c0.447-0.223 2.931-1.478 2.931-1.478s2.518-1.264 2.974-1.496c0.413-0.206 0.404-0.627 0.404-0.627s0.653-12.635-7.951-19.356c0 0.009 0 0.009 0 0z"></path>
<path fill="#bdc3c7" style="fill: var(--color5, #bdc3c7)" d="M9.936 3.662c8.612 6.704 7.951 19.339 7.951 19.339s0.017 0.421-0.404 0.627c-0.447 0.223-2.974 1.496-2.974 1.496l-8.793-17.508c2.45-1.435 3.67-2.922 4.22-3.954z"></path>
<path fill="#e94b35" style="fill: var(--color6, #e94b35)" d="M1.977 0.18c-1.848 0.928-2.028 5.845-1.968 8.475 1.152 0.163 3.086 0.077 5.699-1.031 2.45-1.435 3.679-2.931 4.229-3.962-2.063-1.625-6.12-4.401-7.959-3.481z"></path>
<path fill="#c23824" style="fill: var(--color7, #c23824)" d="M1.977 0.18l3.739 7.435c2.45-1.435 3.679-2.931 4.229-3.962-2.071-1.616-6.128-4.392-7.968-3.472z"></path>
<path fill="#e87e04" style="fill: var(--color3, #e87e04)" d="M6.068 20.637l4.848 4.633c0.172 0.163 0.138 0.378-0.077 0.481 0 0-3.954 1.496-2.183 5.028 0 0 0.172 0.301-0.103 0.438s-1.444 0.731-1.444 0.731c-0.215 0.103-0.533 0.069-0.713-0.077-0.009-0.009-6.747-5.604-0.327-11.234z"></path>
<path fill="#d55400" style="fill: var(--color8, #d55400)" d="M15.953 15.661l0.825 6.653c0.026 0.232 0.223 0.335 0.43 0.223 0 0 3.558-2.286 5.338 1.246 0 0 0.138 0.318 0.421 0.18 0.275-0.138 1.444-0.731 1.444-0.731 0.215-0.103 0.37-0.387 0.361-0.619 0 0-0.473-8.75-8.819-6.954z"></path>
<path fill="#2b3e51" style="fill: var(--color9, #2b3e51)" d="M9.73 15.643c-1.607 0.808-3.576 0.155-4.384-1.453s-0.155-3.576 1.453-4.384 3.576-0.155 4.384 1.453c0.799 1.607 0.155 3.576-1.453 4.384z"></path>
<path fill="#d1d4d1" style="fill: var(--color10, #d1d4d1)" d="M8.612 10.005c0 0.034-0.017 0.077-0.052 0.095-0.266 0.146-0.361 0.49-0.206 0.756 0.026 0.052 0.009 0.12-0.043 0.155-0.052 0.026-0.12 0.009-0.155-0.043-0.189-0.344-0.095-0.765 0.206-0.997-0.464-0.043-0.937 0.043-1.375 0.266l0.258 0.464c0.026 0.052 0.009 0.12-0.043 0.155-0.052 0.026-0.12 0.009-0.155-0.043l-0.258-0.464c-0.421 0.258-0.739 0.627-0.937 1.040 0.352-0.138 0.765 0 0.954 0.344 0.026 0.052 0.009 0.12-0.043 0.155-0.052 0.026-0.12 0.009-0.155-0.043-0.146-0.266-0.49-0.361-0.756-0.206-0.034 0.017-0.077 0.017-0.112 0-0.249 0.679-0.215 1.453 0.163 2.132l0.92 1.633c0.842 0.232 1.848 0.112 2.759-0.404 0.86-0.481 1.461-1.221 1.728-2.003l-0.971-1.719c-0.37-0.696-1.014-1.135-1.728-1.272z"></path>
<path fill="#ecf0f1" style="fill: var(--color4, #ecf0f1)" d="M8.157 10.967c0.026 0.052 0.095 0.069 0.155 0.043 0.052-0.026 0.069-0.095 0.043-0.155-0.146-0.266-0.052-0.602 0.206-0.756 0.034-0.017 0.052-0.060 0.052-0.095-0.086-0.017-0.172-0.026-0.249-0.034-0.301 0.232-0.395 0.653-0.206 0.997z"></path>
<path fill="#ecf0f1" style="fill: var(--color4, #ecf0f1)" d="M5.862 11.621c0.266-0.146 0.602-0.052 0.756 0.206 0.026 0.052 0.095 0.069 0.155 0.043 0.052-0.026 0.069-0.095 0.043-0.155-0.189-0.344-0.602-0.481-0.954-0.344-0.034 0.077-0.069 0.155-0.103 0.232 0.026 0.034 0.069 0.043 0.103 0.017z"></path>
<path fill="#ecf0f1" style="fill: var(--color4, #ecf0f1)" d="M7.203 10.847c0.052-0.026 0.069-0.095 0.043-0.155l-0.258-0.464c-0.034 0.017-0.069 0.034-0.095 0.052-0.034 0.017-0.060 0.034-0.095 0.060l0.258 0.464c0.026 0.052 0.095 0.069 0.146 0.043z"></path>
<path fill="#e6e7e8" style="fill: var(--color11, #e6e7e8)" d="M9.592 14.981c-0.799 0.456-1.676 0.602-2.45 0.473l0.361 0.636c0.748 0.206 1.556-0.052 2.364-0.507 0.765-0.43 1.384-0.937 1.616-1.633l-0.327-0.584c-0.309 0.627-0.842 1.212-1.564 1.616z"></path>
<path fill="#ecf0f1" style="fill: var(--color4, #ecf0f1)" d="M5.587 13.684c-0.086 0.069-0.103 0.198-0.043 0.292l0.138 0.241c0.009 0.017 0.009 0.043-0.017 0.060v0c-0.086 0.052-0.12 0.155-0.069 0.241l0.172 0.309c0.034 0.069 0.12 0.086 0.181 0.052l0.034-0.017c0.017-0.009 0.043-0.009 0.060 0.017l0.138 0.241c0.052 0.095 0.172 0.146 0.275 0.112 0.129-0.052 0.181-0.198 0.12-0.318l-0.653-1.16c-0.069-0.12-0.223-0.155-0.335-0.069z"></path>
<path fill="#a5a5a4" style="fill: var(--color12, #a5a5a4)" d="M6.008 14.586c-0.026 0.017-0.060 0.017-0.086 0.009s-0.052-0.026-0.069-0.052-0.017-0.060-0.009-0.086c0.017-0.060 0.077-0.095 0.138-0.077 0.026 0.009 0.052 0.026 0.069 0.052s0.017 0.060 0.009 0.086c-0.009 0.034-0.026 0.052-0.052 0.069z"></path>
<path fill="#ecf0f1" style="fill: var(--color4, #ecf0f1)" d="M11.337 12.472c0.086-0.069 0.103-0.198 0.043-0.292l-0.112-0.206c-0.026-0.043-0.009-0.095 0.034-0.112v0c0.069-0.034 0.086-0.12 0.052-0.181l-0.189-0.344c-0.034-0.069-0.12-0.086-0.181-0.052v0c-0.043 0.026-0.095 0.009-0.112-0.034l-0.112-0.206c-0.052-0.095-0.172-0.146-0.275-0.112-0.129 0.052-0.181 0.198-0.12 0.318l0.653 1.152c0.052 0.12 0.206 0.155 0.318 0.069z"></path>
<path fill="#a5a5a4" style="fill: var(--color12, #a5a5a4)" d="M11.019 11.767c-0.026 0.017-0.060 0.017-0.086 0.009s-0.052-0.026-0.069-0.052c-0.017-0.026-0.017-0.060-0.009-0.086 0.017-0.052 0.077-0.095 0.138-0.077 0.026 0.009 0.052 0.026 0.069 0.052s0.017 0.060 0.009 0.086c-0.009 0.026-0.026 0.052-0.052 0.069z"></path>
<path fill="#ecf0f1" style="fill: var(--color4, #ecf0f1)" d="M7.263 10.959c-1.221 0.688-1.728 2.106-1.221 3.017l0.688 1.221c0.765 0.095 1.788 0 2.699-0.507 0.86-0.481 1.435-1.255 1.771-1.917l-0.722-1.289c-0.507-0.911-1.994-1.212-3.215-0.524z"></path>
<path fill="#38454f" style="fill: var(--color13, #38454f)" d="M7.426 11.251c-1.221 0.688-1.805 1.977-1.375 2.75l0.584 1.031c0.731 0.034 1.719-0.112 2.63-0.627 0.86-0.481 1.47-1.203 1.831-1.814l-0.61-1.092c-0.43-0.774-1.839-0.937-3.060-0.249z"></path>
<path fill="#fff" style="fill: var(--color14, #fff)" d="M7.151 15.446l0.146 0.249c0.748 0.206 1.556-0.052 2.364-0.507 0.765-0.43 1.384-0.937 1.616-1.633l-0.112-0.198c-0.309 0.636-0.851 1.212-1.564 1.616-0.808 0.456-1.685 0.602-2.45 0.473z"></path>
<path fill="#546a79" style="fill: var(--color15, #546a79)" d="M7.736 12.24c-0.052 0.026-0.112 0.017-0.146-0.034s-0.026-0.12 0.026-0.155c0.12-0.086 0.249-0.163 0.387-0.241 0.052-0.026 0.12-0.009 0.155 0.043 0.026 0.052 0.009 0.12-0.043 0.155-0.129 0.069-0.249 0.146-0.361 0.232-0.009 0-0.017 0-0.017 0z"></path>
<path fill="#59474e" style="fill: var(--color16, #59474e)" d="M7.229 11.371c-0.052 0.034-0.103 0.069-0.155 0.103-0.009 0.009-0.017 0.009-0.026 0.017-0.103 0.077-0.206 0.163-0.292 0.249 0 0-0.009 0.009-0.009 0.009-0.043 0.043-0.095 0.086-0.138 0.138 0 0-0.009 0.009-0.009 0.009-0.138 0.146-0.249 0.292-0.344 0.447-0.112 0.49-0.052 1.023 0.215 1.496 0.284 0.507 0.748 0.851 1.263 0.997l0.309 0.043c0.404-0.103 0.817-0.258 1.221-0.481 0.344-0.198 0.653-0.43 0.92-0.679l0.146-0.344c0.146-0.516 0.086-1.092-0.198-1.599-0.266-0.473-0.688-0.799-1.16-0.963v0c-0.181 0-0.37 0.026-0.567 0.060 0 0-0.009 0-0.009 0-0.060 0.009-0.12 0.026-0.189 0.043-0.009 0-0.009 0-0.017 0-0.12 0.034-0.241 0.077-0.37 0.12-0.009 0-0.017 0.009-0.026 0.009-0.060 0.026-0.112 0.052-0.172 0.077-0.009 0.009-0.017 0.009-0.034 0.017-0.060 0.026-0.12 0.060-0.172 0.095-0.060 0.034-0.112 0.069-0.172 0.103 0.009 0.017 0 0.026-0.017 0.034z"></path>
<path fill="#af8066" style="fill: var(--color17, #af8066)" d="M10.4 13.503c-0.017-0.043-0.043-0.086-0.060-0.129-0.103-0.181-0.223-0.309-0.361-0.395 0.077-0.361 0.026-0.739-0.163-1.074-0.438-0.782-1.478-1.031-2.321-0.55-0.842 0.473-1.169 1.496-0.731 2.278 0.189 0.335 0.49 0.567 0.834 0.696 0 0.163 0.043 0.327 0.146 0.516 0.017 0.034 0.043 0.060 0.060 0.095 0.481-0.095 0.98-0.266 1.47-0.533 0.438-0.258 0.817-0.567 1.126-0.902z"></path>
<path fill="#fff" style="fill: var(--color14, #fff)" d="M7.94 13.046c0.096 0.17 0.036 0.384-0.134 0.48s-0.384 0.036-0.48-0.134c-0.096-0.17-0.036-0.384 0.134-0.48s0.384-0.036 0.48 0.134z"></path>
<path fill="#fff" style="fill: var(--color14, #fff)" d="M9.316 12.272c0.096 0.17 0.036 0.384-0.134 0.48s-0.384 0.036-0.48-0.134c-0.096-0.17-0.036-0.384 0.134-0.48s0.384-0.036 0.48 0.134z"></path>
<path fill="#7f5b53" style="fill: var(--color18, #7f5b53)" d="M9.627 13.219c-0.352-0.095-0.722 0.086-0.86 0.413-0.352-0.052-0.696 0.172-0.799 0.524-0.017 0.060 0.017 0.12 0.077 0.138s0.12-0.017 0.138-0.077c0.069-0.258 0.335-0.413 0.593-0.352l0.223 0.404c0.026 0.052 0.095 0.069 0.155 0.043 0.052-0.026 0.069-0.095 0.043-0.155l-0.232-0.413c0.086-0.241 0.352-0.378 0.602-0.309 0.026 0.009 0.060 0 0.086-0.009s0.043-0.034 0.052-0.069c0.017-0.060-0.017-0.12-0.077-0.138z"></path>
<path fill="#38454f" style="fill: var(--color13, #38454f)" d="M7.785 13.133c0.023 0.041 0.009 0.094-0.033 0.117s-0.094 0.009-0.117-0.033c-0.023-0.041-0.009-0.094 0.033-0.117s0.094-0.009 0.117 0.033z"></path>
<path fill="#38454f" style="fill: var(--color13, #38454f)" d="M9.006 12.447c0.023 0.041 0.009 0.094-0.033 0.117s-0.094 0.009-0.117-0.033c-0.023-0.041-0.009-0.094 0.033-0.117s0.094-0.009 0.117 0.033z"></path>
<path fill="#e94b35" style="fill: var(--color6, #e94b35)" d="M11.879 10.907c-1.006-2.003-3.447-2.802-5.441-1.796-2.003 1.006-2.802 3.438-1.796 5.441s3.447 2.802 5.441 1.796c1.994-1.006 2.802-3.438 1.796-5.441zM9.73 15.643c-1.607 0.808-3.576 0.155-4.384-1.453s-0.155-3.576 1.453-4.384c1.607-0.808 3.576-0.155 4.384 1.453 0.799 1.607 0.155 3.576-1.453 4.384z"></path>
<path fill="#fff" opacity="0.1" style="fill: var(--color14, #fff)" d="M9.644 15.686l1.487-4.504c-0.387-0.722-1.023-1.246-1.745-1.513l-2.046 6.189c0.739 0.215 1.556 0.172 2.304-0.172z"></path>
<path fill="#fff" opacity="0.1" style="fill: var(--color14, #fff)" d="M6.206 15.265l1.917-5.802c-0.327 0.009-0.653 0.077-0.98 0.189l-1.616 4.873c0.198 0.292 0.43 0.533 0.679 0.739z"></path>
<path fill="#e87e04" style="fill: var(--color3, #e87e04)" d="M10.778 18.256c-0.215 0.103-0.301 0.361-0.189 0.576l4.366 8.681c0.103 0.215 0.361 0.301 0.576 0.189l0.232-0.112-4.753-9.446-0.232 0.112z"></path>
<path fill="#d55400" style="fill: var(--color8, #d55400)" d="M11.165 18.067l-0.155 0.077 4.745 9.446 0.155-0.077c0.215-0.103 0.301-0.361 0.189-0.576l-4.366-8.681c-0.103-0.215-0.361-0.292-0.567-0.189z"></path>
</symbol>
</defs>
</svg>
