<svg style="position: absolute; width: 0; height: 0; overflow: hidden;" version="1.1" xmlns="http://www.w3.org/2000/svg" xmlns:xlink="http://www.w3.org/1999/xlink">
<defs>
<symbol id="icon-americanexpress" viewBox="0 0 32 32">
<title>americanexpress</title>
<path class="path1" d="M29.978 12.235c0.517 0 0.812 0.59 0.502 1.004l-2.014 2.686c-0.033 0.045-0.033 0.106 0 0.151l2.014 2.686c0.31 0.414 0.015 1.004-0.502 1.004h-0.319c-0.195 0-0.379-0.090-0.497-0.245l-1.694-2.202-1.694 2.202c-0.119 0.154-0.302 0.245-0.497 0.245h-5.087c-0.347 0-0.628-0.281-0.628-0.628v-6.275c0-0.347 0.281-0.627 0.628-0.627h5.249c0.21 0 0.406 0.105 0.522 0.279l1.32 1.979 1.694-2.033c0.119-0.143 0.296-0.226 0.482-0.226h0.522zM21.194 15.247h2.635c0.347 0 0.628 0.281 0.628 0.627v0.251c0 0.347-0.281 0.628-0.628 0.628h-2.635c-0.069 0-0.125 0.056-0.125 0.125v1.255c0 0.069 0.056 0.125 0.125 0.125h3.388c0.040 0 0.077-0.019 0.1-0.050l1.601-2.135c0.033-0.044 0.034-0.105 0.001-0.149l-1.414-1.944c-0.024-0.032-0.061-0.052-0.102-0.052h-3.575c-0.069 0-0.125 0.056-0.125 0.125v1.067c0 0.069 0.056 0.126 0.125 0.126zM16.864 12.235c0.347 0 0.628 0.281 0.628 0.627v6.275c0 0.347-0.281 0.628-0.628 0.628h-0.251c-0.347 0-0.627-0.281-0.627-0.628v-4.147c0-0.139-0.193-0.175-0.243-0.045l-1.674 4.414c-0.092 0.244-0.326 0.405-0.587 0.405h-0.635c-0.263 0-0.499-0.164-0.589-0.411l-1.677-4.572c-0.048-0.132-0.243-0.097-0.243 0.043v4.313c0 0.347-0.281 0.628-0.627 0.628h-2.12c-0.27 0-0.51-0.173-0.595-0.429l-0.422-1.265h-3.2l-0.422 1.265c-0.085 0.256-0.325 0.429-0.595 0.429h-0.336c-0.438 0-0.741-0.438-0.587-0.848l2.353-6.275c0.092-0.245 0.326-0.407 0.588-0.407h1.198c0.263 0 0.498 0.164 0.589 0.411l2.241 6.082c0.048 0.131 0.243 0.097 0.243-0.043v-5.822c0-0.347 0.281-0.627 0.627-0.627h1.571c0.262 0 0.497 0.163 0.588 0.41l1.613 4.355c0.040 0.109 0.195 0.109 0.235 0l1.613-4.355c0.091-0.246 0.326-0.41 0.588-0.41h1.383zM4.116 16.376h1.526c0.087 0 0.147-0.086 0.118-0.168l-0.763-2.137c-0.040-0.111-0.197-0.111-0.236 0l-0.763 2.137c-0.029 0.082 0.031 0.168 0.118 0.168zM29.978 10.844h-0.522c-1.081 0-1.529 0.701-2.052 1.328-0.27-0.405-0.75-1.328-1.966-1.328h-5.249c-0.689 0-1.298 0.347-1.663 0.875-0.364-0.528-0.974-0.875-1.663-0.875h-1.383c-0.84 0-1.601 0.529-1.893 1.318l-0.426 1.151-0.426-1.151c-0.292-0.788-1.053-1.317-1.893-1.317h-1.571c-0.826 0-1.538 0.499-1.85 1.211-0.319-0.729-1.048-1.211-1.85-1.211h-1.198c-0.837 0-1.596 0.526-1.89 1.31l-2.353 6.275c-0.494 1.318 0.482 2.727 1.89 2.727h0.336c0.87 0 1.64-0.555 1.915-1.38l0.105-0.314h1.195l0.105 0.314c0.275 0.826 1.045 1.38 1.915 1.38h2.12c0.632 0 1.198-0.292 1.568-0.749 0.377 0.464 0.951 0.749 1.568 0.749h0.635c0.614 0 1.188-0.284 1.565-0.746 0.37 0.455 0.935 0.746 1.566 0.746h0.251c0.689 0 1.298-0.347 1.663-0.875 0.364 0.528 0.974 0.875 1.663 0.875h5.087c0.622 0 1.221-0.294 1.6-0.788l0.591-0.769 0.591 0.769c0.379 0.493 0.978 0.788 1.6 0.788h0.319c1.663 0 2.612-1.9 1.615-3.23l-1.445-1.926 1.445-1.926c0.998-1.33 0.047-3.23-1.615-3.23v0z"></path>
</symbol>
<symbol id="icon-behance" viewBox="0 0 32 32">
<title>behance</title>
<path class="path1" d="M9.948 6.944c2.126 0 4.331 0.413 5.254 2.305 0.523 1.072 0.636 3.073-0.203 4.317-0.405 0.594-1.006 1.083-1.809 1.46 1.090 0.314 1.9 0.866 2.431 1.649 1.037 1.522 1.012 3.786 0.286 5.163-1.085 2.040-3.442 2.829-5.729 2.829h-7.935c-0.356 0-0.644-0.289-0.644-0.645v-16.435c0-0.356 0.289-0.644 0.644-0.644h7.704zM6.143 14.091h3.303v0.007c1.382 0 2.382-0.6 2.382-2.11 0-1.549-1.14-2.040-2.683-2.040h-3.002c-0.356 0-0.644 0.289-0.644 0.645v2.854c0 0.356 0.289 0.645 0.644 0.645zM6.15 21.643h3.512c1.671 0 2.847-0.6 2.884-2.258 0.033-1.445-1.167-2.618-2.612-2.618h-3.784c-0.356 0-0.644 0.289-0.644 0.645v3.587c0 0.356 0.289 0.644 0.644 0.644zM26.937 8.131c0.356 0 0.645 0.289 0.645 0.645v0.458c0 0.356-0.289 0.645-0.645 0.645h-5.893c-0.356 0-0.645-0.288-0.645-0.645v-0.458c0-0.356 0.288-0.645 0.645-0.645h5.893zM24.158 11.464c4.246 0 6.504 3.531 6.218 7.622h-9.257c0 4.226 4.74 3.799 5.79 1.924 0.112-0.2 0.315-0.332 0.544-0.332h1.747c0.475 0 0.79 0.499 0.581 0.926-2.774 5.655-12.196 4.238-12.196-3.35 0-3.966 2.775-6.791 6.574-6.791zM21.89 16.871h4.184c0.429 0 0.744-0.414 0.62-0.825-0.848-2.789-4.569-2.432-5.415-0.026-0.146 0.416 0.171 0.85 0.611 0.85zM9.948 5.344h-7.704c-1.238 0-2.244 1.007-2.244 2.245v16.435c0 1.238 1.007 2.244 2.244 2.244h7.935c2.782 0 5.568-1.010 7.004-3.433 0.423 0.701 0.906 1.25 1.355 1.668 3.735 3.478 10.259 2.74 12.679-2.194 0.295-0.601 0.305-1.286 0.040-1.887 0.403-0.266 0.679-0.71 0.715-1.224 0.229-3.268-0.949-6.493-3.656-8.194 0.526-0.411 0.865-1.051 0.865-1.77v-0.458c0-1.238-1.007-2.245-2.244-2.245h-5.893c-1.238 0-2.244 1.007-2.244 2.245v0.458c0 0.763 0.383 1.439 0.967 1.844-1.521 0.943-2.66 2.374-3.274 4.122-0.129-0.143-0.266-0.279-0.411-0.408 0.781-0.972 1.112-2.173 1.13-3.426 0.049-3.477-2.097-6.022-7.263-6.022v0zM7.098 11.548h2.047c0.784 0 1.019 0.159 1.049 0.182 0.057 0.132 0.041 0.566-0.039 0.631-0.057 0.046-0.242 0.12-0.588 0.135-0.040-0.003-0.080-0.005-0.121-0.005h-2.347v-0.943zM7.105 18.366h2.829c0.557 0 1.025 0.445 1.013 0.982-0.009 0.378-0.108 0.449-0.151 0.479-0.072 0.051-0.366 0.216-1.134 0.216h-2.557v-1.676h0zM23.547 20.686h1.193c-0.372 0.105-0.837 0.122-1.193 0v0z"></path>
</symbol>
<symbol id="icon-calendar" viewBox="0 0 32 32">
<title>calendar</title>
<path class="path1" d="M29.368 4.742h-5.258v-1.82c0-0.442-0.358-0.8-0.8-0.8s-0.8 0.358-0.8 0.8v1.82h-13.020v-1.82c0-0.442-0.358-0.8-0.8-0.8s-0.8 0.358-0.8 0.8v1.82h-5.258c-1.451 0-2.632 1.181-2.632 2.632 0 0.203 0 19.327 0 19.872 0 1.451 1.181 2.632 2.632 2.632h26.737c1.451 0 2.632-1.181 2.632-2.632 0-0.217 0-19.377 0-19.872 0-1.451-1.181-2.632-2.632-2.632zM1.6 7.374c0-0.569 0.463-1.032 1.032-1.032h5.258v1.777c0 0.442 0.358 0.8 0.8 0.8s0.8-0.358 0.8-0.8v-1.777h13.020v1.777c0 0.442 0.358 0.8 0.8 0.8s0.8-0.358 0.8-0.8v-1.777h5.258c0.569 0 1.032 0.463 1.032 1.032v4.294h-28.8v-4.294zM30.4 27.246c0 0.569-0.463 1.032-1.032 1.032h-26.737c-0.569 0-1.032-0.463-1.032-1.032v-13.978h28.8v13.978z"></path>
<path class="path2" d="M8.627 17.773c0 0.898-0.728 1.626-1.626 1.626s-1.626-0.728-1.626-1.626c0-0.898 0.728-1.626 1.626-1.626s1.626 0.728 1.626 1.626z"></path>
<path class="path3" d="M14.626 17.773c0 0.898-0.728 1.626-1.626 1.626s-1.626-0.728-1.626-1.626c0-0.898 0.728-1.626 1.626-1.626s1.626 0.728 1.626 1.626z"></path>
<path class="path4" d="M20.626 17.773c0 0.898-0.728 1.626-1.626 1.626s-1.626-0.728-1.626-1.626c0-0.898 0.728-1.626 1.626-1.626s1.626 0.728 1.626 1.626z"></path>
<path class="path5" d="M26.625 17.773c0 0.898-0.728 1.626-1.626 1.626s-1.626-0.728-1.626-1.626c0-0.898 0.728-1.626 1.626-1.626s1.626 0.728 1.626 1.626z"></path>
<path class="path6" d="M8.627 23.773c0 0.898-0.728 1.626-1.626 1.626s-1.626-0.728-1.626-1.626c0-0.898 0.728-1.626 1.626-1.626s1.626 0.728 1.626 1.626z"></path>
<path class="path7" d="M14.626 23.773c0 0.898-0.728 1.626-1.626 1.626s-1.626-0.728-1.626-1.626c0-0.898 0.728-1.626 1.626-1.626s1.626 0.728 1.626 1.626z"></path>
<path class="path8" d="M20.626 23.773c0 0.898-0.728 1.626-1.626 1.626s-1.626-0.728-1.626-1.626c0-0.898 0.728-1.626 1.626-1.626s1.626 0.728 1.626 1.626z"></path>
<path class="path9" d="M26.625 23.773c0 0.898-0.728 1.626-1.626 1.626s-1.626-0.728-1.626-1.626c0-0.898 0.728-1.626 1.626-1.626s1.626 0.728 1.626 1.626z"></path>
</symbol>
<symbol id="icon-check" viewBox="0 0 32 32">
<title>check</title>
<path class="path1" d="M10.279 26.73l-10.018-10.018c-0.347-0.347-0.347-0.91 0-1.257s0.91-0.347 1.257 0l9.39 9.39 19.575-19.575c0.347-0.347 0.91-0.347 1.257 0s0.347 0.91 0 1.257l-20.204 20.204c-0.347 0.347-0.91 0.347-1.257 0z"></path>
</symbol> 
<symbol id="icon-cloud" viewBox="0 0 32 32">
<title>cloud</title>
<path class="path1" d="M26.032 26.047h-20.063c-3.291 0-5.968-2.677-5.968-5.968 0-2.814 1.972-5.227 4.67-5.825 0.424-4.615 4.302-8.301 9.111-8.301 2.353 0 4.569 0.881 6.273 2.489 3.486-0.107 6.348 2.457 6.803 5.727 2.898 0.4 5.143 2.886 5.143 5.911 0 3.291-2.677 5.968-5.968 5.968zM13.781 7.292c-4.222 0-7.67 3.348-7.806 7.553-0.011 0.329-0.259 0.602-0.586 0.643-2.308 0.288-4.049 2.262-4.049 4.591 0 2.552 2.076 4.629 4.629 4.629h20.063c2.552 0 4.629-2.076 4.629-4.629 0-2.495-1.952-4.526-4.444-4.624-0.346-0.014-0.625-0.289-0.643-0.634-0.154-2.958-2.707-5.255-5.727-5.027-0.195 0.015-0.388-0.057-0.526-0.196-1.477-1.487-3.445-2.305-5.54-2.305z"></path>
</symbol>
<symbol id="icon-comment" viewBox="0 0 32 32">
<title>comment</title>
<path class="path1" d="M6.104 27.574v-4.589h-1.648c-2.457 0-4.456-1.999-4.456-4.456v-10.409c0-2.457 1.999-4.456 4.456-4.456h23.088c2.457 0 4.456 1.999 4.456 4.456v10.409c0 2.457-1.999 4.456-4.456 4.456h-11.337l-8.956 5.247c-0.504 0.295-1.147-0.066-1.147-0.657zM4.456 5.187c-1.617 0-2.932 1.315-2.932 2.932v10.409c0 1.617 1.315 2.932 2.932 2.932h2.41c0.421 0 0.762 0.341 0.762 0.762v4.022l7.987-4.679c0.117-0.068 0.25-0.105 0.385-0.105h11.544c1.617 0 2.932-1.315 2.932-2.932v-10.409c0-1.617-1.315-2.932-2.932-2.932h-23.088z"></path>
<path class="path2" d="M17.353 13.324c0 0.747-0.606 1.353-1.353 1.353s-1.353-0.606-1.353-1.353c0-0.747 0.606-1.353 1.353-1.353s1.353 0.606 1.353 1.353z"></path>
<path class="path3" d="M10.937 13.324c0 0.747-0.606 1.353-1.353 1.353s-1.353-0.606-1.353-1.353c0-0.747 0.606-1.353 1.353-1.353s1.353 0.606 1.353 1.353z"></path>
<path class="path4" d="M23.769 13.324c0 0.747-0.606 1.353-1.353 1.353s-1.353-0.606-1.353-1.353c0-0.747 0.606-1.353 1.353-1.353s1.353 0.606 1.353 1.353z"></path>
</symbol>
<symbol id="icon-creditcard" viewBox="0 0 32 32">
<title>creditcard</title>
<path class="path1" d="M29.474 4.97h-26.947c-1.393 0-2.526 1.133-2.526 2.526 0 0.838 0 16.458 0 17.007 0 1.393 1.133 2.526 2.526 2.526h26.947c1.393 0 2.526-1.133 2.526-2.526 0-0.622 0-16.152 0-17.007 0-1.393-1.133-2.526-2.526-2.526zM2.526 6.654h26.947c0.464 0 0.842 0.378 0.842 0.842v2.119h-28.632v-2.119c0-0.464 0.378-0.842 0.842-0.842zM30.316 13.543h-28.632v-2.244h28.632v2.244zM29.474 25.346h-26.947c-0.464 0-0.842-0.378-0.842-0.842v-9.276h28.632v9.276c0 0.464-0.378 0.842-0.842 0.842z"></path>
<path class="path2" d="M7.099 16.912h-2.888c-0.465 0-0.842 0.377-0.842 0.842s0.377 0.842 0.842 0.842h2.888c0.465 0 0.842-0.377 0.842-0.842s-0.377-0.842-0.842-0.842z"></path>
</symbol>
<symbol id="icon-cross" viewBox="0 0 32 32">
<title>cross</title>
<path class="path1" d="M17.331 16l14.393-14.393c0.368-0.368 0.368-0.963 0-1.331s-0.963-0.368-1.331 0l-14.393 14.393-14.393-14.393c-0.368-0.368-0.963-0.368-1.331 0s-0.368 0.963 0 1.331l14.393 14.393-14.393 14.393c-0.368 0.368-0.368 0.963 0 1.331s0.963 0.368 1.331 0l14.393-14.393 14.393 14.393c0.368 0.368 0.963 0.368 1.331 0s0.368-0.963 0-1.331l-14.393-14.393z"></path>
</symbol>
<symbol id="icon-disabled" viewBox="0 0 32 32">
<title>disabled</title>
<path class="path1" d="M4.681 27.319c-6.241-6.241-6.241-16.397 0-22.638s16.397-6.241 22.638 0c6.241 6.241 6.241 16.397 0 22.638s-16.397 6.242-22.638 0zM5.294 6.486c-4.998 5.618-4.806 14.258 0.578 19.642s14.024 5.577 19.642 0.578l-20.221-20.221zM6.486 5.294l20.22 20.22c4.998-5.618 4.806-14.258-0.578-19.642s-14.024-5.577-19.642-0.578z"></path>
</symbol>
<symbol id="icon-down" viewBox="0 0 32 32">
<title>down</title>
<path class="path1" d="M23.977 20.597c-0.391-0.297-0.949-0.22-1.245 0.171l-5.843 7.701v-27.58c0-0.491-0.398-0.889-0.889-0.889s-0.889 0.398-0.889 0.889v27.58l-5.843-7.701c-0.297-0.391-0.854-0.468-1.245-0.171s-0.468 0.854-0.171 1.245c0.079 0.105 7.4 9.755 7.449 9.817 0.361 0.459 1.057 0.45 1.407-0.011l7.44-9.806c0.297-0.391 0.22-0.949-0.171-1.245z"></path>
</symbol>
<symbol id="icon-download" viewBox="0 0 32 32">
<title>download</title>
<path class="path1" d="M16 32c-8.822 0-16-7.178-16-16s7.178-16 16-16 16 7.178 16 16-7.178 16-16 16zM16 1.684c-7.894 0-14.316 6.422-14.316 14.316s6.422 14.316 14.316 14.316 14.316-6.422 14.316-14.316-6.422-14.316-14.316-14.316z"></path>
<path class="path2" d="M14.813 24.093l-5.485-5.448c-1.064-1.057-0.314-2.879 1.187-2.879h1.274v-6.664c0-0.929 0.756-1.684 1.684-1.684h5.053c0.929 0 1.684 0.756 1.684 1.684v6.664h1.274c1.5 0 2.252 1.821 1.187 2.879l-5.484 5.448c-0.654 0.65-1.719 0.65-2.374 0zM10.516 17.45l5.484 5.448 5.484-5.448-2.116-0c-0.465 0-0.842-0.377-0.842-0.842v-7.506h-5.053v7.506c0 0.465-0.377 0.842-0.842 0.842h-2.115zM21.493 17.45v0z"></path>
</symbol>
<symbol id="icon-dribbble" viewBox="0 0 32 32">
<title>dribbble</title>
<path class="path1" d="M17.536 15.456c-0.285-0.626-0.587-1.251-0.899-1.87-0.102-0.203-0.335-0.301-0.553-0.238-7 2.027-13.735 2.172-15.614 2.169-0.26-0-0.471 0.21-0.472 0.47-0.004 3.776 1.317 7.358 3.684 10.206 0.206 0.248 0.592 0.222 0.764-0.050 2.608-4.129 7.444-8.363 12.8-10.041 0.272-0.085 0.406-0.387 0.288-0.646z"></path>
<path class="path2" d="M8.84 1.708c-4.122 2.070-7.231 5.866-8.368 10.433-0.074 0.298 0.157 0.585 0.464 0.582 4.321-0.053 9.19-0.675 13.603-1.789 0.303-0.077 0.45-0.421 0.294-0.692-2.261-3.944-4.6-7.276-5.397-8.387-0.136-0.189-0.388-0.25-0.595-0.146z"></path>
<path class="path3" d="M26.278 3.746c-3.735-3.127-8.617-4.348-13.3-3.445-0.339 0.065-0.497 0.459-0.295 0.738 0.967 1.339 3.228 4.579 5.349 8.417 0.115 0.208 0.366 0.298 0.587 0.211 4.579-1.801 6.935-4.293 7.723-5.262 0.163-0.2 0.134-0.494-0.064-0.659z"></path>
<path class="path4" d="M18.408 18.748c-7.842 2.84-11.204 8.017-12.034 9.502-0.116 0.208-0.059 0.469 0.133 0.61 4.604 3.403 10.46 3.964 15.398 2.005 0.209-0.083 0.331-0.301 0.291-0.522-0.311-1.722-1.221-6.113-3.186-11.32-0.234-0.107-0.368-0.168-0.602-0.275z"></path>
<path class="path5" d="M22.038 18.396c1.635 4.603 2.465 8.45 2.785 10.133 0.065 0.343 0.466 0.497 0.746 0.289 3.157-2.355 5.418-5.843 6.173-9.856 0.045-0.242-0.1-0.478-0.337-0.543-1.252-0.346-4.867-1.181-8.986-0.646-0.296 0.038-0.48 0.343-0.38 0.624z"></path>
<path class="path6" d="M19.677 12.639c0.397 0.83 0.724 1.569 1.056 2.368 0.081 0.194 0.281 0.31 0.489 0.286 4.38-0.488 8.665 0.162 10.222 0.445 0.297 0.054 0.569-0.18 0.555-0.481-0.154-3.332-1.333-6.401-3.229-8.898-0.181-0.238-0.537-0.247-0.731-0.019-0.917 1.075-3.468 3.67-8.123 5.664-0.246 0.105-0.355 0.394-0.24 0.635z"></path>
</symbol>
<symbol id="icon-envelope" viewBox="0 0 32 32">
<title>envelope</title>
<path class="path1" d="M32 7.25c0-1.744-1.417-3.148-3.148-3.148h-25.703c-1.729 0-3.148 1.403-3.148 3.148v17.5c0 1.744 1.417 3.148 3.148 3.148h25.703c0.826 0 1.607-0.318 2.199-0.896 0-0 0-0 0-0s0-0 0-0 0-0 0.001-0.001 0.001-0.001 0.001-0.001c0.611-0.597 0.947-1.395 0.947-2.25v-17.5zM30.476 7.25v17.5c0 0.185-0.030 0.364-0.089 0.533l-9.824-9.284 9.824-9.284c0.059 0.169 0.089 0.349 0.089 0.534zM3.148 5.625h25.703c0.142 0 0.281 0.018 0.415 0.053l-10.336 9.767c-0 0-0 0-0 0l-2.088 1.974c-0.472 0.447-1.212 0.447-1.685-0l-2.088-1.974c-0-0-0-0-0-0l-10.336-9.767c0.134-0.035 0.273-0.053 0.415-0.053zM11.437 16l-9.824 9.284c-0.059-0.169-0.089-0.349-0.089-0.533v-17.5c0-0.185 0.030-0.364 0.089-0.533l9.824 9.284zM3.148 26.375c-0.142 0-0.281-0.018-0.415-0.053l9.813-9.273 1.565 1.479c1.066 1.008 2.727 0.995 3.779 0l1.565-1.479 9.813 9.273c-0.134 0.035-0.273 0.053-0.415 0.053h-25.703z"></path>
</symbol>
<symbol id="icon-error" viewBox="0 0 32 32">
<title>error</title>
<path class="path1" d="M16 0c-8.822 0-16 7.178-16 16s7.178 16 16 16 16-7.178 16-16-7.178-16-16-16zM16 30.316c-7.894 0-14.316-6.422-14.316-14.316s6.422-14.316 14.316-14.316 14.316 6.422 14.316 14.316-6.422 14.316-14.316 14.316z"></path>
<path class="path2" d="M22.671 9.329c-0.329-0.329-0.862-0.329-1.191 0l-5.48 5.48-5.48-5.48c-0.329-0.329-0.862-0.329-1.191 0s-0.329 0.862 0 1.191l5.48 5.48-5.48 5.48c-0.329 0.329-0.329 0.862 0 1.191s0.862 0.329 1.191 0l5.48-5.48 5.48 5.48c0.329 0.329 0.862 0.329 1.191 0s0.329-0.862 0-1.191l-5.48-5.48 5.48-5.48c0.329-0.329 0.329-0.862 0-1.191z"></path>
</symbol>
<symbol id="icon-exclamation" viewBox="0 0 32 32">
<title>exclamation</title>
<path class="path1" d="M16 32c-8.822 0-16-7.178-16-16s7.178-16 16-16 16 7.178 16 16-7.178 16-16 16zM16 1.684c-7.894 0-14.316 6.422-14.316 14.316s6.422 14.316 14.316 14.316 14.316-6.422 14.316-14.316-6.422-14.316-14.316-14.316z"></path>
<path class="path2" d="M17.632 22.137c0 0.863-0.737 1.621-1.6 1.621-0.926 0-1.621-0.758-1.621-1.621 0-0.884 0.695-1.621 1.621-1.621 0.863 0 1.6 0.737 1.6 1.621zM17.232 18.137c0 0.653-0.716 0.926-1.221 0.926-0.674 0-1.242-0.274-1.242-0.926 0-2.505-0.295-6.105-0.295-8.611 0-0.821 0.674-1.284 1.537-1.284 0.821 0 1.516 0.463 1.516 1.284 0 2.505-0.295 6.105-0.295 8.611z"></path>
</symbol>
<symbol id="icon-eye" viewBox="0 0 32 32">
<title>eye</title>
<path class="path1" d="M16 26.786c-6.919 0-13.172-4.102-15.93-10.45-0.093-0.214-0.093-0.457 0-0.671 2.758-6.348 9.011-10.45 15.93-10.45s13.172 4.102 15.93 10.45c0.093 0.214 0.093 0.457 0 0.671-2.758 6.348-9.011 10.45-15.93 10.45zM1.765 16c2.563 5.541 8.11 9.101 14.235 9.101s11.673-3.56 14.235-9.101c-2.562-5.541-8.11-9.101-14.235-9.101s-11.673 3.56-14.235 9.101z"></path>
<path class="path2" d="M16 23.33c-4.042 0-7.33-3.288-7.33-7.33s3.288-7.33 7.33-7.33 7.33 3.288 7.33 7.33-3.288 7.33-7.33 7.33zM16 10.354c-3.113 0-5.646 2.533-5.646 5.646s2.533 5.646 5.646 5.646 5.646-2.533 5.646-5.646-2.533-5.646-5.646-5.646z"></path>
<path class="path3" d="M16 19.392c-1.87 0-3.392-1.522-3.392-3.392s1.522-3.392 3.392-3.392 3.392 1.522 3.392 3.392-1.522 3.392-3.392 3.392zM16 14.292c-0.942 0-1.708 0.766-1.708 1.708s0.766 1.708 1.708 1.708 1.708-0.766 1.708-1.708c0-0.942-0.766-1.708-1.708-1.708z"></path>
</symbol>
<symbol id="icon-facebook" viewBox="0 0 32 32">
<title>facebook</title>
<path class="path1" d="M18.656 31.273v-15.275h4.084c0.37 0 0.681-0.278 0.723-0.645l0.462-4.060c0.049-0.431-0.288-0.809-0.723-0.809h-4.546l0.008-2.76c0-1.438 0.146-2.209 2.36-2.209h2.232c0.402 0 0.727-0.326 0.727-0.727v-4.060c0-0.402-0.326-0.727-0.727-0.727h-4.007c-5.686 0-7.688 2.675-7.688 7.174v3.311h-2.817c-0.402 0-0.727 0.326-0.727 0.727v4.060c0 0.402 0.326 0.727 0.727 0.727h2.817v15.274c0 0.402 0.326 0.727 0.727 0.727h5.64c0.402 0 0.727-0.326 0.727-0.727z"></path>
</symbol>
<symbol id="icon-file" viewBox="0 0 32 32">
<title>file</title>
<path class="path1" d="M27.585 7.974l-7.74-7.74c-0.155-0.155-0.363-0.234-0.566-0.234h-14.3c-0.442 0-0.8 0.358-0.8 0.8v30.4c0 0.442 0.358 0.8 0.8 0.8h22.040c0.442 0 0.8-0.358 0.8-0.8v-22.66c0-0.204-0.081-0.413-0.234-0.566zM25.088 7.74h-5.009v-5.009l5.009 5.009zM5.78 30.4v-28.8h12.7v6.94c0 0.442 0.358 0.8 0.8 0.8h6.94v21.060h-20.44z"></path>
</symbol>
<symbol id="icon-filter" viewBox="0 0 32 32">
<title>filter</title>
<path class="path1" d="M28.007 0h-24.013c-0.997 0-1.808 0.811-1.808 1.808v5.926c0 0.624 0.315 1.196 0.843 1.529l7.654 4.831v16.097c0 1.34 1.403 2.209 2.601 1.625l7.020-3.426c0.617-0.301 1.015-0.939 1.015-1.625v-12.671l7.654-4.831c0.528-0.333 0.843-0.905 0.843-1.529v-5.926c0-0.997-0.811-1.808-1.808-1.808zM28.007 1.808l0 3.032h-24.013v-3.032h24.013zM20.353 12.565c-0.528 0.333-0.843 0.905-0.843 1.529v12.671l-7.020 3.426v-16.097c0-0.624-0.315-1.196-0.843-1.529l-7.654-4.831v-1.086h24.013v1.086l-7.654 4.831z"></path>
</symbol>
<symbol id="icon-folder" viewBox="0 0 32 32">
<title>folder</title>
<path class="path1" d="M31.238 12.998h-3.409v-4.3c0-0.421-0.341-0.762-0.762-0.762h-16.582v-2.656c0-0.421-0.341-0.762-0.762-0.762h-8.961c-0.421 0-0.762 0.341-0.762 0.762v21.44c0 0.42 0.342 0.762 0.762 0.762 0.001 0 0.001-0 0.002-0h26.303c0.331 0 0.624-0.214 0.725-0.528l4.171-12.96c0.159-0.493-0.21-0.995-0.725-0.995zM1.524 6.042h7.437v2.656c0 0.421 0.341 0.762 0.762 0.762h16.582v3.538h-21.372c-0.331 0-0.624 0.214-0.725 0.528l-2.684 8.339v-15.824zM26.512 25.958h-24.704l3.68-11.436c0.921 0 23.656 0 24.704 0l-3.68 11.436z"></path>
</symbol>
<symbol id="icon-globe" viewBox="0 0 32 32">
<title>globe</title>
<path class="path1" d="M32 16c0-8.824-7.181-16-16-16-8.823 0-16 7.18-16 16 0 8.824 7.181 16 16 16 8.823 0 16-7.18 16-16zM16 30.316c-1.532 0-3.177-2.417-4.16-6.375h8.319c-0.983 3.958-2.627 6.375-4.16 6.375zM11.481 22.256c-0.294-1.623-0.482-3.442-0.524-5.414h10.087c-0.042 1.972-0.23 3.792-0.524 5.414h-9.038zM1.71 16.842h7.563c0.039 1.888 0.21 3.716 0.501 5.414h-6.648c-0.806-1.653-1.304-3.483-1.416-5.414zM3.126 9.743h6.648c-0.291 1.698-0.462 3.526-0.501 5.414h-7.563c0.113-1.932 0.61-3.762 1.416-5.414zM16 1.684c1.532 0 3.177 2.417 4.16 6.375h-8.319c0.983-3.958 2.627-6.375 4.16-6.375zM20.519 9.743c0.294 1.623 0.482 3.442 0.524 5.414h-10.087c0.042-1.972 0.23-3.792 0.524-5.414h9.038zM30.29 15.158h-7.563c-0.039-1.888-0.21-3.716-0.501-5.414h6.648c0.806 1.653 1.303 3.483 1.416 5.414zM22.728 16.842h7.563c-0.113 1.932-0.61 3.762-1.416 5.414h-6.648c0.291-1.699 0.462-3.526 0.501-5.414zM27.906 8.059h-6.017c-0.465-2.003-1.237-4.302-2.457-5.958 3.512 0.867 6.517 3.034 8.474 5.958zM12.569 2.101c-1.22 1.656-1.992 3.954-2.457 5.958h-6.018c1.957-2.925 4.963-5.091 8.474-5.958zM4.094 23.941h6.017c0.465 2.003 1.237 4.302 2.457 5.958-3.512-0.867-6.517-3.034-8.474-5.958zM19.431 29.899c1.22-1.656 1.992-3.954 2.457-5.958h6.017c-1.957 2.925-4.963 5.091-8.474 5.958z"></path>
</symbol>
<symbol id="icon-google" viewBox="0 0 32 32">
<title>google+</title>
<path class="path1" d="M10.716 26.524c-5.908 0-10.716-4.72-10.716-10.524s4.807-10.524 10.716-10.524c2.342 0 4.611 0.753 6.466 2.133 0.311 0.231 0.36 0.678 0.103 0.968l-1.857 2.096c-0.223 0.251-0.598 0.294-0.872 0.099-1.113-0.789-2.455-1.218-3.84-1.218-3.62 0-6.565 2.892-6.565 6.447s2.945 6.447 6.565 6.447c3.063 0 5.067-1.467 5.719-4.1h-5.010c-0.363 0-0.658-0.294-0.658-0.658v-2.761c0-0.363 0.294-0.658 0.658-0.658h8.734c0.363 0 0.658 0.294 0.658 0.658v1.381c0 6.109-4.059 10.215-10.1 10.215z"></path>
<path class="path2" d="M31.342 14.272h-2.449v-2.449c0-0.363-0.294-0.658-0.658-0.658h-1.17c-0.363 0-0.658 0.294-0.658 0.658v2.449h-2.449c-0.363 0-0.658 0.294-0.658 0.658v1.17c0 0.363 0.294 0.658 0.658 0.658h2.449v2.449c0 0.363 0.294 0.658 0.658 0.658h1.17c0.363 0 0.658-0.294 0.658-0.658v-2.449h2.449c0.363 0 0.658-0.294 0.658-0.658v-1.17c-0-0.363-0.295-0.658-0.658-0.658z"></path>
</symbol>
<symbol id="icon-heart" viewBox="0 0 32 32">
<title>heart</title>
<path class="path1" d="M15.478 29.726l-12.959-12.959c-3.359-3.359-3.359-8.824 0-12.183 3.364-3.364 8.817-3.366 12.183 0l1.295 1.295 1.295-1.295c3.367-3.367 8.816-3.367 12.183 0s3.367 8.816 0 12.183l-12.959 12.959c-0.286 0.287-0.751 0.287-1.038 0zM3.557 5.622c-2.793 2.793-2.794 7.314 0 10.107l12.44 12.44 12.44-12.44c2.793-2.793 2.793-7.314 0-10.107s-7.314-2.793-10.108 0l-1.814 1.814c-0.287 0.286-0.751 0.286-1.038 0l-1.814-1.814c-2.793-2.793-7.314-2.794-10.107-0z"></path>
</symbol>
<symbol id="icon-heart-filled" viewBox="0 0 32 32">
<title>heart</title>
<path class="path1" d="M15.478 29.726l-12.959-12.959c-3.359-3.359-3.359-8.824 0-12.183 3.363-3.363 8.816-3.367 12.183 0l1.295 1.295 1.295-1.295c3.367-3.367 8.816-3.367 12.183 0s3.367 8.816 0 12.183l-12.959 12.959c-0.286 0.287-0.751 0.287-1.038 0z"></path>
</symbol>
<symbol id="icon-home" viewBox="0 0 32 32">
<title>home</title>
<path class="path1" d="M31.018 15.704l-13.836-15.182c-0.634-0.696-1.731-0.696-2.365 0l-13.836 15.182c-0.937 1.028-0.207 2.677 1.182 2.677h2.296v12.019c0 0.882 0.718 1.6 1.6 1.6 0.623 0 18.493 0 19.881 0 0.882 0 1.6-0.718 1.6-1.6v-12.019h2.295c1.391 0 2.118-1.651 1.182-2.677zM12.813 30.4v-9.583h6.374v9.583h-6.374zM26.74 16.781c-0.442 0-0.8 0.358-0.8 0.8v12.819h-5.154v-10.383c0-0.442-0.358-0.8-0.8-0.8h-7.974c-0.442 0-0.8 0.358-0.8 0.8v10.383h-5.154v-12.819c0-0.442-0.358-0.8-0.8-0.8l-3.095-0 13.835-15.182 13.836 15.182h-3.095z"></path>
</symbol>
<symbol id="icon-inbox" viewBox="0 0 32 32">
<title>inbox</title>
<path class="path1" d="M31.965 19.483c-0-0.001-0.001-0.002-0.001-0.004l-4.958-16.922c-0.1-0.341-0.413-0.575-0.768-0.575h-20.475c-0.355 0-0.668 0.234-0.768 0.575l-4.958 16.922c-0.022 0.071-0.036 0.171-0.036 0.239v9.499c0 0.442 0.358 0.8 0.8 0.8h30.4c0.442 0 0.8-0.358 0.8-0.8v-9.499c0-0.067-0.012-0.155-0.035-0.235zM6.362 3.582h19.277l4.494 15.336h-7.268c-0.379 0-0.706 0.266-0.783 0.636l-0.86 4.114h-10.443l-0.86-4.114c-0.078-0.371-0.404-0.636-0.783-0.636h-7.268l4.494-15.336zM30.4 28.418h-28.8v-7.899h6.886l0.86 4.114c0.078 0.371 0.404 0.636 0.783 0.636h11.743c0.379 0 0.706-0.266 0.783-0.636l0.86-4.114h6.886v7.899z"></path>
</symbol>
<symbol id="icon-info" viewBox="0 0 32 32">
<title>info</title>
<path class="path1" d="M16 32c-8.822 0-16-7.178-16-16s7.178-16 16-16c8.822 0 16 7.178 16 16s-7.178 16-16 16zM16 1.684c-7.894 0-14.316 6.422-14.316 14.316s6.422 14.316 14.316 14.316 14.316-6.422 14.316-14.316-6.422-14.316-14.316-14.316z"></path>
<path class="path2" d="M17.705 10.011c0 0.8-0.758 1.516-1.705 1.516-0.968 0-1.726-0.716-1.726-1.516s0.758-1.495 1.726-1.495c0.947 0 1.705 0.695 1.705 1.495zM17.642 14.453v8.021c0 0.505-0.737 1.011-1.642 1.011-0.947 0-1.621-0.505-1.621-1.011v-8.021c0-0.589 0.674-0.989 1.621-0.989 0.905 0 1.642 0.4 1.642 0.989z"></path>
</symbol>
<symbol id="icon-instagram" viewBox="0 0 32 32">
<title>instagram</title>
<path class="path1" d="M29.298 2.702c-3.117-3.117-7.382-2.681-13.306-2.681-7.108 0-10.46-0.165-13.306 2.681-2.894 2.894-2.681 6.393-2.681 13.306 0 6.71-0.246 10.378 2.681 13.306 2.894 2.894 6.393 2.681 13.306 2.681 6.62 0 10.355 0.269 13.306-2.681 3.117-3.117 2.681-7.382 2.681-13.306 0-7.107 0.165-10.46-2.681-13.305zM27.247 27.274c-1.989 1.989-4.58 1.853-11.267 1.853-6.985 0-9.337 0.077-11.267-1.853-1.986-1.986-1.853-4.563-1.853-11.267 0-7.012-0.074-9.34 1.853-11.267 1.94-1.94 4.333-1.853 11.267-1.853 6.865 0 9.305-0.109 11.267 1.853 1.934 1.934 1.853 4.303 1.853 11.267 0 6.74 0.128 9.286-1.853 11.267z"></path>
<path class="path2" d="M15.98 7.792c-4.534 0-8.216 3.682-8.216 8.216s3.682 8.216 8.216 8.216c4.534 0 8.216-3.682 8.216-8.216s-3.682-8.216-8.216-8.216zM15.98 21.344c-2.94 0-5.337-2.384-5.337-5.337 0-2.94 2.384-5.337 5.337-5.337s5.337 2.384 5.337 5.337c0 2.94-2.397 5.337-5.337 5.337z"></path>
<path class="path3" d="M26.431 7.47c0 1.058-0.857 1.915-1.915 1.915s-1.915-0.857-1.915-1.915c0-1.058 0.857-1.915 1.915-1.915s1.915 0.857 1.915 1.915z"></path>
</symbol>
<symbol id="icon-interogation" viewBox="0 0 32 32">
<title>interogation</title>
<path class="path1" d="M16 32c-8.822 0-16-7.178-16-16s7.178-16 16-16c8.822 0 16 7.178 16 16s-7.178 16-16 16zM16 1.684c-7.894 0-14.316 6.422-14.316 14.316s6.422 14.316 14.316 14.316 14.316-6.422 14.316-14.316-6.422-14.316-14.316-14.316z"></path>
<path class="path2" d="M17.958 15.568c-1.158 0.905-1.179 1.537-1.179 2.632 0 0.4-0.211 0.863-1.242 0.863-0.863 0-1.158-0.316-1.158-1.411 0-1.811 0.8-2.674 1.411-3.2 0.695-0.589 1.874-1.242 1.874-2.379 0-0.968-0.842-1.432-1.895-1.432-2.147 0-1.684 1.621-2.821 1.621-0.568 0-1.263-0.379-1.263-1.2 0-1.137 1.305-2.821 4.147-2.821 2.695 0 4.484 1.495 4.484 3.474s-1.789 3.411-2.358 3.853zM17.179 22.137c0 0.863-0.716 1.621-1.621 1.621s-1.6-0.758-1.6-1.621c0-0.884 0.716-1.621 1.6-1.621s1.621 0.737 1.621 1.621z"></path>
</symbol>
<symbol id="icon-laptop" viewBox="0 0 32 32">
<title>laptop</title>
<path class="path1" d="M25.81 6.899h-19.62c-0.442 0-0.8 0.358-0.8 0.8v11.493c0 0.442 0.358 0.8 0.8 0.8h19.62c0.442 0 0.8-0.358 0.8-0.8v-11.493c0-0.442-0.358-0.8-0.8-0.8zM25.010 18.392h-18.020v-9.893h18.020v9.893z"></path>
<path class="path2" d="M31.2 21.192h-1.79v-15.41c0-0.928-0.755-1.683-1.683-1.683h-23.454c-0.928 0-1.683 0.755-1.683 1.683v15.41h-1.79c-0.495 0-0.873 0.447-0.788 0.936l0.63 3.643c0.213 1.233 1.276 2.129 2.528 2.129h25.66c1.252 0 2.315-0.895 2.528-2.129l0.63-3.643c0.084-0.489-0.293-0.936-0.788-0.936zM4.19 5.782c0-0.046 0.037-0.083 0.083-0.083h23.454c0.046 0 0.083 0.037 0.083 0.083v15.41h-23.62v-15.41zM29.782 25.499c-0.080 0.464-0.48 0.801-0.952 0.801h-25.66c-0.471 0-0.871-0.337-0.952-0.801l-0.468-2.707c0.828 0 26.616 0 28.499 0l-0.468 2.707z"></path>
<path class="path3" d="M17.152 23.746h-2.304c-0.442 0-0.8 0.358-0.8 0.8s0.358 0.8 0.8 0.8h2.304c0.442 0 0.8-0.358 0.8-0.8s-0.358-0.8-0.8-0.8z"></path>
</symbol>
<symbol id="icon-left" viewBox="0 0 32 32">
<title>left</title>
<path class="path1" d="M31.111 15.111h-27.581l7.701-5.843c0.391-0.297 0.468-0.854 0.171-1.245s-0.854-0.468-1.245-0.171l-9.806 7.44c-0.463 0.352-0.472 1.058 0 1.416l9.806 7.44c0.391 0.297 0.949 0.22 1.245-0.171s0.22-0.949-0.171-1.245l-7.701-5.843h27.581c0.491 0 0.889-0.398 0.889-0.889s-0.398-0.889-0.889-0.889z"></path>
</symbol>
<symbol id="icon-linkedin" viewBox="0 0 32 32">
<title>linkedin</title>
<path class="path1" d="M6.485 31.534h-4.548c-1.068 0-1.938-0.869-1.938-1.938v-17.953c0-1.068 0.869-1.938 1.938-1.938h4.548c1.068 0 1.937 0.869 1.937 1.938v17.952c0 1.068-0.869 1.938-1.938 1.938zM2 29.534h4.423v-17.828h-4.423v17.828zM6.485 11.706v0z"></path>
<path class="path2" d="M4.591 8.852h-0.041c-2.684 0-4.55-1.949-4.55-4.427 0-2.564 1.949-4.425 4.634-4.425 2.648 0 4.536 1.811 4.592 4.403 0 0.007 0 0.014 0 0.021 0 2.565-1.949 4.427-4.634 4.427zM4.634 2c-1.575 0-2.634 0.974-2.634 2.425 0 1.429 1.049 2.427 2.55 2.427h0.041c1.572 0 2.629-0.971 2.634-2.417-0.037-1.503-1.029-2.436-2.592-2.436z"></path>
<path class="path3" d="M16.878 32h-4.544c-1.074 0-1.942-0.871-1.938-1.945 0.014-3.311 0.057-14.387 0.016-17.923-0.006-0.522 0.192-1.013 0.559-1.384s0.856-0.575 1.379-0.575h4.529c0.818 0 1.52 0.51 1.803 1.229 3.784-3.25 13.319-2.572 13.319 8.23l-0 10.431c0 1.068-0.869 1.938-1.938 1.938h-4.548c-1.068 0-1.938-0.869-1.938-1.938v-9.67c0-3.483-1.638-3.483-2.255-3.483-1.506 0-2.155 1.241-2.365 1.775-0.096 0.238-0.142 0.654-0.142 1.243v10.136c0 1.068-0.869 1.937-1.938 1.937zM12.396 30h4.419v-10.073c0-0.88 0.087-1.491 0.283-1.98 0.745-1.9 2.325-3.038 4.224-3.038 3.042 0 4.255 2.426 4.255 5.483v9.608h4.423l0-10.368c0-5.036-2.331-7.925-6.395-7.925-2.794 0-4.067 1.42-4.944 2.808-0.533 0.843-1.846 0.466-1.846-0.534v-1.808h-4.403c0.040 3.596-0.002 14.458-0.016 17.827z"></path>
</symbol>
<symbol id="icon-lock" viewBox="0 0 32 32">
<title>lock</title>
<path class="path1" d="M25.942 15.2h-1.824v-7.082c0-4.476-3.642-8.118-8.118-8.118s-8.118 3.642-8.118 8.118v7.082h-1.824c-0.442 0-0.8 0.358-0.8 0.8v15.2c0 0.442 0.358 0.8 0.8 0.8h19.884c0.442 0 0.8-0.358 0.8-0.8v-15.2c-0-0.442-0.358-0.8-0.8-0.8zM9.482 8.118c0-3.594 2.924-6.518 6.518-6.518s6.518 2.924 6.518 6.518v7.082h-13.036v-7.082zM25.142 30.4h-18.284v-13.6c1.078 0 17.278 0 18.284 0v13.6z"></path>
<path class="path2" d="M16 20.051c-1.957 0-3.549 1.592-3.549 3.549s1.592 3.549 3.549 3.549c1.957 0 3.549-1.592 3.549-3.549s-1.592-3.549-3.549-3.549zM16 25.549c-1.075 0-1.949-0.874-1.949-1.949s0.874-1.949 1.949-1.949c1.075 0 1.949 0.874 1.949 1.949s-0.874 1.949-1.949 1.949z"></path>
</symbol>
<symbol id="icon-logout" viewBox="0 0 32 32">
<title>logout</title>
<path class="path1" d="M20.074 31.714h-17.455c-1.444 0-2.619-1.175-2.619-2.619v-26.19c0-1.444 1.175-2.619 2.619-2.619h17.455c1.444 0 2.619 1.175 2.619 2.619v2.801c0 0.482-0.391 0.873-0.873 0.873s-0.873-0.391-0.873-0.873v-2.801c0-0.481-0.392-0.873-0.873-0.873h-17.455c-0.481 0-0.873 0.392-0.873 0.873v26.19c0 0.481 0.392 0.873 0.873 0.873h17.455c0.481 0 0.873-0.392 0.873-0.873v-2.8c0-0.482 0.391-0.873 0.873-0.873s0.873 0.391 0.873 0.873v2.8c0 1.444-1.175 2.619-2.619 2.619z"></path>
<path class="path2" d="M20.791 21.535v-1.876h-9.736c-0.963 0-1.746-0.783-1.746-1.746v-3.826c0-0.963 0.783-1.746 1.746-1.746h9.736v-1.876c0-1.42 1.609-2.247 2.764-1.419l7.718 5.535c0.97 0.695 0.97 2.142-0 2.838l-7.718 5.535c-0 0-0 0-0 0-1.153 0.827-2.764 0.002-2.764-1.419zM22.537 21.535v0 0l7.718-5.535-7.718-5.535-0 2.749c0 0.482-0.391 0.873-0.873 0.873h-10.609v3.826h10.609c0.482 0 0.873 0.391 0.873 0.873v2.749z"></path>
</symbol>
<symbol id="icon-marker" viewBox="0 0 32 32">
<title>marker</title>
<path class="path1" d="M15.538 31.853c-0.121-0.085-2.993-2.13-5.903-5.546-3.388-3.976-5.946-8.796-5.946-13.997 0-6.788 5.522-12.311 12.311-12.311s12.311 5.522 12.311 12.311c0 5.201-2.558 10.020-5.946 13.997-2.909 3.415-5.782 5.46-5.903 5.546-0.277 0.196-0.646 0.196-0.923 0zM16 1.6c-5.906 0-10.711 4.805-10.711 10.711 0 2.933 0.965 7.561 5.564 12.96 2.112 2.479 4.235 4.225 5.146 4.93 0.916-0.709 3.057-2.471 5.172-4.959 3.109-3.659 5.539-8.13 5.539-12.93 0-5.906-4.805-10.711-10.711-10.711z"></path>
<path class="path2" d="M16 18.402c-3.359 0-6.091-2.732-6.091-6.091s2.733-6.091 6.091-6.091 6.091 2.733 6.091 6.091-2.733 6.091-6.091 6.091zM16 7.819c-2.476 0-4.491 2.015-4.491 4.491s2.015 4.491 4.491 4.491 4.491-2.015 4.491-4.491c0-2.477-2.015-4.491-4.491-4.491z"></path>
</symbol>
<symbol id="icon-mastercard" viewBox="0 0 32 32">
<title>mastercard</title>
<path class="path1" d="M16.794 7.279c-7.025-4.952-16.794 0.093-16.794 8.721 0 8.63 9.77 13.673 16.794 8.721 6.712 3.941 15.206-0.935 15.206-8.721 0-7.784-8.492-12.663-15.206-8.721zM18.214 23.524c4.15-4.165 4.154-10.878 0-15.047 5.542-2.722 12.056 1.34 12.056 7.523 0 6.176-6.506 10.249-12.056 7.524z"></path>
</symbol>
<symbol id="icon-menuburger" viewBox="0 0 32 32">
<title>menuburger</title>
<path class="path1" d="M30.951 5.911h-29.901c-0.58 0-1.049-0.47-1.049-1.049s0.47-1.049 1.049-1.049h29.901c0.579 0 1.049 0.47 1.049 1.049s-0.47 1.049-1.049 1.049z"></path>
<path class="path2" d="M30.951 17.049h-29.901c-0.58 0-1.049-0.47-1.049-1.049s0.47-1.049 1.049-1.049h29.901c0.579 0 1.049 0.47 1.049 1.049s-0.47 1.049-1.049 1.049z"></path>
<path class="path3" d="M30.951 28.188h-29.901c-0.58 0-1.049-0.47-1.049-1.049s0.47-1.049 1.049-1.049h29.901c0.579 0 1.049 0.47 1.049 1.049s-0.47 1.049-1.049 1.049z"></path>
</symbol>
<symbol id="icon-menudots" viewBox="0 0 32 32">
<title>menudots</title>
<path class="path1" d="M18.786 16c0 1.539-1.247 2.786-2.786 2.786s-2.786-1.247-2.786-2.786c0-1.539 1.247-2.786 2.786-2.786s2.786 1.247 2.786 2.786z"></path>
<path class="path2" d="M5.572 16c0 1.539-1.247 2.786-2.786 2.786s-2.786-1.247-2.786-2.786c0-1.539 1.247-2.786 2.786-2.786s2.786 1.247 2.786 2.786z"></path>
<path class="path3" d="M32 16c0 1.539-1.247 2.786-2.786 2.786s-2.786-1.247-2.786-2.786c0-1.539 1.247-2.786 2.786-2.786s2.786 1.247 2.786 2.786z"></path>
</symbol>
<symbol id="icon-minus" viewBox="0 0 32 32">
<title>minus</title>
<path class="path1" d="M31.158 16.842h-30.316c-0.465 0-0.842-0.377-0.842-0.842s0.377-0.842 0.842-0.842h30.316c0.465 0 0.842 0.377 0.842 0.842s-0.377 0.842-0.842 0.842z"></path>
</symbol>
<symbol id="icon-next" viewBox="0 0 32 32">
<title>next</title>
<path class="path1" d="M5.987 31.671c-0.309-0.381-0.25-0.941 0.131-1.25l17.793-14.421-17.793-14.421c-0.381-0.309-0.44-0.869-0.131-1.25s0.869-0.44 1.25-0.131l18.645 15.111c0.439 0.356 0.438 1.026 0 1.381l-18.645 15.111c-0.381 0.309-0.941 0.251-1.25-0.131z"></path>
</symbol>
<symbol id="icon-notification" viewBox="0 0 32 32">
<title>notification</title>
<path class="path1" d="M27.907 26.584l-2.447-5.070v-8.633c0-4.107-2.606-7.574-6.235-8.895v-0.761c0-1.778-1.447-3.225-3.225-3.225s-3.225 1.447-3.225 3.225v0.761c-3.621 1.318-6.235 4.78-6.235 8.895v8.633l-2.447 5.070c-0.256 0.531 0.131 1.148 0.72 1.148h6.182c0.385 2.416 2.482 4.268 5.004 4.268s4.62-1.852 5.004-4.268h6.182c0.589 0 0.976-0.617 0.72-1.148zM16 30.4c-1.637 0-3.013-1.14-3.375-2.668h6.75c-0.362 1.528-1.738 2.668-3.375 2.668zM6.088 26.132l1.972-4.087c0.052-0.108 0.080-0.227 0.080-0.348v-8.815c0-3.589 2.401-6.599 5.659-7.548 0.342-0.099 0.576-0.412 0.576-0.768v-1.34c-0-0.896 0.729-1.625 1.625-1.625s1.625 0.729 1.625 1.625v1.34c0 0.356 0.235 0.669 0.576 0.768 3.247 0.946 5.659 3.948 5.659 7.548v8.816c0 0.12 0.027 0.239 0.080 0.348l1.972 4.087c-1.050-0-18.921-0-19.824-0z"></path>
</symbol>
<symbol id="icon-pause" viewBox="0 0 32 32">
<title>pause</title>
<path class="path1" d="M10.375 31.063h-7.5c-1.585 0-2.875-1.29-2.875-2.875v-24.375c0-1.585 1.29-2.875 2.875-2.875h7.5c1.585 0 2.875 1.29 2.875 2.875v24.375c0 1.585-1.29 2.875-2.875 2.875zM2.875 2.938c-0.482 0-0.875 0.393-0.875 0.875v24.375c0 0.483 0.393 0.875 0.875 0.875h7.5c0.482 0 0.875-0.392 0.875-0.875v-24.375c0-0.482-0.393-0.875-0.875-0.875h-7.5z"></path>
<path class="path2" d="M29.125 31.063h-7.5c-1.585 0-2.875-1.29-2.875-2.875v-24.375c0-1.585 1.29-2.875 2.875-2.875h7.5c1.585 0 2.875 1.29 2.875 2.875v24.375c0 1.585-1.29 2.875-2.875 2.875zM21.625 2.938c-0.483 0-0.875 0.393-0.875 0.875v24.375c0 0.483 0.392 0.875 0.875 0.875h7.5c0.483 0 0.875-0.392 0.875-0.875v-24.375c0-0.482-0.392-0.875-0.875-0.875h-7.5z"></path>
</symbol>
<symbol id="icon-paypal" viewBox="0 0 32 32">
<title>paypal</title>
<path class="path1" d="M19.085 1.778c3.325 0 7.191 2.452 6.038 7.844-1.017 4.763-4.817 7.564-9.362 7.564h-2.42c-0.439 0-1.513-0.155-1.725 1.184l-1.31 8.297-5.132-0c-0.65 0-1.287-0.541-1.185-1.185l3.556-22.518c0.102-0.644 0.533-1.185 1.185-1.185 1.076 0 9.283 0 10.356 0zM27.374 10.413v0 0zM27.374 10.413c1.745 3.108 0.354 11.259-8.974 11.227l-0 0c-1.132 0.006-1.394 0.019-1.623 1.47l-0.936 5.929c-0.098 0.616-0.503 1.141-1.112 1.18l-3.742 0.002c-0 0-0 0-0.001 0-0.502 0-1.181-0.378-1.054-1.185h2.4l1.51-9.482 1.92 0c5.715 0 10.298-3.602 11.613-9.142zM19.085 0h-10.356c-1.482 0-2.692 1.104-2.941 2.686l-3.556 22.518c-0.122 0.772 0.108 1.566 0.631 2.178 0.569 0.666 1.432 1.063 2.311 1.063h3.081c-0.036 0.101-0.063 0.206-0.080 0.315-0.293 1.854 1.162 3.24 2.81 3.24 4.023-0.003 3.768-0 3.857-0.006 0.754-0.048 1.45-0.391 1.961-0.966 0.414-0.465 0.688-1.056 0.792-1.708l0.932-5.901c4.138-0.018 7.85-1.553 9.895-5.047 1.759-3.005 1.728-6.644 0.502-8.829-0.362-0.645-1.098-1.013-1.857-0.881 0.256-2.765-0.684-4.629-1.593-5.752-1.474-1.822-3.862-2.91-6.389-2.91v0z"></path>
</symbol>
<symbol id="icon-pencil" viewBox="0 0 32 32">
<title>pencil</title>
<path class="path1" d="M30.456 8.994c2.058-2.058 2.058-5.39-0.001-7.449s-5.391-2.059-7.45 0l-20.479 20.479c-0.125 0.125-0.217 0.291-0.258 0.446l-2.232 8.269c-0.2 0.741 0.479 1.428 1.226 1.226l8.269-2.232c0.003-0.001 0.005-0.002 0.008-0.003 0.166-0.046 0.321-0.138 0.439-0.256l20.479-20.479c0-0 0-0 0-0.001s0.001-0.001 0.001-0.001zM29.041 2.958c1.042 1.042 1.222 2.591 0.597 3.805l-4.402-4.402c1.213-0.625 2.762-0.446 3.805 0.597zM9.27 27.352l-4.622-4.622 19.065-19.065 1.604 1.604-12.785 12.785c-0.39 0.39-0.39 1.024 0 1.414s1.024 0.39 1.414 0l12.784-12.785 1.604 1.604-19.065 19.065zM3.748 24.659l3.592 3.592-4.921 1.329 1.329-4.921z"></path>
</symbol>
<symbol id="icon-phone" viewBox="0 0 32 32">
<title>phone</title>
<path class="path1" d="M23.078 32h-14.157c-2.322 0-4.211-1.889-4.211-4.211v-23.579c0-2.322 1.889-4.211 4.211-4.211h14.157c2.322 0 4.211 1.889 4.211 4.211v23.579c0 2.322-1.889 4.211-4.21 4.211zM8.922 1.684c-1.393 0-2.526 1.133-2.526 2.526v23.579c0 1.393 1.133 2.526 2.526 2.526h14.157c1.393 0 2.526-1.133 2.526-2.526v-23.579c0-1.393-1.133-2.526-2.526-2.526h-14.157z"></path>
<path class="path2" d="M23.136 24.030h-14.271c-0.665 0-1.206-0.541-1.206-1.206v-17.495c0-0.665 0.541-1.206 1.206-1.206h14.271c0.665 0 1.206 0.541 1.206 1.206v17.495c0 0.665-0.541 1.206-1.206 1.206zM9.343 22.345h13.314v-16.538h-13.314v16.538z"></path>
<path class="path3" d="M17.843 27.173c0 1.018-0.825 1.843-1.843 1.843s-1.843-0.825-1.843-1.843c0-1.018 0.825-1.843 1.843-1.843s1.843 0.825 1.843 1.843z"></path>
</symbol>
<symbol id="icon-pinterest" viewBox="0 0 32 32">
<title>pinterest</title>
<path class="path1" d="M4.325 11.482c0 3.161 1.13 5.974 3.553 7.022 0.397 0.172 0.753 0.006 0.869-0.46 0.080-0.323 0.27-1.136 0.354-1.475 0.116-0.461 0.071-0.623-0.25-1.024-0.699-0.873-1.145-2.003-1.145-3.605 0-10.929 15.762-11.943 15.762-1.76 0 5.3-2.214 9.773-5.501 9.773-1.815 0-3.174-1.59-2.738-3.541 0.521-2.328 1.532-4.841 1.532-6.522 0-1.505-0.762-2.759-2.34-2.759-1.856 0-3.346 2.034-3.346 4.758 0 1.735 0.553 2.908 0.553 2.908s-1.899 8.523-2.232 10.016c-0.663 2.973-0.1 6.617-0.052 6.985 0.028 0.218 0.293 0.27 0.412 0.105 0.171-0.237 2.381-3.127 3.132-6.015 0.213-0.818 1.22-5.052 1.22-5.052 0.603 1.218 2.365 2.291 4.238 2.291 11.515 0 13.895-23.127-1.623-23.127-8.244 0-12.4 6.261-12.4 11.482z"></path>
</symbol>
<symbol id="icon-play" viewBox="0 0 32 32">
<title>play</title>
<path class="path1" d="M1.745 28.991v-25.982c0-2.312 2.502-3.759 4.506-2.602l22.501 12.991c2.003 1.156 2.004 4.046 0 5.203l-22.501 12.991c-2.002 1.156-4.506-0.287-4.506-2.602zM3.748 3.009v25.982c0 0.772 0.835 1.253 1.502 0.867l22.501-12.991c0.669-0.386 0.668-1.349 0-1.734l-22.501-12.991c-0.669-0.386-1.502 0.098-1.502 0.867z"></path>
</symbol>
<symbol id="icon-plus" viewBox="0 0 32 32">
<title>plus</title>
<path class="path1" d="M31.158 15.158h-14.316v-14.316c0-0.465-0.377-0.842-0.842-0.842s-0.842 0.377-0.842 0.842v14.316h-14.316c-0.465 0-0.842 0.377-0.842 0.842s0.377 0.842 0.842 0.842h14.316v14.316c0 0.465 0.377 0.842 0.842 0.842s0.842-0.377 0.842-0.842v-14.316h14.316c0.465 0 0.842-0.377 0.842-0.842s-0.377-0.842-0.842-0.842z"></path>
</symbol>
<symbol id="icon-prev" viewBox="0 0 32 32">
<title>prev</title>
<path class="path1" d="M24.763 31.802l-18.645-15.111c-0.439-0.356-0.438-1.026 0-1.381l18.645-15.111c0.381-0.309 0.941-0.251 1.25 0.131s0.25 0.941-0.131 1.25l-17.793 14.421 17.793 14.421c0.381 0.309 0.44 0.869 0.131 1.25s-0.869 0.44-1.25 0.131z"></path>
</symbol>
<symbol id="icon-refresh" viewBox="0 0 32 32">
<title>refresh</title>
<path class="path1" d="M31.2 4.627c-0.484-0.044-0.913 0.312-0.957 0.797l-0.28 3.058c-6-11.155-22.183-11.128-28.058 0.26-0.223 0.432-0.053 0.963 0.379 1.186s0.963 0.053 1.186-0.379c5.368-10.406 20.28-10.057 25.251 0.378l-3.256-2.299c-0.397-0.281-0.947-0.186-1.227 0.211s-0.186 0.947 0.211 1.227c0.043 0.031 5.516 3.896 5.56 3.926 0.555 0.373 1.308 0.015 1.369-0.65l0.619-6.758c0.044-0.484-0.312-0.913-0.797-0.957z"></path>
<path class="path2" d="M29.717 22.072c-0.432-0.223-0.963-0.053-1.186 0.379-5.368 10.406-20.28 10.057-25.251-0.378l3.256 2.299c0.397 0.281 0.947 0.186 1.227-0.211s0.186-0.947-0.211-1.227c-0.077-0.054-5.478-3.869-5.556-3.923-0.563-0.383-1.313-0.008-1.372 0.647l-0.619 6.758c-0.044 0.484 0.312 0.913 0.797 0.957 0.027 0.002 0.054 0.004 0.081 0.004 0.45 0 0.834-0.343 0.876-0.8l0.28-3.058c6 11.155 22.183 11.128 28.058-0.26 0.223-0.432 0.053-0.963-0.379-1.186z"></path>
</symbol>
<symbol id="icon-resize" viewBox="0 0 32 32">
<title>resize</title>
<path class="path1" d="M30.99 0.009l-8.369 1.149c-0.486 0.067-0.826 0.515-0.76 1.002s0.516 0.827 1.002 0.76l5.752-0.789-10.495 10.495c-0.347 0.347-0.347 0.91 0 1.257s0.91 0.347 1.257 0l10.495-10.495-0.789 5.752c-0.067 0.486 0.273 0.935 0.76 1.002s0.935-0.273 1.002-0.76l1.149-8.369c0.081-0.585-0.424-1.081-1.001-1.002z"></path>
<path class="path2" d="M12.624 18.119l-10.495 10.495 0.789-5.752c0.067-0.486-0.273-0.935-0.76-1.002s-0.935 0.273-1.002 0.76l-1.149 8.369c-0.080 0.573 0.412 1.083 1.002 1.002l8.369-1.149c0.486-0.067 0.826-0.515 0.76-1.002s-0.515-0.827-1.002-0.76l-5.752 0.789 10.495-10.495c0.347-0.347 0.347-0.91 0-1.257s-0.91-0.347-1.257 0z"></path>
</symbol>
<symbol id="icon-right" viewBox="0 0 32 32">
<title>right</title>
<path class="path1" d="M31.649 15.292l-9.806-7.44c-0.391-0.297-0.949-0.22-1.245 0.171s-0.22 0.949 0.171 1.245l7.701 5.843h-27.581c-0.491 0-0.889 0.398-0.889 0.889s0.398 0.889 0.889 0.889h27.581l-7.701 5.843c-0.391 0.297-0.468 0.854-0.171 1.245s0.855 0.468 1.245 0.171l9.806-7.44c0.47-0.357 0.466-1.063 0-1.417z"></path>
</symbol>
<symbol id="icon-save" viewBox="0 0 32 32">
<title>save</title>
<path class="path1" d="M31.74 10.418l-10.157-10.157c-0.167-0.167-0.393-0.26-0.628-0.26h-0.028c-2.254 0-19.726 0-20.037 0-0.491 0-0.889 0.398-0.889 0.889v30.222c0 0.491 0.398 0.889 0.889 0.889 0.639 0 29.583 0 30.222 0 0.491 0 0.889-0.398 0.889-0.889v-20.065c0-0.236-0.094-0.462-0.26-0.629zM20.037 1.778v5.328h-8.074v-5.328h8.074zM8.115 30.222v-11.847h15.77v11.847h-15.77zM30.222 30.222h-4.559v-12.736c0-0.491-0.398-0.889-0.889-0.889h-17.548c-0.491 0-0.889 0.398-0.889 0.889v12.736h-4.559v-28.444h8.407v6.217c0 0.491 0.398 0.889 0.889 0.889h9.852c0.491 0 0.889-0.398 0.889-0.889v-4.987l8.407 8.407v18.808z"></path>
</symbol>
<symbol id="icon-search" viewBox="0 0 32 32">
<title>search</title>
<path class="path1" d="M31.716 30.344l-10.843-10.843c3.949-4.649 3.73-11.65-0.658-16.037-4.618-4.618-12.133-4.618-16.751 0s-4.618 12.133 0 16.751v0c4.386 4.386 11.386 4.608 16.037 0.658l10.843 10.843c0.379 0.379 0.993 0.379 1.372 0s0.379-0.993 0-1.372zM4.835 18.843c-3.862-3.862-3.862-10.146 0-14.008s10.146-3.862 14.008 0 3.862 10.146 0 14.008c-3.862 3.862-10.146 3.862-14.008 0z"></path>
</symbol>
<symbol id="icon-settings" viewBox="0 0 32 32">
<title>settings</title>
<path class="path1" d="M16 21.073c-2.797 0-5.073-2.276-5.073-5.073s2.276-5.073 5.073-5.073 5.073 2.276 5.073 5.073-2.276 5.073-5.073 5.073zM16 12.527c-1.915 0-3.473 1.558-3.473 3.473s1.558 3.473 3.473 3.473 3.473-1.558 3.473-3.473-1.558-3.473-3.473-3.473z"></path>
<path class="path2" d="M18.708 32h-5.416c-0.415 0-0.762-0.318-0.797-0.732l-0.346-4.047c-1.441-0.495-2.785-1.272-3.938-2.276l-3.68 1.725c-0.376 0.176-0.825 0.035-1.032-0.324l-2.708-4.69c-0.208-0.36-0.106-0.819 0.235-1.056l3.333-2.324c-0.291-1.498-0.291-3.051 0-4.549l-3.333-2.324c-0.341-0.238-0.443-0.696-0.235-1.056l2.708-4.69c0.208-0.36 0.656-0.501 1.032-0.324l3.68 1.725c1.153-1.004 2.498-1.781 3.938-2.276l0.346-4.047c0.035-0.414 0.382-0.732 0.797-0.732h5.416c0.415 0 0.762 0.318 0.797 0.732l0.346 4.047c1.441 0.495 2.785 1.272 3.938 2.276l3.68-1.725c0.376-0.176 0.825-0.035 1.032 0.324l2.708 4.69c0.208 0.36 0.106 0.819-0.235 1.056l-3.333 2.324c0.292 1.5 0.292 3.048 0 4.549l3.333 2.324c0.341 0.238 0.443 0.696 0.235 1.056l-2.708 4.69c-0.208 0.36-0.656 0.501-1.032 0.324l-3.68-1.725c-1.153 1.004-2.498 1.781-3.938 2.276l-0.346 4.047c-0.035 0.414-0.382 0.732-0.797 0.732zM14.027 30.4h3.947l0.329-3.848c0.028-0.329 0.256-0.607 0.573-0.7 1.57-0.458 3.028-1.3 4.216-2.437 0.239-0.228 0.593-0.287 0.893-0.146l3.499 1.64 1.973-3.418-3.168-2.209c-0.271-0.189-0.398-0.525-0.32-0.845 0.388-1.594 0.39-3.272 0-4.872-0.078-0.321 0.049-0.657 0.32-0.845l3.168-2.209-1.973-3.418-3.499 1.64c-0.299 0.14-0.654 0.082-0.893-0.146-1.188-1.137-2.646-1.979-4.216-2.437-0.317-0.092-0.545-0.371-0.573-0.7l-0.329-3.848h-3.947l-0.329 3.848c-0.028 0.329-0.256 0.607-0.573 0.7-1.57 0.458-3.028 1.3-4.216 2.437-0.239 0.228-0.593 0.287-0.893 0.146l-3.499-1.64-1.973 3.418 3.168 2.209c0.271 0.189 0.398 0.525 0.32 0.845-0.388 1.594-0.388 3.279 0 4.872 0.078 0.321-0.049 0.657-0.32 0.845l-3.168 2.209 1.973 3.418 3.499-1.64c0.299-0.14 0.654-0.082 0.893 0.146 1.188 1.137 2.646 1.979 4.216 2.437 0.317 0.092 0.545 0.371 0.573 0.7l0.329 3.848z"></path>
</symbol>
<symbol id="icon-share" viewBox="0 0 32 32">
<title>share</title>
<path class="path1" d="M26.288 20.724c-2.022 0-3.798 1.070-4.793 2.674l-10.314-6.032c0.22-0.881 0.228-1.816 0-2.731l10.314-6.032c0.995 1.603 2.771 2.674 4.793 2.674 3.109 0 5.638-2.529 5.638-5.638s-2.529-5.638-5.638-5.638c-3.647 0-6.361 3.436-5.47 7.003l-10.314 6.032c-0.995-1.603-2.771-2.674-4.793-2.674-3.109 0-5.638 2.529-5.638 5.638s2.529 5.638 5.638 5.638c2.022 0 3.798-1.070 4.793-2.674l10.314 6.032c-0.891 3.568 1.825 7.003 5.47 7.003 3.109 0 5.638-2.529 5.638-5.638s-2.529-5.638-5.638-5.638zM26.288 1.722c2.159 0 3.916 1.757 3.916 3.916s-1.757 3.916-3.916 3.916c-2.159 0-3.916-1.757-3.916-3.916s1.757-3.916 3.916-3.916zM5.712 19.916c-2.159 0-3.916-1.757-3.916-3.916s1.757-3.916 3.916-3.916 3.916 1.757 3.916 3.916c-0 2.159-1.757 3.916-3.916 3.916zM26.288 30.278c-2.159 0-3.916-1.757-3.916-3.916s1.757-3.916 3.916-3.916c2.159 0 3.916 1.757 3.916 3.916s-1.757 3.916-3.916 3.916z"></path>
</symbol>
<symbol id="icon-star" viewBox="0 0 32 32">
<title>star</title>
<path class="path1" d="M5.508 28.995l2.687-8.883c0.031-0.102-0.005-0.213-0.090-0.277l-7.395-5.607c-1.35-1.023-0.648-3.174 1.042-3.208l9.278-0.189c0.106-0.002 0.201-0.071 0.236-0.171l3.047-8.766c0.556-1.6 2.818-1.597 3.373 0l3.047 8.766c0.035 0.1 0.13 0.169 0.236 0.171l9.278 0.189c1.694 0.034 2.39 2.187 1.042 3.208l-7.395 5.607c-0.085 0.064-0.121 0.176-0.090 0.277l2.687 8.883c0.49 1.621-1.341 2.949-2.729 1.983l-7.617-5.301c-0.087-0.061-0.204-0.061-0.292 0l-7.617 5.301c-1.39 0.967-3.219-0.364-2.729-1.983zM15.759 2.396l-3.047 8.766c-0.244 0.702-0.907 1.184-1.65 1.199l-9.278 0.189c-0.244 0.005-0.344 0.311-0.149 0.459l7.395 5.607c0.592 0.449 0.846 1.229 0.63 1.94l-2.687 8.883c-0.071 0.234 0.189 0.423 0.39 0.283l7.618-5.301c0.61-0.425 1.43-0.425 2.040 0l7.617 5.301c0.201 0.14 0.461-0.049 0.39-0.283l-2.687-8.883c-0.215-0.711 0.038-1.491 0.63-1.94l7.395-5.607c0.195-0.148 0.096-0.454-0.149-0.459l-9.278-0.189c-0.743-0.015-1.406-0.497-1.65-1.199l-3.047-8.766c-0.081-0.231-0.402-0.231-0.482 0z"></path>
</symbol>
<symbol id="icon-stop" viewBox="0 0 32 32">
<title>stop</title>
<path class="path1" d="M27.733 32h-23.467c-2.353 0-4.267-1.914-4.267-4.267v-23.467c0-2.353 1.914-4.267 4.267-4.267h23.467c2.353 0 4.267 1.914 4.267 4.267v23.467c0 2.353-1.914 4.267-4.267 4.267zM4.267 2.133c-1.176 0-2.133 0.957-2.133 2.133v23.467c0 1.176 0.957 2.133 2.133 2.133h23.467c1.176 0 2.133-0.957 2.133-2.133v-23.467c0-1.176-0.957-2.133-2.133-2.133h-23.467z"></path>
</symbol>
<symbol id="icon-stumbleupon" viewBox="0 0 32 32">
<title>stumbleupon</title>
<path class="path1" d="M17.693 10.963c0-0.935-0.758-1.693-1.694-1.693s-1.694 0.758-1.694 1.693l-0.008 10.205c-0.054 3.866-3.17 6.992-7.037 7.049-3.993 0.059-7.261-3.283-7.261-7.277v-3.548c0-0.422 0.342-0.764 0.764-0.764h3.948c0.422 0 0.764 0.342 0.764 0.764v3.559c0 0.932 0.73 1.732 1.662 1.748 0.95 0.017 1.724-0.747 1.724-1.693v-10.332c0.137-3.83 3.276-6.894 7.139-6.894 3.877 0 7.023 3.086 7.139 6.936v1.692c0 0.338-0.222 0.635-0.545 0.732l-2.436 0.727c-0.179 0.053-0.372 0.039-0.541-0.040l-1.482-0.691c-0.269-0.125-0.441-0.395-0.441-0.692l-0-1.483zM26.525 17.434v3.723c0 0.933-0.731 1.732-1.663 1.748-0.949 0.016-1.723-0.749-1.723-1.694v-3.47c0-0.511-0.492-0.878-0.982-0.732l-1.999 0.597c-0.179 0.053-0.372 0.039-0.541-0.040l-0.836-0.39c-0.506-0.236-1.086 0.134-1.086 0.692v3.26c0.033 3.883 3.163 7.029 7.039 7.089 3.996 0.062 7.267-3.281 7.267-7.278v-3.505c0-0.422-0.342-0.764-0.764-0.764h-3.948c-0.422 0-0.764 0.342-0.764 0.764z"></path>
</symbol>
<symbol id="icon-support" viewBox="0 0 32 32">
<title>support</title>
<path class="path1" d="M15.475 11.841c0 0.828-0.671 1.499-1.499 1.499s-1.499-0.671-1.499-1.499c0-0.828 0.671-1.499 1.499-1.499s1.499 0.671 1.499 1.499z"></path>
<path class="path2" d="M9.209 11.841c0 0.828-0.671 1.499-1.499 1.499s-1.499-0.671-1.499-1.499c0-0.828 0.671-1.499 1.499-1.499s1.499 0.671 1.499 1.499z"></path>
<path class="path3" d="M21.74 11.841c0 0.828-0.671 1.499-1.499 1.499s-1.499-0.671-1.499-1.499c0-0.828 0.671-1.499 1.499-1.499s1.499 0.671 1.499 1.499z"></path>
<path class="path4" d="M28.665 27.392c2.106-1.377 3.335-3.44 3.335-5.668 0-2.733-1.846-5.181-4.776-6.439 0.471-1.119 0.728-2.32 0.728-3.576 0-6.296-6.389-11.174-13.976-11.174-7.588 0-13.976 4.879-13.976 11.174 0 3.544 2.060 6.822 5.56 8.927l-3.558 4.799c-0.505 0.681 0.21 1.611 1.003 1.278l9.293-3.91c0.575 0.056 1.146 0.081 1.709 0.081 0.742 3.78 5.041 6.529 9.938 6.097l5.737 2.414c0.794 0.333 1.507-0.598 1.003-1.278l-2.021-2.726zM12.261 21.106c-0.142-0.015-0.286 0.006-0.418 0.061l-6.657 2.801 2.298-3.099c0.309-0.417 0.17-1.013-0.292-1.251-3.449-1.771-5.508-4.727-5.508-7.909 0-5.233 5.514-9.49 12.292-9.49s12.292 4.257 12.292 9.49c0 5.833-6.763 10.184-14.006 9.397zM24.403 27.347c-0.13-0.055-0.273-0.076-0.417-0.061-3.91 0.421-7.527-1.586-8.271-4.485 4.225-0.419 8.463-2.468 10.723-6.020 2.377 0.977 3.878 2.864 3.878 4.943 0 1.869-1.223 3.613-3.272 4.665-0.462 0.237-0.602 0.833-0.292 1.251l0.75 1.011-3.099-1.304z"></path>
</symbol>
<symbol id="icon-tablet" viewBox="0 0 32 32">
<title>tablet</title>
<path class="path1" d="M29.57 27.9h-27.14c-1.34 0-2.43-1.090-2.43-2.43v-18.94c0-1.34 1.090-2.43 2.43-2.43h27.14c1.34 0 2.43 1.090 2.43 2.43v18.94c0 1.34-1.090 2.43-2.43 2.43zM2.43 5.72c-0.447 0-0.81 0.363-0.81 0.81v18.94c0 0.447 0.363 0.81 0.81 0.81h27.14c0.447 0 0.81-0.363 0.81-0.81v-18.94c0-0.447-0.363-0.81-0.81-0.81h-27.14z"></path>
<path class="path2" d="M24.812 25.065h-21.167c-0.447 0-0.81-0.363-0.81-0.81v-16.51c0-0.447 0.363-0.81 0.81-0.81h21.167c0.447 0 0.81 0.363 0.81 0.81v16.51c0 0.447-0.363 0.81-0.81 0.81zM4.455 23.445h19.547v-14.89h-19.547v14.89z"></path>
<path class="path3" d="M29.254 16c0 0.692-0.561 1.253-1.253 1.253s-1.253-0.561-1.253-1.253c0-0.692 0.561-1.253 1.253-1.253s1.253 0.561 1.253 1.253z"></path>
</symbol>
<symbol id="icon-tag" viewBox="0 0 32 32">
<title>tag</title>
<path class="path1" d="M23.281 32h-14.563c-0.442 0-0.8-0.358-0.8-0.8v-21.788c0-0.189 0.067-0.372 0.189-0.517l7.281-8.612c0.319-0.378 0.903-0.378 1.222 0l7.281 8.612c0.122 0.144 0.189 0.327 0.189 0.517v21.788c0 0.442-0.358 0.8-0.8 0.8zM9.519 30.4h12.963v-20.696l-6.481-7.666-6.481 7.666v20.696z"></path>
<path class="path2" d="M16 14.917c-1.652 0-2.996-1.344-2.996-2.996s1.344-2.996 2.996-2.996 2.996 1.344 2.996 2.996c0 1.652-1.344 2.996-2.996 2.996zM16 10.525c-0.77 0-1.396 0.626-1.396 1.396s0.626 1.396 1.396 1.396c0.77 0 1.396-0.626 1.396-1.396s-0.626-1.396-1.396-1.396z"></path>
</symbol>
<symbol id="icon-thumbdown" viewBox="0 0 32 32">
<title>thumbdown</title>
<path class="path1" d="M28.943 2.635h-16.428v-0.685c0-0.465-0.377-0.842-0.842-0.842h-10.831c-0.465 0-0.842 0.377-0.842 0.842v20.072c0 0.465 0.377 0.842 0.842 0.842h10.831c0.465 0 0.842-0.377 0.842-0.842v-0.605h3.441l3.239 7.373c1.037 2.361 4.179 2.835 5.871 0.903 0.668-0.763 0.975-1.778 0.841-2.784l-0.732-5.492h3.768c1.686 0 3.057-1.371 3.057-3.057v-12.669c0-1.685-1.371-3.057-3.057-3.057zM10.831 21.18h-9.147v-18.388h9.147c0 0.956 0 17.609 0 18.388zM30.316 18.36c0 0.757-0.616 1.373-1.373 1.373h-4.73c-0.509 0-0.902 0.449-0.835 0.953l0.859 6.446c0.070 0.525-0.090 1.054-0.439 1.452-0.882 1.008-2.521 0.76-3.062-0.471l-3.46-7.876c-0.134-0.306-0.437-0.503-0.771-0.503h-3.991v-15.414h16.428c0.757 0 1.373 0.616 1.373 1.373v12.669z"></path>
<path class="path2" d="M8.114 7.315c0 1.025-0.831 1.856-1.856 1.856s-1.856-0.831-1.856-1.856c0-1.025 0.831-1.856 1.856-1.856s1.856 0.831 1.856 1.856z"></path>
</symbol>
<symbol id="icon-thumbup" viewBox="0 0 32 32">
<title>thumbup</title>
<path class="path1" d="M28.943 10.584h-3.768l0.732-5.492c0.281-2.11-1.363-3.985-3.489-3.985-1.396 0-2.661 0.826-3.223 2.104l-3.239 7.373h-3.441v-0.605c0-0.465-0.377-0.842-0.842-0.842h-10.831c-0.465 0-0.842 0.377-0.842 0.842v20.072c0 0.465 0.377 0.842 0.842 0.842h10.831c0.465 0 0.842-0.377 0.842-0.842v-0.685h16.428c1.686 0 3.057-1.371 3.057-3.057v-12.669c0-1.685-1.371-3.057-3.057-3.057zM10.831 29.209h-9.147v-18.388h9.147c0 0.79 0 17.458 0 18.388zM30.316 26.309c0 0.757-0.616 1.373-1.373 1.373h-16.428v-15.414h3.991c0.334 0 0.637-0.198 0.771-0.503l3.46-7.876c0.293-0.667 0.953-1.097 1.681-1.097 1.11 0 1.966 0.979 1.82 2.078l-0.859 6.446c-0.067 0.505 0.326 0.953 0.835 0.953h4.73c0.757 0 1.373 0.616 1.373 1.373v12.669z"></path>
<path class="path2" d="M8.114 24.686c0 1.025-0.831 1.856-1.856 1.856s-1.856-0.831-1.856-1.856c0-1.025 0.831-1.856 1.856-1.856s1.856 0.831 1.856 1.856z"></path>
</symbol>
<symbol id="icon-time" viewBox="0 0 32 32">
<title>time</title>
<path class="path1" d="M16 32c-8.822 0-16-7.178-16-16s7.178-16 16-16c8.822 0 16 7.178 16 16s-7.178 16-16 16zM16 1.684c-7.894 0-14.316 6.422-14.316 14.316s6.422 14.316 14.316 14.316 14.316-6.422 14.316-14.316-6.422-14.316-14.316-14.316z"></path>
<path class="path2" d="M16 16.842h-5.704c-0.465 0-0.842-0.377-0.842-0.842s0.377-0.842 0.842-0.842h4.861v-8.226c0-0.465 0.377-0.842 0.842-0.842s0.842 0.377 0.842 0.842v9.068c0 0.465-0.377 0.842-0.842 0.842z"></path>
</symbol>
<symbol id="icon-trash" viewBox="0 0 32 32">
<title>trash</title>
<path class="path1" d="M26.873 4.096h-6.003v-3.296c0-0.442-0.358-0.8-0.8-0.8h-8.14c-0.442 0-0.8 0.358-0.8 0.8v3.296h-6.003c-1.323 0-2.4 1.077-2.4 2.4v2.496c0 0.442 0.358 0.8 0.8 0.8h1.884v19.808c0 1.323 1.077 2.4 2.4 2.4h16.379c1.323 0 2.4-1.077 2.4-2.4v-19.808h1.884c0.442 0 0.8-0.358 0.8-0.8v-2.496c0-1.323-1.077-2.4-2.4-2.4zM12.73 1.6h6.54v2.496h-6.54v-2.496zM24.99 29.6c0 0.441-0.359 0.8-0.8 0.8h-16.379c-0.441 0-0.8-0.359-0.8-0.8v-19.808h17.979v19.808zM27.673 8.192c-0.858 0-21.321 0-23.347 0v-1.696c0-0.441 0.359-0.8 0.8-0.8 1.121 0 20.65 0 21.747 0 0.441 0 0.8 0.359 0.8 0.8v1.696z"></path>
<path class="path2" d="M16 26.998c0.442 0 0.8-0.358 0.8-0.8v-12.205c0-0.442-0.358-0.8-0.8-0.8s-0.8 0.358-0.8 0.8v12.205c0 0.442 0.358 0.8 0.8 0.8z"></path>
<path class="path3" d="M20.8 26.998c0.442 0 0.8-0.358 0.8-0.8v-12.205c0-0.442-0.358-0.8-0.8-0.8s-0.8 0.358-0.8 0.8v12.205c0 0.442 0.358 0.8 0.8 0.8z"></path>
<path class="path4" d="M11.2 26.998c0.442 0 0.8-0.358 0.8-0.8v-12.205c0-0.442-0.358-0.8-0.8-0.8s-0.8 0.358-0.8 0.8v12.205c0 0.442 0.358 0.8 0.8 0.8z"></path>
</symbol>
<symbol id="icon-twitter" viewBox="0 0 32 32">
<title>twitter</title>
<path class="path1" d="M15.607 10.746c-6.583-0.833-9.396-3.027-12.66-6.334-0.472-0.479-1.294-0.261-1.453 0.392-0.61 2.496-0.482 4.859 1.465 6.942 0.925 1.025 0.717 1.171-0.879 0.561-0.555-0.195-1.040-0.342-1.087-0.268-0.164 0.173 0.181 4.377 4 6.391l1.133 0.561-1.341 0.024c-1.295 0-1.341 0.024-1.202 0.537 0.828 2.838 4.237 3.97 5.757 4.513-1.215 0.76-3.606 2.5-7.445 2.586-1.040 0.024-1.896 0.122-1.896 0.195 0 0.306 9.87 6.357 19.63 0.342 4.978-3.074 9.272-10.112 9.272-16.784 0-1.122 0.069-1.269 1.364-2.61 0.763-0.781 1.48-1.634 1.619-1.878 0.231-0.464 0.208-0.464-0.971-0.049-1.965 0.732-2.243 0.634-1.272-0.464 0.717-0.781 1.572-2.196 1.572-2.61 0-0.073-0.347 0.049-0.74 0.268-0.416 0.244-1.341 0.61-2.035 0.829l-1.249 0.415c-0.748-0.531-2.136-1.574-3.098-1.878-4.596-1.331-8.867 2.476-8.555 7.123-0.116-1.723-0.031-0.529 0.069 1.195z"></path>
</symbol>
<symbol id="icon-unlock" viewBox="0 0 32 32">
<title>unlock</title>
<path class="path1" d="M25.942 15.2h-16.46v-7.082c0-3.594 2.924-6.518 6.518-6.518s6.518 2.924 6.518 6.518c0 0.442 0.358 0.8 0.8 0.8s0.8-0.358 0.8-0.8c0-4.476-3.642-8.118-8.118-8.118s-8.118 3.642-8.118 8.118v7.082h-1.824c-0.442 0-0.8 0.358-0.8 0.8v15.2c0 0.442 0.358 0.8 0.8 0.8h19.884c0.442 0 0.8-0.358 0.8-0.8v-15.2c0-0.442-0.358-0.8-0.8-0.8zM25.142 30.4h-18.284v-13.6c0.805 0 17.489 0 18.284 0v13.6z"></path>
<path class="path2" d="M16 27.149c1.957 0 3.549-1.592 3.549-3.549s-1.592-3.549-3.549-3.549c-1.957 0-3.549 1.592-3.549 3.549s1.592 3.549 3.549 3.549zM16 21.651c1.075 0 1.949 0.874 1.949 1.949s-0.874 1.949-1.949 1.949c-1.075 0-1.949-0.874-1.949-1.949s0.874-1.949 1.949-1.949z"></path>
</symbol>
<symbol id="icon-up" viewBox="0 0 32 32">
<title>up</title>
<path class="path1" d="M24.148 10.157l-7.44-9.806c-0.356-0.469-1.063-0.466-1.416 0l-7.44 9.806c-0.297 0.391-0.22 0.949 0.171 1.245s0.949 0.22 1.245-0.171l5.843-7.701v27.581c0 0.491 0.398 0.889 0.889 0.889s0.889-0.398 0.889-0.889v-27.581l5.843 7.701c0.297 0.391 0.855 0.467 1.245 0.171s0.467-0.854 0.171-1.245z"></path>
</symbol>
<symbol id="icon-upload" viewBox="0 0 32 32">
<title>upload</title>
<path class="path1" d="M16 32c-8.822 0-16-7.178-16-16s7.178-16 16-16 16 7.178 16 16-7.178 16-16 16zM16 1.684c-7.894 0-14.316 6.422-14.316 14.316s6.422 14.316 14.316 14.316 14.316-6.422 14.316-14.316-6.422-14.316-14.316-14.316z"></path>
<path class="path2" d="M18.527 24.583h-5.053c-0.929 0-1.684-0.756-1.684-1.684v-6.664h-1.274c-1.5 0-2.252-1.821-1.187-2.879l5.484-5.448c0.655-0.65 1.72-0.65 2.374-0l5.485 5.449c1.064 1.057 0.314 2.879-1.187 2.879h-1.274v6.664c0 0.928-0.755 1.684-1.684 1.684zM10.516 14.55l2.116 0.001c0.465 0 0.842 0.377 0.842 0.842v7.506h5.053v-7.506c0-0.465 0.377-0.842 0.842-0.842h2.115l-5.484-5.448-5.484 5.448z"></path>
</symbol>
<symbol id="icon-url" viewBox="0 0 32 32">
<title>url</title>
<path class="path1" d="M30.225 1.775c-2.361-2.361-6.203-2.361-8.565 0l-4.9 4.9c-2.148 2.148-2.341 5.521-0.582 7.89l-1.613 1.613c-2.369-1.759-5.742-1.566-7.89 0.582l-4.9 4.9c-2.367 2.367-2.367 6.198 0 8.565h0c2.361 2.361 6.203 2.361 8.565 0l4.9-4.9c2.148-2.148 2.341-5.52 0.582-7.89l1.613-1.613c2.373 1.762 5.744 1.563 7.89-0.582l4.9-4.9c2.367-2.367 2.367-6.198-0-8.565zM13.983 24.068l-4.9 4.9c-1.668 1.668-4.383 1.668-6.051 0-1.672-1.672-1.672-4.379 0-6.051l4.9-4.9c1.453-1.453 3.699-1.64 5.356-0.562l-2.532 2.532c-0.347 0.347-0.347 0.91 0 1.257s0.91 0.347 1.257 0l2.532-2.532c1.077 1.658 0.89 3.904-0.562 5.356zM28.968 9.083l-4.9 4.9c-1.453 1.453-3.699 1.64-5.356 0.562l2.532-2.532c0.347-0.347 0.347-0.91 0-1.257s-0.91-0.347-1.257 0l-2.532 2.532c-1.077-1.658-0.89-3.904 0.562-5.356l4.9-4.9c1.668-1.668 4.383-1.668 6.051 0 1.672 1.672 1.672 4.379 0 6.051z"></path>
</symbol>
<symbol id="icon-user" viewBox="0 0 32 32">
<title>user</title>
<path class="path1" d="M16 15.477c-4.267 0-7.739-3.472-7.739-7.739s3.472-7.739 7.739-7.739 7.739 3.472 7.739 7.739-3.472 7.739-7.739 7.739zM16 1.6c-3.385 0-6.139 2.754-6.139 6.139s2.754 6.139 6.139 6.139 6.139-2.754 6.139-6.139c0-3.385-2.754-6.139-6.139-6.139z"></path>
<path class="path2" d="M26.174 32h-20.349c-0.442 0-0.8-0.358-0.8-0.8v-3.251c0-6.051 4.923-10.974 10.974-10.974s10.974 4.923 10.974 10.974v3.251c0 0.442-0.358 0.8-0.8 0.8zM6.626 30.4h18.749v-2.451c0-5.169-4.205-9.374-9.374-9.374s-9.374 4.205-9.374 9.374v2.451z"></path>
</symbol>
<symbol id="icon-visa" viewBox="0 0 32 32">
<title>visa</title>
<path class="path1" d="M20.692 11.281c0.643 0 1.225 0.121 1.703 0.257 0.302 0.085 0.487 0.388 0.42 0.695l-0.162 0.742c-0.061 0.279-0.308 0.462-0.578 0.462-0.059 0-0.12-0.009-0.18-0.027-1.75-0.543-2.776 0.018-2.776 0.594-0.061 1.089 3.328 1.271 3.328 3.57 0 1.936-1.634 3.146-4.114 3.146-0.806 0-1.58-0.133-2.148-0.3-0.295-0.087-0.471-0.387-0.408-0.688l0.161-0.761c0.076-0.357 0.453-0.558 0.792-0.426 0.442 0.172 0.998 0.299 1.783 0.299 1.412 0 2.284-1.104 0.242-2.057-0.847-0.424-2.057-1.15-2.057-2.481 0-1.755 1.634-3.025 3.993-3.025zM11.696 11.402c0.422 0 0.707 0.43 0.544 0.819l-3.376 8.017c-0.092 0.219-0.306 0.361-0.544 0.361h-1.692c-0.269 0-0.505-0.183-0.571-0.444l-1.762-6.877c-0.121-0.424-0.182-0.605-0.545-0.787-0.605-0.302-1.513-0.605-2.36-0.787l0.060-0.242h4.054c0.484 0 0.968 0.303 1.089 0.908l1.029 5.324 2.357-5.921c0.089-0.224 0.306-0.372 0.548-0.372h1.168zM28.436 11.462c0.282 0 0.524 0.199 0.579 0.476l1.582 8.017c0.072 0.365-0.207 0.704-0.579 0.704h-0.985c-0.277 0-0.517-0.193-0.576-0.465l-0.202-0.927h-3.025l-0.346 0.995c-0.082 0.237-0.306 0.396-0.557 0.396h-1.175c-0.421 0-0.707-0.429-0.544-0.818l3.228-7.713c0.181-0.424 0.545-0.665 1.029-0.665h1.572zM26.355 17.392h1.367c0.15 0 0.262-0.138 0.231-0.285l-0.497-2.362c-0.049-0.232-0.37-0.255-0.452-0.033l-0.87 2.362c-0.057 0.154 0.057 0.318 0.221 0.318zM15.246 11.462c0.375 0 0.654 0.345 0.577 0.711l-1.688 8.017c-0.057 0.273-0.298 0.468-0.577 0.468h-1.21c-0.376 0-0.656-0.347-0.576-0.715l1.74-8.017c0.059-0.271 0.299-0.465 0.576-0.465h1.157zM20.692 9.889c-1.495 0-2.794 0.427-3.742 1.153-0.049-0.083-0.105-0.162-0.166-0.238-0.378-0.466-0.939-0.733-1.538-0.733h-1.157c-0.424 0-0.825 0.138-1.153 0.374-0.347-0.278-0.781-0.435-1.239-0.435h-1.168c-0.816 0-1.539 0.49-1.841 1.248l-0.599 1.506-0.127-0.659c-0.001-0.003-0.001-0.006-0.002-0.009-0.239-1.193-1.247-2.026-2.453-2.026h-4.054c-0.638 0-1.195 0.435-1.35 1.054l-0.060 0.242c-0.191 0.763 0.289 1.533 1.058 1.698 0.652 0.14 1.356 0.364 1.856 0.589l1.754 6.847c0.225 0.877 1.014 1.489 1.919 1.489h1.692c0.799 0 1.516-0.476 1.826-1.212l0.227-0.539c0.033 0.388 0.181 0.762 0.432 1.074 0.378 0.469 0.94 0.738 1.542 0.738h1.21c0.592 0 1.136-0.267 1.504-0.695 0.207 0.179 0.453 0.318 0.73 0.399 0.781 0.23 1.683 0.356 2.54 0.356 1.265 0 2.39-0.267 3.293-0.778 0.374 0.453 0.931 0.718 1.526 0.718h1.175c0.842 0 1.594-0.535 1.871-1.33l0.021-0.061h0.923c0.256 0.816 1.025 1.392 1.891 1.392h0.985c1.249 0 2.185-1.142 1.944-2.365l-1.582-8.017c-0.183-0.926-1-1.598-1.944-1.598h-1.572c-1.040 0-1.902 0.564-2.307 1.509-0.002 0.004-0.003 0.007-0.005 0.011l-0.363 0.867c0.18-0.997-0.43-1.98-1.415-2.259-0.736-0.208-1.417-0.309-2.082-0.309v0zM23.411 14.317l-0.417 0.997c-0.164-0.189-0.345-0.362-0.54-0.521 0.070 0 0.556-0.112 0.957-0.476zM16.2 17.138l0.087-0.412c0.125 0.136 0.263 0.267 0.415 0.395-0.165-0.015-0.333-0.011-0.501 0.017v0z"></path>
</symbol>
<symbol id="icon-warning" viewBox="0 0 32 32">
<title>warning</title>
<path class="path1" d="M17.55 23.414c0 0.82-0.7 1.54-1.52 1.54-0.88 0-1.54-0.72-1.54-1.54 0-0.84 0.66-1.54 1.54-1.54 0.82 0 1.52 0.7 1.52 1.54zM17.17 19.614c0 0.62-0.68 0.88-1.16 0.88-0.64 0-1.18-0.26-1.18-0.88 0-2.38-0.28-5.799-0.28-8.179 0-0.78 0.64-1.22 1.46-1.22 0.78 0 1.44 0.44 1.44 1.22 0 2.38-0.28 5.799-0.28 8.179z"></path>
<path class="path2" d="M27.523 30.45h-23.047c-3.441 0-5.592-3.723-3.871-6.704l11.523-19.959c1.721-2.981 6.020-2.981 7.741 0v0l11.523 19.959c1.721 2.98-0.428 6.704-3.871 6.704zM13.515 4.586l-11.523 19.959c-1.105 1.913 0.275 4.304 2.485 4.304h23.047c2.21 0 3.59-2.39 2.485-4.304l-11.523-19.959c-1.104-1.913-3.865-1.915-4.97 0z"></path>
</symbol>
<symbol id="icon-youtube" viewBox="0 0 32 32">
<title>youtube</title>
<path class="path1" d="M4.575 26.966c-1.944-0.217-3.55-1.673-3.998-3.622-0.771-3.355-0.768-11.316 0.006-14.687 0.449-1.95 2.056-3.406 3.999-3.622 5.34-0.597 17.515-0.597 22.855 0 1.944 0.216 3.551 1.672 3.999 3.622 0.756 3.287 0.752 11.385-0.006 14.687-0.449 1.95-2.056 3.405-3.999 3.622-5.341 0.597-17.515 0.597-22.856 0zM4.768 6.708c-1.233 0.137-2.255 1.072-2.544 2.326-0.719 3.132-0.722 10.815-0.006 13.932 0.288 1.253 1.31 2.188 2.544 2.326 5.147 0.575 17.333 0.575 22.481 0 1.233-0.138 2.256-1.073 2.545-2.326 0.704-3.067 0.708-10.879 0.006-13.932v-0c-0.288-1.253-1.31-2.188-2.544-2.325-5.148-0.575-17.333-0.575-22.482-0zM12.215 18.687v-5.374c0-1.604 1.735-2.606 3.125-1.804l4.654 2.687c1.389 0.802 1.39 2.806 0 3.608l-4.654 2.687c-1.389 0.802-3.125-0.199-3.125-1.804zM13.899 13.313v5.374c0 0.307 0.33 0.5 0.598 0.345l4.654-2.687c0.266-0.154 0.268-0.537-0-0.691l-4.654-2.687c-0.269-0.156-0.598 0.041-0.598 0.345z"></path>
</symbol>
<symbol id="icon-zoomin" viewBox="0 0 32 32">
<title>zoomin</title>
<path class="path1" d="M31.716 30.344l-10.843-10.843c3.949-4.649 3.73-11.65-0.658-16.037-4.618-4.618-12.133-4.618-16.751 0s-4.618 12.133 0 16.751l0 0c4.386 4.386 11.386 4.608 16.037 0.658l10.843 10.843c0.379 0.379 0.993 0.379 1.372 0s0.379-0.993 0-1.372zM4.835 18.843c-3.862-3.862-3.862-10.146 0-14.008s10.146-3.862 14.008 0 3.862 10.146 0 14.008c-3.862 3.862-10.146 3.862-14.008 0z"></path>
<path class="path2" d="M15.997 10.869h-3.188v-3.188c0-0.536-0.434-0.97-0.97-0.97s-0.97 0.434-0.97 0.97v3.188h-3.188c-0.536 0-0.97 0.434-0.97 0.97s0.434 0.97 0.97 0.97h3.188v3.188c0 0.536 0.434 0.97 0.97 0.97s0.97-0.434 0.97-0.97v-3.188h3.188c0.536 0 0.97-0.434 0.97-0.97s-0.434-0.97-0.97-0.97z"></path>
</symbol>
<symbol id="icon-zoomout" viewBox="0 0 32 32">
<title>zoomout</title>
<path class="path1" d="M31.716 30.344l-10.843-10.843c3.949-4.649 3.73-11.65-0.658-16.037-4.618-4.618-12.133-4.618-16.751 0s-4.618 12.133 0 16.751l0 0c4.386 4.386 11.386 4.608 16.037 0.658l10.843 10.843c0.379 0.379 0.993 0.379 1.372 0s0.379-0.993 0-1.372zM4.835 18.843c-3.862-3.862-3.862-10.146 0-14.008s10.146-3.862 14.008 0c3.862 3.862 3.862 10.146 0 14.008s-10.146 3.862-14.008 0z"></path>
<path class="path2" d="M15.997 10.869h-8.315c-0.536 0-0.97 0.434-0.97 0.97s0.434 0.97 0.97 0.97h8.315c0.536 0 0.97-0.434 0.97-0.97s-0.434-0.97-0.97-0.97z"></path>
</symbol>
<symbol id="icon-link" viewBox="0 0 32 32">
<title>link</title>
<path class="path1" d="M29.789 2.213c-2.95-2.95-7.751-2.949-10.702 0l-5.351 5.351c-0.455 0.455-0.455 1.192 0 1.646s1.192 0.455 1.646 0l5.351-5.351c0.984-0.984 2.3-1.526 3.704-1.526s2.72 0.543 3.705 1.527 1.527 2.3 1.527 3.705c0 1.404-0.543 2.72-1.527 3.704l-6.997 6.998c-2.043 2.042-5.367 2.042-7.41 0-0.455-0.455-1.192-0.455-1.646 0s-0.455 1.192 0 1.646c1.475 1.475 3.413 2.213 5.351 2.213s3.876-0.738 5.351-2.213l6.998-6.998c1.424-1.424 2.209-3.325 2.209-5.351s-0.785-3.927-2.209-5.351z"></path>
<path class="path2" d="M15.794 23.617l-4.528 4.528c-0.984 0.984-2.3 1.527-3.705 1.527s-2.72-0.543-3.705-1.527c-2.043-2.043-2.043-5.367 0-7.409l6.586-6.586c0.984-0.984 2.3-1.526 3.705-1.526s2.72 0.543 3.704 1.526c0.455 0.455 1.192 0.455 1.646 0s0.455-1.192 0-1.646c-2.95-2.95-7.75-2.95-10.702 0l-6.586 6.587c-1.424 1.424-2.209 3.325-2.209 5.351s0.785 3.926 2.209 5.35c1.424 1.424 3.325 2.209 5.35 2.209s3.927-0.785 5.351-2.209l4.528-4.528c0.455-0.455 0.455-1.192 0-1.646s-1.191-0.455-1.646 0z"></path>
</symbol>
<symbol id="icon-send" viewBox="0 0 20 20">
<title>send</title>
<path class="path1" d="M0 9.177l6.824 4 4 6.824 9.177-20-20 9.176zM10.757 18.678l-3.327-5.676 2.035-2.035-0.432-0.432-2.035 2.035-5.676-3.327 16.636-7.633-6.503 6.503 0.432 0.432 6.503-6.503-7.633 16.636z"></path>
<path class="path2" d="M9.905 10.527l-0.432-0.432 1.321-1.321 0.432 0.432-1.321 1.321z"></path>
</symbol>
</defs>
</svg>
