<svg style="position: absolute; width: 0; height: 0; overflow: hidden;" version="1.1" xmlns="http://www.w3.org/2000/svg" xmlns:xlink="http://www.w3.org/1999/xlink">
<defs>
<symbol id="icon-american-express" viewBox="0 0 32 32">
<title>american-express</title>
<path class="path1" fill="#c7e9f4" d="M14.788 12.325l-1.767 4.77c-0.044 0.12-0.213 0.12-0.258 0l-1.767-4.77c-0.1-0.27-0.357-0.449-0.645-0.449h-1.721c-0.38 0-0.687 0.308-0.687 0.687v6.377c0 0.153-0.213 0.192-0.266 0.048l-2.454-6.662c-0.1-0.27-0.357-0.45-0.645-0.45h-1.312c-0.286 0-0.543 0.178-0.643 0.446l-2.577 6.873c-0.168 0.449 0.164 0.929 0.643 0.929h0.369c0.296 0 0.558-0.189 0.652-0.47l0.462-1.386h3.505l0.462 1.386c0.094 0.281 0.356 0.47 0.652 0.47h2.322c0.38 0 0.687-0.308 0.687-0.687v-4.724c0-0.154 0.214-0.192 0.267-0.047l1.836 5.008c0.099 0.271 0.357 0.451 0.645 0.451h0.695c0.286 0 0.541-0.177 0.643-0.444l1.834-4.835c0.054-0.143 0.266-0.104 0.266 0.049v4.542c0 0.38 0.308 0.687 0.687 0.687h0.275c0.38 0 0.687-0.308 0.687-0.687v-6.873c0-0.38-0.308-0.687-0.687-0.687h-1.515c-0.287 0-0.545 0.179-0.645 0.449zM2.855 16.229l0.836-2.341c0.043-0.122 0.215-0.122 0.259 0l0.836 2.341c0.032 0.090-0.034 0.184-0.129 0.184h-1.672c-0.095 0-0.161-0.094-0.129-0.184z"></path>
<path class="path2" fill="#80d0e1" d="M16.947 11.876h-0.783v8.022c0.126 0.139 0.307 0.226 0.508 0.226h0.275c0.38 0 0.687-0.308 0.687-0.687v-6.873c0-0.38-0.308-0.687-0.687-0.687z"></path>
<path class="path3" fill="#80d0e1" d="M29.655 15.918l2.206-2.942c0.34-0.453 0.017-1.1-0.55-1.1h-0.572c-0.204 0-0.397 0.091-0.528 0.247l-1.856 2.227-1.445-2.168c-0.127-0.191-0.342-0.306-0.572-0.306h-5.749c-0.38 0-0.687 0.308-0.687 0.687v6.873c0 0.38 0.308 0.687 0.687 0.687h5.572c0.213 0 0.415-0.099 0.545-0.268l1.856-2.412 1.856 2.412c0.13 0.169 0.331 0.268 0.545 0.268h0.349c0.566 0 0.89-0.647 0.55-1.1l-2.206-2.942c-0.037-0.049-0.037-0.116 0-0.165zM25.401 18.474h-3.711c-0.076 0-0.137-0.062-0.137-0.137v-1.375c0-0.076 0.062-0.137 0.137-0.137h2.887c0.38 0 0.687-0.308 0.687-0.687v-0.275c0-0.38-0.308-0.687-0.687-0.687h-2.887c-0.076 0-0.137-0.062-0.137-0.137v-1.168c0-0.076 0.062-0.137 0.137-0.137h3.916c0.044 0 0.085 0.021 0.111 0.057l1.549 2.129c0.035 0.049 0.035 0.115-0.001 0.163l-1.754 2.338c-0.026 0.035-0.067 0.055-0.11 0.055z"></path>
</symbol>
<symbol id="icon-behance" viewBox="0 0 32 32">
<title>behance</title>
<path class="path1" fill="#c7e9f4" d="M9.276 5.938c2.362 0 4.812 0.459 5.837 2.562 0.581 1.191 0.707 3.415-0.225 4.797-0.45 0.66-1.118 1.203-2.010 1.622 1.211 0.349 2.111 0.963 2.701 1.832 1.153 1.691 1.125 4.206 0.318 5.736-1.205 2.266-3.825 3.144-6.365 3.144h-8.816c-0.395 0-0.716-0.321-0.716-0.716v-18.261c0-0.395 0.321-0.716 0.716-0.716h8.56zM8.717 13.887c1.536 0 2.647-0.666 2.647-2.344 0-1.722-1.267-2.267-2.981-2.267h-3.336c-0.395 0-0.716 0.321-0.716 0.716v3.171c0 0.395 0.321 0.716 0.716 0.716h3.67v0.008zM8.958 22.27c1.857 0 3.163-0.667 3.205-2.509 0.036-1.605-1.297-2.909-2.903-2.909h-4.205c-0.395 0-0.716 0.321-0.716 0.716v3.986c0 0.395 0.321 0.716 0.716 0.716h3.902z"></path>
<path class="path2" fill="#80d0e1" d="M16 17.524v4.748c0.597-1.311 0.668-3.214 0-4.748z"></path>
<path class="path3" fill="#80d0e1" d="M28.725 21.199h1.941c0.528 0 0.878 0.554 0.645 1.028-3.083 6.284-13.551 4.707-13.551-3.722 0-4.407 3.084-7.545 7.304-7.545 4.718 0 7.226 3.924 6.908 8.469h-10.285c0 4.696 5.267 4.221 6.433 2.138 0.124-0.222 0.35-0.368 0.604-0.368zM22.544 16.968h4.649c0.477 0 0.827-0.46 0.688-0.916-0.943-3.099-5.077-2.702-6.016-0.029-0.162 0.462 0.19 0.945 0.679 0.945z"></path>
<path class="path4" fill="#80d0e1" d="M21.605 7.258h6.548c0.395 0 0.716 0.321 0.716 0.716v0.508c0 0.395-0.321 0.716-0.716 0.716h-6.548c-0.395 0-0.716-0.321-0.716-0.716v-0.508c0-0.395 0.321-0.716 0.716-0.716z"></path>
</symbol>
<symbol id="icon-calendar" viewBox="0 0 32 32">
<title>calendar</title>
<path class="path1" fill="#c7e9f4" d="M29.368 29.878h-26.737c-1.451 0-2.632-1.181-2.632-2.632v-14.778c0-0.442 0.358-0.8 0.8-0.8h30.4c0.442 0 0.8 0.358 0.8 0.8v14.778c0 1.451-1.181 2.632-2.632 2.632z"></path>
<path class="path2" fill="#80d0e1" d="M31.2 11.668h-15.2v18.21h13.368c1.451 0 2.632-1.181 2.632-2.632v-14.778c0-0.442-0.358-0.8-0.8-0.8z"></path>
<path class="path3" fill="#80d0e1" d="M8.627 18.573c0 0.898-0.728 1.626-1.626 1.626s-1.626-0.728-1.626-1.626c0-0.898 0.728-1.626 1.626-1.626s1.626 0.728 1.626 1.626z"></path>
<path class="path4" fill="#80d0e1" d="M14.626 18.573c0 0.898-0.728 1.626-1.626 1.626s-1.626-0.728-1.626-1.626c0-0.898 0.728-1.626 1.626-1.626s1.626 0.728 1.626 1.626z"></path>
<path class="path5" fill="#80d0e1" d="M8.627 24.573c0 0.898-0.728 1.626-1.626 1.626s-1.626-0.728-1.626-1.626c0-0.898 0.728-1.626 1.626-1.626s1.626 0.728 1.626 1.626z"></path>
<path class="path6" fill="#80d0e1" d="M14.626 24.573c0 0.898-0.728 1.626-1.626 1.626s-1.626-0.728-1.626-1.626c0-0.898 0.728-1.626 1.626-1.626s1.626 0.728 1.626 1.626z"></path>
<path class="path7" fill="#80d0e1" d="M32 13.268h-32v-5.894c0-1.453 1.178-2.632 2.632-2.632h26.737c1.453 0 2.632 1.178 2.632 2.632v5.894z"></path>
<path class="path8" fill="#c7e9f4" d="M8.69 8.92c-0.442 0-0.8-0.358-0.8-0.8v-5.198c0-0.442 0.358-0.8 0.8-0.8s0.8 0.358 0.8 0.8v5.198c0 0.442-0.358 0.8-0.8 0.8z"></path>
<path class="path9" fill="#51b3da" d="M20.626 18.573c0 0.898-0.728 1.626-1.626 1.626s-1.626-0.728-1.626-1.626c0-0.898 0.728-1.626 1.626-1.626s1.626 0.728 1.626 1.626z"></path>
<path class="path10" fill="#51b3da" d="M26.625 18.573c0 0.898-0.728 1.626-1.626 1.626s-1.626-0.728-1.626-1.626c0-0.898 0.728-1.626 1.626-1.626s1.626 0.728 1.626 1.626z"></path>
<path class="path11" fill="#51b3da" d="M20.626 24.573c0 0.898-0.728 1.626-1.626 1.626s-1.626-0.728-1.626-1.626c0-0.898 0.728-1.626 1.626-1.626s1.626 0.728 1.626 1.626z"></path>
<path class="path12" fill="#51b3da" d="M26.625 24.573c0 0.898-0.728 1.626-1.626 1.626s-1.626-0.728-1.626-1.626c0-0.898 0.728-1.626 1.626-1.626s1.626 0.728 1.626 1.626z"></path>
<path class="path13" fill="#51b3da" d="M32 7.374c0-1.453-1.178-2.632-2.632-2.632h-13.368v8.525h16v-5.894z"></path>
<path class="path14" fill="#80d0e1" d="M23.31 8.92c-0.442 0-0.8-0.358-0.8-0.8v-5.198c0-0.442 0.358-0.8 0.8-0.8s0.8 0.358 0.8 0.8v5.198c0 0.442-0.358 0.8-0.8 0.8z"></path>
</symbol>
<symbol id="icon-check" viewBox="0 0 32 32">
<title>check</title>
<path class="path1" fill="#c7e9f4" d="M26.28 3.563c0.583-0.583 1.531-0.583 2.113 0l3.17 3.17c0.583 0.583 0.583 1.531 0 2.113l-19.59 19.59c-0.583 0.583-1.531 0.583-2.113 0l-9.422-9.422c-0.584-0.584-0.584-1.529 0-2.113l3.17-3.17c0.583-0.583 1.531-0.583 2.113-0l5.195 5.195 15.363-15.363z"></path>
<path class="path2" fill="#80d0e1" d="M31.563 6.733l-3.17-3.17c-0.583-0.583-1.531-0.583-2.113 0l-10.279 10.279v10.567l15.563-15.563c0.583-0.583 0.583-1.531 0-2.113z"></path>
</symbol>
<symbol id="icon-cloud" viewBox="0 0 32 32">
<title>cloud</title>
<path class="path1" fill="#c7e9f4" d="M26.032 26.047h-20.063c-3.291 0-5.968-2.677-5.968-5.968 0-2.814 1.972-5.227 4.67-5.825 0.698-7.598 9.881-11.003 15.384-5.813 3.466-0.108 6.345 2.437 6.803 5.727 2.898 0.4 5.143 2.886 5.143 5.911 0 3.291-2.677 5.968-5.968 5.968z"></path>
<path class="path2" fill="#80d0e1" d="M26.857 14.168c-0.458-3.291-3.338-5.835-6.803-5.727-1.155-1.089-2.545-1.845-4.054-2.219v19.825h10.032c3.291 0 5.968-2.677 5.968-5.968-0-3.025-2.244-5.511-5.143-5.911z"></path>
</symbol>
<symbol id="icon-comment" viewBox="0 0 32 32">
<title>comment</title>
<path class="path1" fill="#c7e9f4" d="M6.104 27.574v-4.589h-1.648c-2.457 0-4.456-1.999-4.456-4.456v-10.409c0-2.457 1.999-4.456 4.456-4.456h23.088c2.457 0 4.456 1.999 4.456 4.456v10.409c0 2.457-1.999 4.456-4.456 4.456h-11.337l-8.956 5.247c-0.504 0.295-1.147-0.066-1.147-0.657z"></path>
<path class="path2" fill="#80d0e1" d="M27.544 3.663h-11.544v19.442l0.207-0.121h11.337c2.457 0 4.456-1.999 4.456-4.456v-10.409c0-2.457-1.999-4.456-4.456-4.456z"></path>
<path class="path3" fill="#80d0e1" d="M17.353 13.324c0 0.747-0.606 1.353-1.353 1.353s-1.353-0.606-1.353-1.353c0-0.747 0.606-1.353 1.353-1.353s1.353 0.606 1.353 1.353z"></path>
<path class="path4" fill="#80d0e1" d="M10.937 13.324c0 0.747-0.606 1.353-1.353 1.353s-1.353-0.606-1.353-1.353c0-0.747 0.606-1.353 1.353-1.353s1.353 0.606 1.353 1.353z"></path>
<path class="path5" fill="#51b3da" d="M16 11.971v2.705c0.747 0 1.353-0.606 1.353-1.353s-0.606-1.353-1.353-1.353z"></path>
<path class="path6" fill="#51b3da" d="M23.769 13.324c0 0.747-0.606 1.353-1.353 1.353s-1.353-0.606-1.353-1.353c0-0.747 0.606-1.353 1.353-1.353s1.353 0.606 1.353 1.353z"></path>
</symbol>
<symbol id="icon-cross" viewBox="0 0 32 32">
<title>cross</title>
<path class="path1" fill="#c7e9f4" d="M25.347 31.491l-9.347-9.347-9.347 9.347c-0.679 0.679-1.778 0.679-2.458 0l-3.686-3.686c-0.679-0.679-0.679-1.778 0-2.458l9.347-9.347-9.347-9.347c-0.679-0.679-0.679-1.778 0-2.458l3.686-3.686c0.679-0.679 1.778-0.679 2.458 0l9.347 9.347 9.347-9.347c0.679-0.679 1.778-0.679 2.458 0l3.686 3.686c0.679 0.679 0.679 1.778 0 2.458l-9.347 9.347 9.347 9.347c0.679 0.679 0.679 1.778 0 2.458l-3.686 3.686c-0.679 0.679-1.778 0.679-2.458 0z"></path>
<path class="path2" fill="#80d0e1" d="M22.144 16l9.347-9.347c0.679-0.679 0.679-1.778 0-2.458l-3.686-3.686c-0.679-0.679-1.778-0.679-2.458-0l-9.347 9.347v12.288l9.347 9.347c0.679 0.679 1.778 0.679 2.458 0l3.686-3.686c0.679-0.679 0.679-1.778 0-2.458l-9.347-9.347z"></path>
</symbol>
<symbol id="icon-disabled" viewBox="0 0 32 32">
<title>disabled</title>
<path class="path1" fill="#c7e9f4" d="M16 0c-8.822 0-16 7.178-16 16s7.178 16 16 16 16-7.178 16-16c0-8.822-7.178-16-16-16zM22.433 25.731c-1.912 1.268-4.136 1.938-6.433 1.938-9.3 0-14.84-10.397-9.731-18.102 0.295-0.445 0.923-0.505 1.297-0.13l14.997 14.997c0.376 0.376 0.313 1.003-0.13 1.297zM25.731 22.433c-0.294 0.443-0.921 0.507-1.297 0.13l-14.997-14.997c-0.376-0.376-0.313-1.003 0.13-1.297 1.912-1.268 4.136-1.938 6.433-1.938 9.3 0 14.84 10.397 9.731 18.102z"></path>
<path class="path2" fill="#80d0e1" d="M16 0c-0 0-0 0-0 0v4.331c0 0 0 0 0 0 9.3 0 14.84 10.397 9.731 18.102-0.294 0.443-0.921 0.507-1.297 0.13l-8.434-8.434v3.743l6.563 6.563c0.376 0.376 0.313 1.004-0.13 1.297-1.912 1.268-4.136 1.938-6.433 1.938-0 0-0 0-0 0v4.331c0 0 0 0 0 0 8.822 0 16-7.178 16-16s-7.178-16-16-16z"></path>
</symbol>
<symbol id="icon-down" viewBox="0 0 32 32">
<title>down</title>
<path class="path1" fill="#c7e9f4" d="M20.744 1.872v15.115h3.338c1.522 0 2.409 1.725 1.521 2.963v0l-8.082 11.27c-0.351 0.489-0.919 0.781-1.521 0.781s-1.17-0.292-1.521-0.781l-8.082-11.27c-0.887-1.237-0.002-2.963 1.521-2.963h3.338v-15.115c0-1.032 0.84-1.872 1.872-1.872h5.745c1.032 0 1.872 0.84 1.872 1.872z"></path>
<path class="path2" fill="#80d0e1" d="M25.603 19.949l-8.082 11.27c-0.351 0.489-0.919 0.781-1.521 0.781-0 0-0 0-0 0v-32h2.873c1.032 0 1.872 0.84 1.872 1.872v15.115h3.338c1.522 0 2.409 1.725 1.521 2.963z"></path>
</symbol>
<symbol id="icon-download" viewBox="0 0 32 32">
<title>download</title>
<path class="path1" fill="#c7e9f4" d="M16 32c-8.822 0-16-7.178-16-16s7.178-16 16-16 16 7.178 16 16-7.178 16-16 16z"></path>
<path class="path2" fill="#80d0e1" d="M16 0v32c8.822 0 16-7.178 16-16s-7.178-16-16-16z"></path>
<path class="path3" fill="#80d0e1" d="M16 24.581c-0.43 0-0.86-0.163-1.187-0.488l-5.485-5.448c-1.064-1.057-0.314-2.879 1.187-2.879h1.274v-6.664c0-0.929 0.756-1.684 1.684-1.684h5.053c0.929 0 1.684 0.756 1.684 1.684v6.664h1.274c1.5 0 2.252 1.821 1.187 2.879l-5.484 5.448c-0.327 0.325-0.757 0.488-1.187 0.488z"></path>
<path class="path4" fill="#51b3da" d="M21.484 15.766h-1.274v-6.664c0-0.929-0.756-1.684-1.684-1.684h-2.526v17.163c0.43 0 0.86-0.163 1.187-0.488l5.484-5.448c1.065-1.058 0.314-2.879-1.187-2.879z"></path>
</symbol>
<symbol id="icon-dribbble" viewBox="0 0 32 32">
<title>dribbble</title>
<path class="path1" fill="#c7e9f4" d="M16 31.979c-8.822 0-16-7.168-16-15.979s7.178-15.979 16-15.979c8.822 0 16 7.168 16 15.979s-7.178 15.979-16 15.979v0zM29.494 18.187c-0.468-0.147-4.23-1.268-8.513-0.583 1.787 4.905 2.515 8.901 2.655 9.731 3.066-2.070 5.249-5.35 5.858-9.148v0zM21.338 28.584c-0.203-1.197-0.997-5.371-2.915-10.35-0.030 0.010-0.060 0.020-0.090 0.030-7.708 2.682-10.475 8.021-10.721 8.523 4.064 3.165 9.351 3.658 13.727 1.797v0zM5.847 25.146c2.211-3.779 6.699-7.779 11.647-9.169-0.343-0.775-0.717-1.552-1.108-2.316-6.825 2.040-13.448 1.955-14.045 1.942-0.109 3.563 1.166 6.949 3.506 9.543v0zM15.257 11.563c-2.264-4.020-4.707-7.4-5.067-7.893-3.823 1.801-6.681 5.321-7.568 9.556 3.978 0 8.562-0.583 12.634-1.663zM12.797 2.752c0.378 0.505 2.86 3.881 5.099 7.99 4.86-1.819 6.917-4.581 7.163-4.93-3.384-2.998-7.957-4.096-12.262-3.060v0zM26.579 7.39c-0.288 0.389-2.578 3.321-7.631 5.381 0.474 0.97 0.826 1.767 1.201 2.681 4.547-0.571 9.066 0.344 9.516 0.439-0.030-3.221-1.183-6.179-3.086-8.502v0z"></path>
<path class="path2" fill="#80d0e1" d="M16 0.021v0 2.351c3.279-0.001 6.508 1.179 9.059 3.44-0.246 0.35-2.303 3.111-7.163 4.93-0.631-1.157-1.28-2.255-1.897-3.248v6.281c0.129-0.037 0.257-0.075 0.386-0.113 0.391 0.765 0.765 1.541 1.108 2.316-0.504 0.141-1.002 0.311-1.494 0.504v2.741c0.723-0.344 1.497-0.667 2.333-0.958 0.030-0.010 0.060-0.020 0.090-0.030 1.919 4.979 2.712 9.153 2.915 10.35-1.685 0.717-3.505 1.083-5.338 1.083v2.311c8.822 0 16-7.168 16-15.979s-7.178-15.979-16-15.979zM18.947 12.771c5.053-2.060 7.343-4.992 7.631-5.381 1.903 2.322 3.056 5.28 3.086 8.502-0.451-0.095-4.969-1.010-9.516-0.439-0.375-0.914-0.727-1.712-1.201-2.681zM23.636 27.335c-0.14-0.83-0.867-4.826-2.655-9.731 4.283-0.685 8.045 0.436 8.513 0.583-0.609 3.798-2.792 7.077-5.858 9.148z"></path>
</symbol>
<symbol id="icon-envelope" viewBox="0 0 32 32">
<title>envelope</title>
<path class="path1" fill="#238cc5" d="M29.996 27.010l-11.065-10.457c-0.318-0.301-0.318-0.807 0-1.107l11.065-10.457c0.297-0.281 0.762-0.277 1.055 0.008 0.612 0.597 0.949 1.396 0.949 2.252v17.5c0 0.855-0.337 1.655-0.949 2.252-0.292 0.285-0.758 0.289-1.055 0.008z"></path>
<path class="path2" fill="#51b3da" d="M0.949 27.002c-0.612-0.597-0.949-1.396-0.949-2.252v-17.5c0-0.855 0.337-1.655 0.949-2.252 0.292-0.285 0.758-0.289 1.055-0.008l11.065 10.457c0.318 0.301 0.318 0.807 0 1.107l-11.065 10.457c-0.296 0.28-0.762 0.278-1.055-0.008z"></path>
<path class="path3" fill="#80d0e1" d="M28.852 27.898h-25.703c-0.827 0-1.608-0.319-2.2-0.897-0.309-0.302-0.305-0.801 0.009-1.099l11.065-10.457c0.294-0.278 0.753-0.278 1.047 0l2.088 1.974c0.473 0.447 1.213 0.447 1.685 0l2.088-1.974c0.294-0.278 0.753-0.278 1.047-0l11.065 10.457c0.314 0.297 0.319 0.796 0.009 1.099-0.592 0.579-1.373 0.897-2.2 0.897z"></path>
<path class="path4" fill="#51b3da" d="M31.042 25.903l-11.065-10.457c-0.294-0.278-0.753-0.277-1.047 0l-2.088 1.974c-0.236 0.223-0.539 0.335-0.842 0.335v10.143h12.852c0.827 0 1.608-0.319 2.2-0.897 0.309-0.302 0.305-0.802-0.009-1.099z"></path>
<path class="path5" fill="#c7e9f4" d="M16 19.279c-0.68 0-1.36-0.25-1.89-0.752l-13.153-12.43c-0.314-0.297-0.319-0.796-0.009-1.098 0.592-0.579 1.373-0.897 2.2-0.897h25.703c0.827 0 1.608 0.319 2.2 0.897 0.309 0.302 0.305 0.801-0.009 1.098l-13.153 12.43c-0.53 0.501-1.209 0.751-1.889 0.751z"></path>
<path class="path6" fill="#80d0e1" d="M31.052 4.999c-0.592-0.579-1.373-0.897-2.2-0.897h-12.852v15.177h0c0.68 0 1.36-0.251 1.889-0.751l13.153-12.43c0.314-0.297 0.319-0.796 0.009-1.098z"></path>
</symbol>
<symbol id="icon-error" viewBox="0 0 32 32">
<title>error</title>
<path class="path1" fill="#c7e9f4" d="M16 32c-8.822 0-16-7.178-16-16s7.178-16 16-16 16 7.178 16 16-7.178 16-16 16z"></path>
<path class="path2" fill="#80d0e1" d="M16 0v32c8.822 0 16-7.178 16-16s-7.178-16-16-16z"></path>
<path class="path3" fill="#80d0e1" d="M17.191 16l5.48-5.48c0.329-0.329 0.329-0.862 0-1.191s-0.862-0.329-1.191 0l-5.48 5.48-5.48-5.48c-0.329-0.329-0.862-0.329-1.191 0s-0.329 0.862 0 1.191l5.48 5.48-5.48 5.48c-0.329 0.329-0.329 0.862 0 1.191s0.862 0.329 1.191 0l5.48-5.48 5.48 5.48c0.329 0.329 0.862 0.329 1.191 0s0.329-0.862 0-1.191l-5.48-5.48z"></path>
<path class="path4" fill="#51b3da" d="M17.191 16l5.48-5.48c0.329-0.329 0.329-0.862 0-1.191s-0.862-0.329-1.191 0l-5.48 5.48v2.382l5.48 5.48c0.329 0.329 0.862 0.329 1.191 0s0.329-0.862 0-1.191l-5.48-5.48z"></path>
</symbol>
<symbol id="icon-exclamation" viewBox="0 0 32 32">
<title>exclamation</title>
<path class="path1" fill="#c7e9f4" d="M16 32c-8.822 0-16-7.178-16-16s7.178-16 16-16 16 7.178 16 16-7.178 16-16 16z"></path>
<path class="path2" fill="#80d0e1" d="M16 0v32c8.822 0 16-7.178 16-16s-7.178-16-16-16z"></path>
<path class="path3" fill="#80d0e1" d="M17.632 22.137c0 0.863-0.737 1.621-1.6 1.621-0.926 0-1.621-0.758-1.621-1.621 0-0.884 0.695-1.621 1.621-1.621 0.863 0 1.6 0.737 1.6 1.621zM17.232 18.137c0 0.653-0.716 0.926-1.221 0.926-0.674 0-1.242-0.274-1.242-0.926 0-2.505-0.295-6.105-0.295-8.611 0-0.821 0.674-1.284 1.537-1.284 0.821 0 1.516 0.463 1.516 1.284 0 2.505-0.295 6.105-0.295 8.611z"></path>
<path class="path4" fill="#51b3da" d="M17.232 18.137c0-2.505 0.295-6.105 0.295-8.611 0-0.821-0.695-1.284-1.516-1.284-0.004 0-0.007 0-0.011 0v10.82c0.004 0 0.007 0 0.011 0 0.505 0 1.221-0.274 1.221-0.926z"></path>
<path class="path5" fill="#51b3da" d="M16.032 20.516c-0.011 0-0.021 0.001-0.032 0.002v3.239c0.011 0 0.021 0.002 0.032 0.002 0.863 0 1.6-0.758 1.6-1.621 0-0.884-0.737-1.621-1.6-1.621z"></path>
</symbol>
<symbol id="icon-facebook" viewBox="0 0 32 32">
<title>facebook</title>
<path class="path1" fill="#c7e9f4" d="M18.656 31.273v-15.275h4.084c0.37 0 0.681-0.278 0.723-0.645l0.462-4.060c0.049-0.431-0.288-0.809-0.723-0.809h-4.546l0.008-2.76c0-1.438 0.146-2.209 2.36-2.209h2.232c0.402 0 0.727-0.326 0.727-0.727v-4.060c0-0.402-0.326-0.727-0.727-0.727h-4.007c-5.686 0-7.688 2.675-7.688 7.174v3.311h-2.817c-0.402 0-0.727 0.326-0.727 0.727v4.060c0 0.402 0.326 0.727 0.727 0.727h2.817v15.274c0 0.402 0.326 0.727 0.727 0.727h5.64c0.402 0 0.727-0.326 0.727-0.727z"></path>
<path class="path2" fill="#80d0e1" d="M21.024 5.515h2.232c0.402 0 0.727-0.326 0.727-0.727v-4.060c0-0.402-0.326-0.727-0.727-0.727h-4.007c-1.249 0-2.32 0.129-3.231 0.378v31.622h1.91c0.402 0 0.727-0.326 0.727-0.727v-15.275h4.084c0.37 0 0.681-0.278 0.723-0.645l0.462-4.060c0.049-0.431-0.288-0.809-0.723-0.809h-4.546l0.008-2.76c0-1.438 0.146-2.209 2.36-2.209z"></path>
</symbol>
<symbol id="icon-file" viewBox="0 0 32 32">
<title>file</title>
<path class="path1" fill="#c7e9f4" d="M27.019 32h-22.039c-0.442 0-0.8-0.358-0.8-0.8v-30.399c0-0.442 0.358-0.8 0.8-0.8h14.299c0.212 0 0.416 0.084 0.566 0.234l7.74 7.74c0.15 0.15 0.234 0.354 0.234 0.566v22.66c0 0.442-0.358 0.8-0.8 0.8z"></path>
<path class="path2" fill="#80d0e1" d="M27.585 7.975l-7.74-7.74c-0.15-0.15-0.354-0.234-0.566-0.234h-3.28v31.999h11.020c0.442 0 0.8-0.358 0.8-0.8v-22.66c-0-0.212-0.084-0.416-0.234-0.566z"></path>
<path class="path3" fill="#51b3da" d="M27.019 9.341h-7.74c-0.442 0-0.8-0.358-0.8-0.8v-7.74c0-0.71 0.862-1.069 1.366-0.566l7.74 7.74c0.502 0.502 0.147 1.366-0.566 1.366z"></path>
</symbol>
<symbol id="icon-filter" viewBox="0 0 32 32">
<title>filter</title>
<path class="path1" fill="#80d0e1" d="M10.682 30.19v-16.096l-7.654-4.831c-0.528-0.333-0.843-0.905-0.843-1.529v-1.99c0-0.499 0.405-0.904 0.904-0.904h25.821c0.499 0 0.904 0.405 0.904 0.904v1.99c0 0.624-0.315 1.196-0.843 1.529l-7.654 4.831v12.671c0 0.686-0.398 1.324-1.015 1.625l-7.020 3.426c-1.2 0.585-2.601-0.287-2.601-1.625z"></path>
<path class="path2" fill="#51b3da" d="M28.91 4.84h-12.91v25.648l4.303-2.1c0.617-0.301 1.015-0.939 1.015-1.625v-12.671l7.654-4.831c0.528-0.333 0.843-0.905 0.843-1.529v-1.99c-0-0.499-0.405-0.904-0.904-0.904z"></path>
<path class="path3" fill="#c7e9f4" d="M29.814 5.744h-27.629v-3.936c0-0.998 0.809-1.808 1.808-1.808h24.013c0.998 0 1.808 0.809 1.808 1.808v3.936z"></path>
<path class="path4" fill="#80d0e1" d="M29.814 1.808c0-0.998-0.809-1.808-1.808-1.808h-12.006v5.744h13.814v-3.936z"></path>
</symbol>
<symbol id="icon-folder" viewBox="0 0 32 32">
<title>folder</title>
<path class="path1" fill="#80d0e1" d="M0.763 27.482c-0.421 0-0.762-0.341-0.762-0.762v-21.44c0-0.421 0.341-0.762 0.762-0.762h8.961c0.421 0 0.762 0.341 0.762 0.762v2.656h16.582c0.421 0 0.762 0.341 0.762 0.762v5.062c0 0.421-0.341 0.762-0.762 0.762h-21.579l-4.001 12.432c-0.103 0.319-0.399 0.529-0.725 0.529z"></path>
<path class="path2" fill="#51b3da" d="M27.067 7.936h-11.067v6.586h11.067c0.421 0 0.762-0.341 0.762-0.762v-5.062c0-0.421-0.341-0.762-0.762-0.762z"></path>
<path class="path3" fill="#c7e9f4" d="M27.067 27.482h-26.305c-0.518 0-0.883-0.505-0.725-0.995l4.171-12.96c0.101-0.315 0.394-0.529 0.725-0.529h26.305c0.518 0 0.883 0.505 0.725 0.995l-4.171 12.96c-0.101 0.315-0.394 0.528-0.725 0.528z"></path>
<path class="path4" fill="#80d0e1" d="M31.238 12.998h-15.238v14.484h11.067c0.331 0 0.624-0.214 0.725-0.528l4.171-12.96c0.158-0.491-0.208-0.995-0.725-0.995z"></path>
</symbol>
<symbol id="icon-globe" viewBox="0 0 32 32">
<title>globe</title>
<path class="path1" fill="#c7e9f4" d="M16 32c-8.822 0-16-7.178-16-16s7.178-16 16-16 16 7.178 16 16-7.178 16-16 16z"></path>
<path class="path2" fill="#80d0e1" d="M16 0v32c8.822 0 16-7.178 16-16s-7.178-16-16-16z"></path>
<path class="path3" fill="#80d0e1" d="M22.583 9.743h8.143c-0.247-0.58-0.527-1.142-0.839-1.684h-7.621c-0.57-2.635-1.703-6.098-3.727-7.857-1.641-0.263-3.351-0.276-5.078 0-2.025 1.759-3.158 5.224-3.727 7.857h-7.621c-0.311 0.542-0.592 1.105-0.839 1.684h8.143c-0.275 1.707-0.436 3.533-0.473 5.414h-8.922c-0.028 0.544-0.031 1.097 0 1.684h8.922c0.037 1.882 0.198 3.707 0.473 5.414h-8.143c0.247 0.58 0.527 1.142 0.839 1.684h7.621c0.57 2.635 1.703 6.098 3.727 7.857 1.641 0.263 3.351 0.276 5.078 0 2.024-1.758 3.157-5.22 3.727-7.857h7.621c0.311-0.542 0.592-1.105 0.839-1.684h-8.143c0.275-1.707 0.436-3.533 0.473-5.414h8.922c0.028-0.544 0.031-1.097 0-1.684h-8.922c-0.037-1.882-0.198-3.707-0.473-5.414zM20.541 8.059h-9.082c2.176-9.434 6.843-9.706 9.082 0zM11.459 23.941h9.082c-2.176 9.434-6.843 9.706-9.082 0zM20.877 22.256h-9.754c-0.278-1.638-0.455-3.455-0.495-5.414h10.743c-0.040 1.959-0.216 3.777-0.495 5.414zM10.628 15.158c0.040-1.959 0.216-3.777 0.495-5.414h9.754c0.278 1.638 0.455 3.455 0.495 5.414h-10.743z"></path>
<path class="path4" fill="#51b3da" d="M31.978 16.842c0.028-0.544 0.031-1.097 0-1.684h-8.922c-0.037-1.882-0.198-3.707-0.473-5.414h8.143c-0.247-0.58-0.527-1.142-0.839-1.684h-7.621c-0.57-2.635-1.703-6.098-3.727-7.857-0.831-0.133-1.679-0.202-2.539-0.202v0.882c1.711-0.012 3.427 2.346 4.541 7.177h-4.541v1.684h4.877c0.278 1.638 0.455 3.455 0.495 5.414h-5.372v1.684h5.372c-0.040 1.959-0.216 3.777-0.495 5.414h-4.877v1.684h4.541c-1.093 4.739-2.814 7.165-4.541 7.177v0.882c0.838 0 1.686-0.065 2.539-0.202 2.024-1.758 3.157-5.22 3.727-7.857h7.621c0.311-0.542 0.592-1.105 0.839-1.684h-8.143c0.275-1.707 0.436-3.533 0.473-5.414h8.922z"></path>
</symbol>
<symbol id="icon-google" viewBox="0 0 32 32">
<title>google+</title>
<path class="path1" fill="#c7e9f4" d="M10.716 26.524c-5.908 0-10.716-4.72-10.716-10.524s4.807-10.524 10.716-10.524c2.342 0 4.611 0.753 6.466 2.133 0.311 0.231 0.36 0.678 0.103 0.968l-1.857 2.096c-0.223 0.251-0.598 0.294-0.872 0.099-1.113-0.789-2.455-1.218-3.84-1.218-3.62 0-6.565 2.892-6.565 6.447s2.945 6.447 6.565 6.447c3.063 0 5.067-1.467 5.719-4.1h-5.010c-0.363 0-0.658-0.294-0.658-0.658v-2.761c0-0.363 0.294-0.658 0.658-0.658h8.734c0.363 0 0.658 0.294 0.658 0.658v1.381c0 6.109-4.059 10.215-10.1 10.215z"></path>
<path class="path2" fill="#80d0e1" d="M17.285 8.576c0.257-0.29 0.208-0.736-0.103-0.968-0.377-0.281-0.773-0.534-1.182-0.762v3.179l1.285-1.45z"></path>
<path class="path3" fill="#80d0e1" d="M20.158 14.27h-4.158v4.076h0.434c-0.108 0.436-0.254 0.839-0.434 1.21v5.684c3.003-1.666 4.816-4.851 4.816-8.932v-1.381c0-0.363-0.294-0.658-0.658-0.658z"></path>
<path class="path4" fill="#80d0e1" d="M31.342 14.272h-2.449v-2.449c0-0.363-0.294-0.658-0.658-0.658h-1.17c-0.363 0-0.658 0.294-0.658 0.658v2.449h-2.449c-0.363 0-0.658 0.294-0.658 0.658v1.17c0 0.363 0.294 0.658 0.658 0.658h2.449v2.449c0 0.363 0.294 0.658 0.658 0.658h1.17c0.363 0 0.658-0.294 0.658-0.658v-2.449h2.449c0.363 0 0.658-0.294 0.658-0.658v-1.17c-0-0.363-0.295-0.658-0.658-0.658z"></path>
</symbol>
<symbol id="icon-heart" viewBox="0 0 32 32">
<title>heart</title>
<path class="path1" fill="#c7e9f4" d="M15.997 29.941c-0.188 0-0.376-0.072-0.519-0.215l-12.959-12.959c-3.359-3.359-3.359-8.824 0-12.183 3.363-3.363 8.816-3.367 12.183 0l1.295 1.295 1.295-1.295c3.367-3.367 8.816-3.367 12.183 0s3.367 8.816 0 12.183l-12.959 12.959c-0.143 0.143-0.331 0.215-0.519 0.215z"></path>
<path class="path2" fill="#80d0e1" d="M29.475 4.584c-3.367-3.367-8.816-3.367-12.183 0l-1.295 1.295v24.061c0.188 0 0.376-0.072 0.519-0.215l12.959-12.959c3.367-3.367 3.367-8.816 0-12.183z"></path>
</symbol>
<symbol id="icon-home" viewBox="0 0 32 32">
<title>home</title>
<path class="path1" fill="#c7e9f4" d="M25.94 32h-19.881c-0.882 0-1.6-0.718-1.6-1.6v-12.019h-2.295c-1.391 0-2.118-1.651-1.182-2.677l13.835-15.182c0.302-0.332 0.733-0.522 1.182-0.522s0.88 0.19 1.182 0.522l13.835 15.182c0.937 1.028 0.207 2.677-1.182 2.677h-2.295v12.019c0 0.882-0.718 1.6-1.6 1.6z"></path>
<path class="path2" fill="#80d0e1" d="M31.018 15.704l-13.835-15.182c-0.302-0.332-0.733-0.522-1.182-0.522v32h9.94c0.882 0 1.6-0.718 1.6-1.6v-12.019h2.295c1.391 0 2.118-1.651 1.182-2.677z"></path>
<path class="path3" fill="#80d0e1" d="M19.987 19.218h-7.974c-0.442 0-0.8 0.358-0.8 0.8v11.982h9.573v-11.982c0-0.442-0.358-0.8-0.8-0.8z"></path>
<path class="path4" fill="#51b3da" d="M20.787 20.018c0-0.442-0.358-0.8-0.8-0.8h-3.987v12.782h4.787v-11.982z"></path>
</symbol>
<symbol id="icon-inbox" viewBox="0 0 32 32">
<title>inbox</title>
<path class="path1" fill="#80d0e1" d="M21.871 25.268h-11.743c-0.379 0-0.706-0.266-0.783-0.636l-0.86-4.114h-7.686c-0.534 0-0.917-0.514-0.768-1.025l4.962-16.935c0.1-0.341 0.413-0.575 0.768-0.575h20.475c0.355 0 0.668 0.234 0.768 0.575l4.962 16.935c0.15 0.512-0.235 1.025-0.768 1.025h-7.686l-0.86 4.114c-0.077 0.371-0.404 0.636-0.783 0.636z"></path>
<path class="path2" fill="#51b3da" d="M31.967 19.493l-4.962-16.935c-0.1-0.341-0.413-0.575-0.768-0.575h-10.237v23.285h5.871c0.379 0 0.706-0.266 0.783-0.636l0.86-4.114h7.686c0.534 0 0.917-0.514 0.768-1.025z"></path>
<path class="path3" fill="#c7e9f4" d="M31.799 18.918c-0.899 0-7.975 0-8.935 0-0.379 0-0.706 0.266-0.783 0.636l-0.793 3.795c-0.039 0.185-0.202 0.318-0.392 0.318h-9.792c-0.189 0-0.353-0.133-0.392-0.318l-0.793-3.795c-0.078-0.371-0.404-0.636-0.783-0.636-0.853 0-8.065 0-8.935 0-0.043 0.148-0.152 0.52-0.168 0.575-0.018 0.061-0.032 0.151-0.032 0.225v9.499c0 0.442 0.358 0.8 0.8 0.8h30.399c0.442 0 0.8-0.358 0.8-0.8v-9.499c-0-0.146-0.026-0.203-0.201-0.8z"></path>
<path class="path4" fill="#80d0e1" d="M31.799 18.918c-0.899 0-7.975 0-8.935 0-0.379 0-0.706 0.266-0.783 0.636l-0.793 3.795c-0.039 0.185-0.202 0.318-0.392 0.318h-4.896v6.349h15.2c0.442 0 0.8-0.358 0.8-0.8v-9.499c-0-0.146-0.026-0.203-0.201-0.8z"></path>
</symbol>
<symbol id="icon-info" viewBox="0 0 32 32">
<title>info</title>
<path class="path1" fill="#c7e9f4" d="M16 32c-8.822 0-16-7.178-16-16s7.178-16 16-16c8.822 0 16 7.178 16 16s-7.178 16-16 16z"></path>
<path class="path2" fill="#80d0e1" d="M16 0v32c8.822 0 16-7.178 16-16s-7.178-16-16-16z"></path>
<path class="path3" fill="#80d0e1" d="M17.705 10.011c0 0.8-0.758 1.516-1.705 1.516-0.968 0-1.726-0.716-1.726-1.516s0.758-1.495 1.726-1.495c0.947 0 1.705 0.695 1.705 1.495zM17.642 14.453v8.021c0 0.505-0.737 1.011-1.642 1.011-0.947 0-1.621-0.505-1.621-1.011v-8.021c0-0.589 0.674-0.989 1.621-0.989 0.905 0 1.642 0.4 1.642 0.989z"></path>
<path class="path4" fill="#51b3da" d="M16 13.463h-0v10.021h0c0.905 0 1.642-0.505 1.642-1.011v-8.021c0-0.589-0.737-0.989-1.642-0.989z"></path>
<path class="path5" fill="#51b3da" d="M17.705 10.011c0-0.8-0.758-1.495-1.705-1.495h-0v3.011h0c0.947 0 1.705-0.716 1.705-1.516z"></path>
</symbol>
<symbol id="icon-instagram" viewBox="0 0 32 32">
<title>instagram</title>
<path class="path1" fill="#c7e9f4" d="M29.298 2.702c-3.117-3.117-7.382-2.681-13.306-2.681-7.108 0-10.46-0.165-13.306 2.681-2.894 2.894-2.681 6.393-2.681 13.306 0 6.71-0.246 10.378 2.681 13.306 2.894 2.894 6.393 2.681 13.306 2.681 6.62 0 10.355 0.269 13.306-2.681 3.117-3.117 2.681-7.382 2.681-13.306 0-7.107 0.165-10.46-2.681-13.305zM27.247 27.274c-1.989 1.989-4.58 1.853-11.267 1.853-6.985 0-9.337 0.077-11.267-1.853-1.986-1.986-1.853-4.563-1.853-11.267 0-7.012-0.074-9.34 1.853-11.267 1.94-1.94 4.333-1.853 11.267-1.853 6.865 0 9.305-0.109 11.267 1.853 1.934 1.934 1.853 4.303 1.853 11.267 0 6.74 0.128 9.286-1.853 11.267z"></path>
<path class="path2" fill="#c7e9f4" d="M15.98 7.792c-4.534 0-8.216 3.682-8.216 8.216s3.682 8.216 8.216 8.216c4.534 0 8.216-3.682 8.216-8.216s-3.682-8.216-8.216-8.216zM15.98 21.344c-2.94 0-5.337-2.384-5.337-5.337 0-2.94 2.384-5.337 5.337-5.337s5.337 2.384 5.337 5.337c0 2.94-2.397 5.337-5.337 5.337z"></path>
<path class="path3" fill="#80d0e1" d="M31.979 16.007c0-7.108 0.165-10.46-2.681-13.306-3.117-3.117-7.382-2.681-13.306-2.681v2.866c6.855-0 9.294-0.108 11.255 1.853 1.934 1.934 1.853 4.303 1.853 11.267 0 6.74 0.128 9.286-1.853 11.267-1.988 1.988-4.577 1.853-11.255 1.853v2.866c6.619 0 10.355 0.269 13.306-2.681 3.117-3.117 2.681-7.382 2.681-13.305z"></path>
<path class="path4" fill="#80d0e1" d="M24.195 16.007c0-4.53-3.675-8.209-8.203-8.215v2.879c2.947 0.007 5.325 2.388 5.325 5.337 0 2.936-2.39 5.33-5.325 5.337v2.879c4.528-0.007 8.203-3.685 8.203-8.215z"></path>
<path class="path5" fill="#80d0e1" d="M26.431 7.47c0 1.058-0.857 1.915-1.915 1.915s-1.915-0.857-1.915-1.915c0-1.058 0.857-1.915 1.915-1.915s1.915 0.857 1.915 1.915z"></path>
</symbol>
<symbol id="icon-interogation" viewBox="0 0 32 32">
<title>interogation</title>
<path class="path1" fill="#c7e9f4" d="M16 32c-8.822 0-16-7.178-16-16s7.178-16 16-16c8.822 0 16 7.178 16 16s-7.178 16-16 16z"></path>
<path class="path2" fill="#80d0e1" d="M16 0v32c8.822 0 16-7.178 16-16s-7.178-16-16-16z"></path>
<path class="path3" fill="#80d0e1" d="M17.958 15.568c-1.158 0.905-1.179 1.537-1.179 2.632 0 0.4-0.211 0.863-1.242 0.863-0.863 0-1.158-0.316-1.158-1.411 0-3.717 3.284-3.476 3.284-5.579 0-0.968-0.842-1.432-1.895-1.432-2.147 0-1.684 1.621-2.821 1.621-0.568 0-1.263-0.379-1.263-1.2 0-1.137 1.305-2.821 4.147-2.821 2.695 0 4.484 1.495 4.484 3.474s-1.789 3.411-2.358 3.853zM17.179 22.137c0 0.863-0.716 1.621-1.621 1.621s-1.6-0.758-1.6-1.621c0-0.884 0.716-1.621 1.6-1.621s1.621 0.737 1.621 1.621z"></path>
<path class="path4" fill="#51b3da" d="M17.179 22.137c0-0.731-0.504-1.36-1.179-1.557v3.114c0.685-0.198 1.179-0.841 1.179-1.557z"></path>
<path class="path5" fill="#51b3da" d="M16 8.245v2.405c0.942 0.064 1.663 0.527 1.663 1.424 0 1.028-0.965 1.661-1.663 2.208v4.742c0.634-0.119 0.779-0.493 0.779-0.824 0-1.095 0.021-1.726 1.179-2.632 0.568-0.442 2.358-1.874 2.358-3.853 0-1.937-1.716-3.41-4.316-3.471z"></path>
</symbol>
<symbol id="icon-laptop" viewBox="0 0 32 32">
<title>laptop</title>
<path class="path1" fill="#80d0e1" d="M28.61 22.792h-25.22c-0.442 0-0.8-0.358-0.8-0.8v-16.21c0-0.928 0.755-1.683 1.683-1.683h23.454c0.928 0 1.683 0.755 1.683 1.683v16.21c0 0.442-0.358 0.8-0.8 0.8z"></path>
<path class="path2" fill="#51b3da" d="M27.727 4.1h-11.727v18.693h12.61c0.442 0 0.8-0.358 0.8-0.8v-16.21c0-0.928-0.755-1.683-1.683-1.683z"></path>
<path class="path3" fill="#c7e9f4" d="M25.81 19.992h-19.62c-0.442 0-0.8-0.358-0.8-0.8v-11.493c0-0.442 0.358-0.8 0.8-0.8h19.62c0.442 0 0.8 0.358 0.8 0.8v11.493c0 0.442-0.358 0.8-0.8 0.8z"></path>
<path class="path4" fill="#51b3da" d="M28.83 27.9h-25.66c-1.252 0-2.315-0.895-2.528-2.129l-0.63-3.643c-0.085-0.49 0.294-0.936 0.788-0.936h30.4c0.495 0 0.873 0.447 0.788 0.936l-0.63 3.643c-0.213 1.233-1.276 2.129-2.528 2.129z"></path>
<path class="path5" fill="#238cc5" d="M31.2 21.192h-15.2v6.708h12.83c1.252 0 2.315-0.895 2.528-2.129l0.63-3.643c0.085-0.49-0.294-0.936-0.788-0.936z"></path>
<path class="path6" fill="#80d0e1" d="M17.152 25.346h-2.304c-0.442 0-0.8-0.358-0.8-0.8s0.358-0.8 0.8-0.8h2.304c0.442 0 0.8 0.358 0.8 0.8s-0.358 0.8-0.8 0.8z"></path>
<path class="path7" fill="#80d0e1" d="M25.81 6.899h-9.81v13.093h9.81c0.442 0 0.8-0.358 0.8-0.8v-11.493c0-0.442-0.358-0.8-0.8-0.8z"></path>
<path class="path8" fill="#51b3da" d="M17.152 23.746h-1.152v1.6h1.152c0.442 0 0.8-0.358 0.8-0.8s-0.358-0.8-0.8-0.8z"></path>
</symbol>
<symbol id="icon-left" viewBox="0 0 32 32">
<title>left</title>
<path class="path1" fill="#c7e9f4" d="M32 13.127v5.745c0 1.032-0.84 1.872-1.872 1.872h-15.115v3.338c0 1.523-1.725 2.409-2.963 1.521l-11.27-8.082c-1.040-0.746-1.040-2.296 0-3.042l11.27-8.082c1.237-0.887 2.963-0.002 2.963 1.521v3.338h15.115c1.032 0 1.872 0.84 1.872 1.872z"></path>
<path class="path2" fill="#80d0e1" d="M30.128 11.255h-14.129v9.489h14.129c1.032 0 1.872-0.84 1.872-1.872v-5.745c0-1.032-0.84-1.872-1.872-1.872z"></path>
</symbol>
<symbol id="icon-linkedin" viewBox="0 0 32 32">
<title>linkedin</title>
<path class="path1" fill="#c7e9f4" d="M0 11.354v19.149c0 0.552 0.448 1 1 1h4.851c0.552 0 1-0.448 1-1v-19.149c0-0.552-0.448-1-1-1h-4.851c-0.552 0-1 0.448-1 1z"></path>
<path class="path2" fill="#c7e9f4" d="M3.876 0c-2.344 0-3.876 1.579-3.876 3.653 0 2.031 1.487 3.656 3.787 3.656h0.044c2.389 0 3.877-1.625 3.877-3.656-0.044-2.074-1.488-3.653-3.831-3.653z"></path>
<path class="path3" fill="#c7e9f4" d="M17.937 13.846v-1.996c0-0.552-0.448-1-1-1h-4.831c-0.557 0-1.006 0.454-1 1.011 0.045 3.785-0.002 15.607-0.017 19.135-0.002 0.554 0.446 1.004 1 1.004h4.847c0.552 0 1-0.448 1-1v-10.811c0-0.632 0.044-1.263 0.226-1.715 1.391-3.548 6.987-4.104 6.987 2.211v10.315c0 0.552 0.448 1 1 1h4.851c0.552 0 1-0.448 1-1l0-11.126c0-10.862-10.341-11.923-14.063-6.027z"></path>
<path class="path4" fill="#80d0e1" d="M17.937 13.846v-1.996c0-0.552-0.448-1-1-1h-0.937v21.149h0.937c0.552 0 1-0.448 1-1v-10.812c0-0.632 0.044-1.263 0.226-1.715 1.391-3.548 6.987-4.104 6.987 2.211v10.315c0 0.552 0.448 1 1 1h4.851c0.552 0 1-0.448 1-1l0-11.126c0-10.862-10.341-11.923-14.063-6.027z"></path>
</symbol>
<symbol id="icon-lock" viewBox="0 0 32 32">
<title>lock</title>
<path class="path1" fill="#80d0e1" d="M23.318 16.8c-0.442 0-0.8-0.358-0.8-0.8v-7.882c0-3.594-2.924-6.518-6.518-6.518s-6.518 2.924-6.518 6.518v7.882c0 0.442-0.358 0.8-0.8 0.8s-0.8-0.358-0.8-0.8v-7.882c0-4.476 3.642-8.118 8.118-8.118s8.118 3.642 8.118 8.118v7.882c0 0.442-0.358 0.8-0.8 0.8z"></path>
<path class="path2" fill="#51b3da" d="M16 0v1.6c3.594 0 6.518 2.924 6.518 6.518v7.882c0 0.442 0.358 0.8 0.8 0.8s0.8-0.358 0.8-0.8v-7.882c0-4.476-3.642-8.118-8.118-8.118z"></path>
<path class="path3" fill="#c7e9f4" d="M25.942 32h-19.884c-0.442 0-0.8-0.358-0.8-0.8v-15.2c0-0.442 0.358-0.8 0.8-0.8h19.884c0.442 0 0.8 0.358 0.8 0.8v15.2c-0 0.442-0.358 0.8-0.8 0.8z"></path>
<path class="path4" fill="#80d0e1" d="M25.942 15.2h-9.942v16.8h9.942c0.442 0 0.8-0.358 0.8-0.8v-15.2c0-0.442-0.358-0.8-0.8-0.8z"></path>
<path class="path5" fill="#80d0e1" d="M16 27.149c-1.957 0-3.549-1.592-3.549-3.549s1.592-3.549 3.549-3.549c1.957 0 3.549 1.592 3.549 3.549s-1.592 3.549-3.549 3.549z"></path>
<path class="path6" fill="#51b3da" d="M16 20.051v7.099c1.957 0 3.549-1.592 3.549-3.549s-1.592-3.549-3.549-3.549z"></path>
</symbol>
<symbol id="icon-logout" viewBox="0 0 32 32">
<title>logout</title>
<path class="path1" fill="#80d0e1" d="M20.074 31.714h-17.455c-1.444 0-2.619-1.175-2.619-2.619v-26.19c0-1.444 1.175-2.619 2.619-2.619h17.455c1.444 0 2.619 1.175 2.619 2.619v2.801c0 0.482-0.391 0.873-0.873 0.873s-0.873-0.391-0.873-0.873v-2.801c0-0.481-0.392-0.873-0.873-0.873h-17.455c-0.481 0-0.873 0.392-0.873 0.873v26.19c0 0.481 0.392 0.873 0.873 0.873h17.455c0.481 0 0.873-0.392 0.873-0.873v-2.8c0-0.482 0.391-0.873 0.873-0.873s0.873 0.391 0.873 0.873v2.8c0 1.444-1.175 2.619-2.619 2.619z"></path>
<path class="path2" fill="#c7e9f4" d="M20.791 21.535v-1.876h-9.736c-0.963 0-1.746-0.783-1.746-1.746v-3.826c0-0.963 0.783-1.746 1.746-1.746h9.736v-1.876c0-1.42 1.609-2.247 2.764-1.419l7.718 5.535c0.97 0.695 0.97 2.142-0 2.838l-7.718 5.535c-0 0-0 0-0 0-1.153 0.826-2.764 0.005-2.764-1.419z"></path>
<path class="path3" fill="#51b3da" d="M20.074 31.714c1.444 0 2.619-1.175 2.619-2.619v-2.8c0-0.482-0.391-0.873-0.873-0.873s-0.873 0.391-0.873 0.873v2.8c0 0.481-0.392 0.873-0.873 0.873h-8.728v1.746h8.728z"></path>
<path class="path4" fill="#51b3da" d="M21.82 6.578c0.482 0 0.873-0.391 0.873-0.873v-2.801c0-1.444-1.175-2.619-2.619-2.619h-8.728v1.746h8.728c0.481 0 0.873 0.392 0.873 0.873v2.801c0 0.482 0.391 0.873 0.873 0.873z"></path>
<path class="path5" fill="#80d0e1" d="M31.272 14.581l-7.718-5.535c-1.154-0.828-2.764-0.002-2.764 1.419v1.876h-9.444v7.318h9.444v1.876c0 1.426 1.614 2.243 2.764 1.419 0 0 0-0 0-0l7.718-5.535c0.97-0.696 0.971-2.142 0-2.838z"></path>
</symbol>
<symbol id="icon-marker" viewBox="0 0 32 32">
<title>marker</title>
<path class="path1" fill="#c7e9f4" d="M16 0c-6.788 0-12.311 5.522-12.311 12.311 0 8.378 7.031 16.139 11.849 19.543 0.138 0.098 0.3 0.147 0.462 0.147s0.323-0.049 0.462-0.147c3.922-2.771 11.849-10.532 11.849-19.543 0-6.788-5.522-12.311-12.311-12.311zM16 18.402c-3.359 0-6.091-2.732-6.091-6.091s2.733-6.091 6.091-6.091 6.091 2.733 6.091 6.091-2.733 6.091-6.091 6.091z"></path>
<path class="path2" fill="#80d0e1" d="M16 0c-0 0-0 0-0 0l0 6.219c0 0 0 0 0 0 3.359 0 6.091 2.733 6.091 6.091s-2.733 6.091-6.091 6.091h-0l0 13.598c0.162 0 0.323-0.049 0.462-0.147 3.922-2.771 11.849-10.532 11.849-19.543 0-6.788-5.522-12.311-12.311-12.311z"></path>
</symbol>
<symbol id="icon-master-card" viewBox="0 0 32 32">
<title>master-card</title>
<path class="path1" fill="#80d0e1" d="M16 7.199c-0.001-0.001-0.002-0.001-0.003-0.002v0.003c0.001-0.001 0.002-0.001 0.003-0.002z"></path>
<path class="path2" fill="#51b3da" d="M21.58 5.58c-2.053 0-3.967 0.594-5.58 1.619-0.001 0.001-0.002 0.001-0.003 0.002-2.908 1.849-4.837 5.098-4.837 8.799s1.93 6.951 4.837 8.799c0.001 0.001 0.002 0.001 0.003 0.002 1.613 1.025 3.527 1.619 5.58 1.619 5.755 0 10.42-4.665 10.42-10.42s-4.665-10.42-10.42-10.42z"></path>
<path class="path3" fill="#80d0e1" d="M15.997 24.803c0.001-0.001 0.002-0.001 0.003-0.002-0.001-0.001-0.002-0.001-0.003-0.002v0.003z"></path>
<path class="path4" fill="#80d0e1" d="M16 7.199c-0.001 0.001-0.002 0.001-0.003 0.002v-0.003c-1.613-1.024-3.526-1.617-5.577-1.617-5.755 0-10.42 4.665-10.42 10.42s4.665 10.42 10.42 10.42c2.052 0 3.965-0.593 5.577-1.617v-0.003c0.001 0.001 0.002 0.001 0.003 0.002 2.909-1.848 4.84-5.099 4.84-8.801s-1.931-6.953-4.84-8.801z"></path>
<path class="path5" fill="#c7e9f4" d="M11.16 16c0 3.701 1.93 6.951 4.837 8.799v-17.599c-2.908 1.849-4.837 5.098-4.837 8.799z"></path>
</symbol>
<symbol id="icon-minus" viewBox="0 0 32 32">
<title>minus</title>
<path class="path1" fill="#c7e9f4" d="M30.316 20.211h-28.632c-0.929 0-1.684-0.756-1.684-1.684v-5.053c0-0.929 0.756-1.684 1.684-1.684h28.632c0.929 0 1.684 0.756 1.684 1.684v5.053c0 0.929-0.756 1.684-1.684 1.684z"></path>
<path class="path2" fill="#80d0e1" d="M30.316 11.789h-14.316v8.421h14.316c0.929 0 1.684-0.756 1.684-1.684v-5.053c0-0.929-0.756-1.684-1.684-1.684z"></path>
</symbol>
<symbol id="icon-next" viewBox="0 0 32 32">
<title>next</title>
<path class="path1" fill="#c7e9f4" d="M9.888 31.342v0l-4.212-4.063c-0.936-0.902-0.962-2.39-0.060-3.326l7.288-7.555c0.216-0.223 0.216-0.574 0-0.797l-7.288-7.554c-0.902-0.936-0.876-2.423 0.060-3.326l4.212-4.063c0.934-0.9 2.425-0.874 3.326 0.060l13.167 13.649c0.883 0.916 0.883 2.35-0 3.266l-13.167 13.649c-0.9 0.933-2.392 0.96-3.326 0.060z"></path>
<path class="path2" fill="#80d0e1" d="M26.381 14.367l-10.381-10.761v24.788l10.381-10.761c0.884-0.916 0.884-2.35 0-3.266z"></path>
</symbol>
<symbol id="icon-notification" viewBox="0 0 32 32">
<title>notification</title>
<path class="path1" fill="#80d0e1" d="M16 32c-2.795 0-5.068-2.274-5.068-5.068 0-0.442 0.358-0.8 0.8-0.8h8.536c0.442 0 0.8 0.358 0.8 0.8 0 2.795-2.274 5.068-5.068 5.068z"></path>
<path class="path2" fill="#51b3da" d="M20.268 26.132h-4.268v5.868c2.795 0 5.068-2.274 5.068-5.068 0-0.442-0.358-0.8-0.8-0.8z"></path>
<path class="path3" fill="#c7e9f4" d="M27.186 27.732h-22.373c-0.589 0-0.976-0.617-0.72-1.148l2.447-5.070v-8.633c0-4.107 2.606-7.574 6.235-8.895v-0.761c0-1.778 1.447-3.225 3.225-3.225s3.225 1.447 3.225 3.225v0.761c3.622 1.319 6.235 4.781 6.235 8.895v8.633l2.447 5.070c0.256 0.531-0.131 1.148-0.72 1.148z"></path>
<path class="path4" fill="#80d0e1" d="M27.907 26.584l-2.447-5.070v-8.633c0-4.107-2.606-7.574-6.235-8.895v-0.761c0-1.778-1.447-3.225-3.225-3.225v27.732h11.186c0.589 0 0.976-0.617 0.72-1.148z"></path>
</symbol>
<symbol id="icon-pause" viewBox="0 0 32 32">
<title>pause</title>
<path class="path1" fill="#c7e9f4" d="M10.375 31.063h-7.5c-1.585 0-2.875-1.29-2.875-2.875v-24.375c0-1.585 1.29-2.875 2.875-2.875h7.5c1.585 0 2.875 1.29 2.875 2.875v24.375c0 1.585-1.29 2.875-2.875 2.875z"></path>
<path class="path2" fill="#80d0e1" d="M29.125 31.063h-7.5c-1.585 0-2.875-1.29-2.875-2.875v-24.375c0-1.585 1.29-2.875 2.875-2.875h7.5c1.585 0 2.875 1.29 2.875 2.875v24.375c0 1.585-1.29 2.875-2.875 2.875z"></path>
</symbol>
<symbol id="icon-paypal" viewBox="0 0 32 32">
<title>paypal</title>
<path class="path1" fill="#c7e9f4" d="M13.571 20l2.16 0c6.43 0 11.586-4.052 13.065-10.285v0c1.961 3.494 0.403 12.666-10.096 12.631l-0 0c-1.274 0.007-1.569 0.022-1.826 1.654l-1.053 6.67c-0.111 0.693-0.566 1.284-1.251 1.327l-4.21 0.003c-0.565 0-1.33-0.425-1.186-1.333h2.7l1.698-10.667z"></path>
<path class="path2" fill="#c7e9f4" d="M7.82 0c1.211 0 10.443 0 11.65 0 3.741 0 8.090 2.758 6.793 8.824-1.144 5.358-5.419 8.509-10.533 8.509h-2.723c-0.493 0-1.702-0.175-1.94 1.332l-1.474 9.334-5.773-0c-0.732 0-1.448-0.609-1.333-1.333l4-25.333c0.114-0.725 0.6-1.333 1.333-1.333v0z"></path>
<path class="path3" fill="#80d0e1" d="M28.796 9.715c-1.458 6.143-6.487 10.164-12.787 10.28v9.478l0.864-5.473c0.258-1.633 0.553-1.648 1.826-1.654l0-0c10.499 0.035 12.057-9.137 10.096-12.631z"></path>
<path class="path4" fill="#80d0e1" d="M28.796 9.715v0 0z"></path>
<path class="path5" fill="#80d0e1" d="M19.471 0c-0.417 0-1.791 0-3.462 0v17.328c4.99-0.113 9.131-3.244 10.255-8.504 1.297-6.066-3.052-8.824-6.793-8.824z"></path>
</symbol>
<symbol id="icon-pencil" viewBox="0 0 32 32">
<title>pencil</title>
<path class="path1" fill="#c7e9f4" d="M0.293 31.707c-0.253-0.253-0.352-0.622-0.258-0.968 2.434-9.015 2.228-8.453 2.491-8.716l20.482-20.482c2.054-2.054 5.397-2.054 7.451 0s2.054 5.397 0 7.451l-20.482 20.482c-0.266 0.266 0.279 0.062-8.716 2.491-0.346 0.093-0.715-0.005-0.968-0.258z"></path>
<path class="path2" fill="#80d0e1" d="M30.459 1.541l-30.166 30.166c0.253 0.253 0.622 0.352 0.968 0.258 9.015-2.434 8.453-2.228 8.716-2.491l20.482-20.482c2.054-2.054 2.054-5.397 0-7.451z"></path>
<path class="path3" fill="#80d0e1" d="M3.233 21.316l-0.707 0.707c-0.232 0.232-0.252 0.422-0.409 1.005l6.856 6.856c0.581-0.157 0.773-0.177 1.005-0.409l0.707-0.707-7.451-7.451z"></path>
<path class="path4" fill="#80d0e1" d="M31.098 8.217l-7.315-7.315c-0.518 0.35-0.738 0.602-1.483 1.346l3.019 3.019-12.787 12.787c-0.391 0.391-0.391 1.024 0 1.414s1.024 0.391 1.414 0l12.787-12.787 3.019 3.019c0.745-0.745 0.996-0.965 1.346-1.483z"></path>
<path class="path5" fill="#51b3da" d="M6.959 25.041l-1.414 1.414 3.428 3.428c0.581-0.157 0.773-0.177 1.005-0.409l0.707-0.707-3.726-3.726z"></path>
<path class="path6" fill="#51b3da" d="M31.098 8.217l-3.657-3.658-14.908 14.908c0.391 0.391 1.024 0.391 1.414 0l12.787-12.787 3.019 3.019c0.745-0.745 0.996-0.965 1.346-1.483z"></path>
</symbol>
<symbol id="icon-phone" viewBox="0 0 32 32">
<title>phone</title>
<path class="path1" fill="#80d0e1" d="M23.078 32h-14.157c-2.322 0-4.211-1.889-4.211-4.211v-23.579c0-2.322 1.889-4.211 4.211-4.211h14.157c2.322 0 4.211 1.889 4.211 4.211v23.579c0 2.322-1.889 4.211-4.21 4.211z"></path>
<path class="path2" fill="#51b3da" d="M23.078 0h-7.078v32h7.078c2.322 0 4.211-1.889 4.211-4.211v-23.579c0-2.322-1.889-4.211-4.211-4.211z"></path>
<path class="path3" fill="#c7e9f4" d="M23.136 24.030h-14.271c-0.665 0-1.206-0.541-1.206-1.206v-17.495c0-0.665 0.541-1.206 1.206-1.206h14.271c0.665 0 1.206 0.541 1.206 1.206v17.495c0 0.665-0.541 1.206-1.206 1.206z"></path>
<path class="path4" fill="#51b3da" d="M17.843 28.028c0 1.018-0.825 1.843-1.843 1.843s-1.843-0.825-1.843-1.843c0-1.018 0.825-1.843 1.843-1.843s1.843 0.825 1.843 1.843z"></path>
<path class="path5" fill="#80d0e1" d="M23.136 4.123h-7.136v19.906h7.136c0.665 0 1.206-0.541 1.206-1.206v-17.495c0-0.665-0.541-1.206-1.206-1.206z"></path>
<path class="path6" fill="#238cc5" d="M16 26.185v3.685c1.018 0 1.843-0.825 1.843-1.843s-0.825-1.842-1.843-1.842z"></path>
</symbol>
<symbol id="icon-pinterest" viewBox="0 0 32 32">
<title>pinterest</title>
<path class="path1" fill="#c7e9f4" d="M4.325 11.482c0 3.161 1.13 5.974 3.553 7.022 0.397 0.172 0.753 0.006 0.869-0.46 0.080-0.323 0.27-1.136 0.354-1.475 0.116-0.461 0.071-0.623-0.25-1.024-0.699-0.873-1.145-2.003-1.145-3.605 0-10.929 15.762-11.943 15.762-1.76 0 12.357-9.348 11.197-8.239 6.232 0.521-2.328 1.532-4.841 1.532-6.522 0-1.505-0.762-2.759-2.34-2.759-1.856 0-3.346 2.034-3.346 4.758 0 1.735 0.553 2.908 0.553 2.908s-1.899 8.523-2.232 10.016c-0.663 2.973-0.1 6.617-0.052 6.985 0.028 0.218 0.293 0.27 0.412 0.105 0.171-0.237 2.381-3.127 3.132-6.015 0.213-0.818 1.22-5.052 1.22-5.052 0.603 1.218 2.365 2.291 4.238 2.291 11.515 0 13.895-23.127-1.623-23.127-8.244 0-12.4 6.261-12.4 11.482z"></path>
<path class="path2" fill="#80d0e1" d="M16.76 9.89c0-0.852-0.245-1.623-0.743-2.133v5.754c0.394-1.357 0.743-2.634 0.743-3.622z"></path>
<path class="path3" fill="#80d0e1" d="M16.725 0c-0.239 0-0.475 0.006-0.708 0.016v3.101c3.792-0.149 7.451 2.157 7.451 7.064 0 8.584-5.018 11.304-7.451 9.017v3.378c0.695 0.34 1.501 0.55 2.33 0.55 11.515 0 13.895-23.127-1.623-23.127z"></path>
</symbol>
<symbol id="icon-play" viewBox="0 0 32 32">
<title>play</title>
<path class="path1" fill="#c7e9f4" d="M1.745 28.991v-25.982c0-2.312 2.502-3.759 4.506-2.602l22.501 12.991c2.003 1.156 2.004 4.046 0 5.203l-22.501 12.991c-2.002 1.156-4.506-0.287-4.506-2.602z"></path>
<path class="path2" fill="#80d0e1" d="M28.753 13.399l-12.753-7.363v19.929l12.753-7.363c2.003-1.156 2.005-4.046 0-5.203z"></path>
</symbol>
<symbol id="icon-plus" viewBox="0 0 32 32">
<title>plus</title>
<path class="path1" fill="#c7e9f4" d="M18.526 32h-5.053c-0.929 0-1.684-0.756-1.684-1.684v-10.105h-10.105c-0.929 0-1.684-0.756-1.684-1.684v-5.053c0-0.929 0.756-1.684 1.684-1.684h10.105v-10.105c0-0.929 0.756-1.684 1.684-1.684h5.053c0.929 0 1.684 0.756 1.684 1.684v10.105h10.105c0.929 0 1.684 0.756 1.684 1.684v5.053c0 0.929-0.756 1.684-1.684 1.684h-10.105v10.105c0 0.929-0.756 1.684-1.684 1.684z"></path>
<path class="path2" fill="#80d0e1" d="M30.316 11.789h-10.105v-10.105c0-0.929-0.756-1.684-1.684-1.684h-2.526v32h2.526c0.929 0 1.684-0.756 1.684-1.684v-10.105h10.105c0.929 0 1.684-0.756 1.684-1.684v-5.053c0-0.929-0.756-1.684-1.684-1.684z"></path>
</symbol>
<symbol id="icon-prev" viewBox="0 0 32 32">
<title>prev</title>
<path class="path1" fill="#c7e9f4" d="M18.786 31.282l-13.167-13.649c-0.883-0.916-0.883-2.35 0-3.266l13.167-13.649c0.901-0.933 2.392-0.96 3.326-0.060l4.212 4.063c0.936 0.902 0.963 2.39 0.060 3.326l-7.288 7.555c-0.216 0.223-0.216 0.574 0 0.797l7.288 7.555c0.902 0.936 0.876 2.423-0.060 3.326l-4.212 4.063c-0.933 0.9-2.425 0.874-3.326-0.060z"></path>
<path class="path2" fill="#80d0e1" d="M26.384 23.953l-7.288-7.554c-0.216-0.224-0.216-0.574 0-0.797l7.288-7.554c0.903-0.936 0.876-2.423-0.060-3.326l-4.212-4.063c-0.933-0.9-2.425-0.874-3.326 0.060l-2.786 2.888v24.788l2.786 2.888c0.901 0.934 2.393 0.96 3.326 0.060l4.212-4.063c0.936-0.903 0.962-2.39 0.060-3.326z"></path>
</symbol>
<symbol id="icon-refresh" viewBox="0 0 32 32">
<title>refresh</title>
<path class="path1" fill="#c7e9f4" d="M28.157 14.349l-5.88-2.898c-1.144-0.564-1.343-2.073-0.464-2.922-1.658-1.296-3.688-2-5.814-2-2.852 0-5.53 1.277-7.346 3.502-0.869 1.065-2.354 1.343-3.531 0.661l-0.866-0.502c-1.466-0.85-1.84-2.807-0.785-4.132 2.947-3.701 7.535-6.057 12.528-6.057 4.279 0 8.388 1.73 11.386 4.769 1.421-0.95 2.864-0.004 2.949 1.296l0.43 6.541c0.092 1.394-1.358 2.359-2.608 1.743z"></path>
<path class="path2" fill="#c7e9f4" d="M16 32c-4.279 0-8.388-1.73-11.386-4.769-1.422 0.95-2.864 0.003-2.949-1.296l-0.43-6.541c-0.091-1.391 1.356-2.36 2.608-1.743l5.88 2.898c1.144 0.564 1.343 2.073 0.464 2.922 1.658 1.296 3.688 2 5.814 2 2.852 0 5.53-1.277 7.346-3.502 0.869-1.065 2.354-1.343 3.531-0.661l0.866 0.502c1.466 0.85 1.84 2.807 0.785 4.132-2.947 3.701-7.535 6.057-12.528 6.057z"></path>
<path class="path3" fill="#80d0e1" d="M30.765 12.606l-0.43-6.541c-0.084-1.285-1.513-2.256-2.949-1.296-2.998-3.039-7.107-4.769-11.386-4.769v6.529c2.126 0 4.156 0.704 5.814 2-0.879 0.849-0.681 2.358 0.464 2.922l5.88 2.898c1.25 0.616 2.699-0.351 2.608-1.743z"></path>
<path class="path4" fill="#80d0e1" d="M27.743 21.81l-0.866-0.502c-1.177-0.682-2.662-0.404-3.531 0.661-1.817 2.226-4.494 3.502-7.346 3.502v6.529c4.997 0 9.583-2.359 12.528-6.057 1.055-1.325 0.681-3.282-0.785-4.132z"></path>
</symbol>
<symbol id="icon-resize" viewBox="0 0 32 32">
<title>resize</title>
<path class="path1" fill="#c7e9f4" d="M19.893 14.964l-2.857-2.857c-0.61-0.611-0.611-1.599 0-2.209l4.16-4.16-1.486-1.486c-0.898-0.899-0.404-2.44 0.851-2.646l9.623-1.585c0.496-0.081 1.003 0.082 1.359 0.437s0.518 0.863 0.437 1.359l-1.585 9.623c-0.207 1.254-1.747 1.75-2.646 0.851l-1.486-1.486-4.16 4.16c-0.609 0.609-1.6 0.609-2.209 0z"></path>
<path class="path2" fill="#c7e9f4" d="M1.563 32c-0.411 0-0.811-0.163-1.106-0.458-0.355-0.355-0.518-0.863-0.437-1.359l1.585-9.623c0.207-1.254 1.747-1.75 2.646-0.851l1.486 1.486 4.16-4.16c0.609-0.609 1.6-0.609 2.209 0l2.857 2.857c0.611 0.611 0.611 1.599-0 2.209l-4.16 4.16 1.486 1.486c0.898 0.899 0.404 2.44-0.851 2.646l-9.623 1.585c-0.084 0.014-0.169 0.021-0.253 0.021zM2.483 20.705v0z"></path>
<path class="path3" fill="#80d0e1" d="M30.394 11.439l1.585-9.623c0.082-0.496-0.082-1.004-0.437-1.359l-13.078 13.078 1.428 1.428c0.609 0.609 1.6 0.609 2.209 0l4.16-4.16 1.486 1.486c0.898 0.899 2.44 0.404 2.646-0.851z"></path>
<path class="path4" fill="#80d0e1" d="M12.29 27.748l-1.486-1.486 4.16-4.16c0.611-0.61 0.611-1.599 0-2.209l-1.428-1.428-13.078 13.078c0.295 0.295 0.695 0.457 1.106 0.457 0.084 0 0.169-0.007 0.253-0.021l9.623-1.585c1.254-0.207 1.75-1.747 0.851-2.646z"></path>
</symbol>
<symbol id="icon-right" viewBox="0 0 32 32">
<title>right</title>
<path class="path1" fill="#c7e9f4" d="M1.872 11.255h15.115v-3.338c0-1.523 1.725-2.409 2.963-1.521v0l11.27 8.082c1.040 0.746 1.040 2.296 0 3.042l-11.27 8.082c-1.237 0.887-2.963 0.002-2.963-1.521v-3.338h-15.115c-1.032-0-1.872-0.84-1.872-1.872v-5.745c0-1.032 0.84-1.872 1.872-1.872z"></path>
<path class="path2" fill="#80d0e1" d="M31.22 14.479l-11.27-8.082c-1.237-0.887-2.963-0.002-2.963 1.521v3.338h-0.986v9.489h0.986v3.338c0 1.523 1.725 2.409 2.963 1.521l11.27-8.082c1.040-0.746 1.040-2.296 0-3.042z"></path>
</symbol>
<symbol id="icon-save" viewBox="0 0 32 32">
<title>save</title>
<path class="path1" fill="#80d0e1" d="M31.111 32h-30.222c-0.491 0-0.889-0.398-0.889-0.889v-30.222c0-0.491 0.398-0.889 0.889-0.889h20.065c0.236 0 0.462 0.094 0.629 0.26l10.157 10.157c0.167 0.167 0.26 0.393 0.26 0.629v20.065c-0 0.491-0.398 0.889-0.889 0.889z"></path>
<path class="path2" fill="#51b3da" d="M31.74 10.418l-10.157-10.157c-0.167-0.167-0.393-0.26-0.628-0.26h-4.954v32h15.111c0.491 0 0.889-0.398 0.889-0.889v-20.065c0-0.236-0.094-0.462-0.26-0.629z"></path>
<path class="path3" fill="#c7e9f4" d="M24.774 16.597h-17.548c-0.491 0-0.889 0.398-0.889 0.889v14.514h19.326v-14.514c0-0.491-0.398-0.889-0.889-0.889z"></path>
<path class="path4" fill="#c7e9f4" d="M21.582 0.26c-0.167-0.167-0.393-0.26-0.628-0.26h-10.769v7.995c0 0.491 0.398 0.889 0.889 0.889h9.852c0.491 0 0.889-0.398 0.889-0.889v-7.501l-0.233-0.233z"></path>
<path class="path5" fill="#80d0e1" d="M25.663 17.486c0-0.491-0.398-0.889-0.889-0.889h-8.774v15.403h9.663v-14.514z"></path>
<path class="path6" fill="#80d0e1" d="M21.582 0.26c-0.167-0.167-0.393-0.26-0.628-0.26h-4.954v8.883h4.926c0.491 0 0.889-0.398 0.889-0.889v-7.501l-0.233-0.233z"></path>
</symbol>
<symbol id="icon-search" viewBox="0 0 32 32">
<title>search</title>
<path class="path1" fill="#51b3da" d="M30.773 30.773c-1.636 1.636-4.298 1.636-5.934 0l-8.054-8.054c-0.432-0.432-0.323-1.159 0.216-1.446 0.901-0.48 1.726-1.091 2.453-1.819s1.339-1.553 1.819-2.453c0.286-0.538 1.013-0.648 1.446-0.216l8.054 8.054c1.636 1.636 1.636 4.298 0 5.934z"></path>
<path class="path2" fill="#238cc5" d="M21.273 17.002c-0.48 0.901-1.091 1.726-1.819 2.453l11.318 11.318c1.636-1.636 1.636-4.298 0-5.934l-8.054-8.054c-0.432-0.432-1.16-0.322-1.446 0.216z"></path>
<path class="path3" fill="#80d0e1" d="M20.741 20.741c-4.739 4.739-12.449 4.739-17.187 0s-4.739-12.449 0-17.187c4.739-4.739 12.449-4.739 17.187 0s4.739 12.449 0 17.187z"></path>
<path class="path4" fill="#51b3da" d="M3.554 3.554l17.187 17.187c4.739-4.739 4.739-12.449 0-17.187s-12.449-4.739-17.187 0z"></path>
<path class="path5" fill="#c7e9f4" d="M17.838 17.838c-3.138 3.138-8.243 3.138-11.38 0s-3.138-8.243 0-11.38 8.243-3.137 11.38 0c3.138 3.138 3.138 8.243 0 11.38z"></path>
<path class="path6" fill="#80d0e1" d="M6.458 6.458l11.38 11.38c3.138-3.138 3.138-8.243 0-11.38s-8.243-3.138-11.38 0z"></path>
</symbol>
<symbol id="icon-settings" viewBox="0 0 32 32">
<title>settings</title>
<path class="path1" fill="#c7e9f4" d="M30.975 20.599l-3.333-2.324c0.292-1.5 0.292-3.048 0-4.549l3.333-2.324c0.341-0.238 0.443-0.696 0.235-1.056l-2.708-4.69c-0.208-0.36-0.656-0.501-1.032-0.324l-3.68 1.725c-1.153-1.004-2.498-1.781-3.938-2.276l-0.346-4.047c-0.035-0.414-0.382-0.732-0.797-0.732h-5.416c-0.415 0-0.762 0.318-0.797 0.732l-0.346 4.047c-1.441 0.495-2.785 1.272-3.938 2.276l-3.68-1.725c-0.376-0.176-0.825-0.035-1.032 0.324l-2.708 4.69c-0.208 0.36-0.106 0.819 0.235 1.056l3.333 2.324c-0.291 1.498-0.291 3.051 0 4.549l-3.333 2.324c-0.341 0.238-0.443 0.696-0.235 1.056l2.708 4.69c0.208 0.36 0.656 0.501 1.032 0.324l3.68-1.725c1.153 1.004 2.498 1.781 3.938 2.276l0.346 4.047c0.035 0.414 0.382 0.732 0.797 0.732h5.416c0.415 0 0.762-0.318 0.797-0.732l0.346-4.047c1.441-0.495 2.785-1.272 3.938-2.276l3.68 1.725c0.376 0.176 0.825 0.035 1.032-0.324l2.708-4.69c0.208-0.36 0.106-0.819-0.235-1.056zM16 21.073c-2.797 0-5.073-2.276-5.073-5.073s2.276-5.073 5.073-5.073 5.073 2.276 5.073 5.073-2.276 5.073-5.073 5.073z"></path>
<path class="path2" fill="#80d0e1" d="M30.975 20.599l-3.333-2.324c0.292-1.5 0.292-3.048 0-4.549l3.333-2.324c0.341-0.238 0.443-0.696 0.235-1.056l-2.708-4.69c-0.208-0.36-0.656-0.501-1.032-0.324l-3.68 1.725c-1.153-1.004-2.498-1.781-3.938-2.276l-0.346-4.047c-0.035-0.414-0.382-0.732-0.797-0.732h-2.708v10.927c2.797 0 5.073 2.276 5.073 5.073s-2.276 5.073-5.073 5.073v10.927h2.708c0.415 0 0.762-0.318 0.797-0.732l0.346-4.047c1.441-0.495 2.785-1.272 3.938-2.276l3.68 1.725c0.376 0.176 0.825 0.035 1.032-0.324l2.708-4.69c0.208-0.36 0.106-0.819-0.235-1.056z"></path>
</symbol>
<symbol id="icon-share" viewBox="0 0 32 32">
<title>share</title>
<path class="path1" fill="#80d0e1" d="M23.053 24.071l-14.696-5.827c-0.983-0.39-0.394-1.877 0.59-1.487l14.696 5.827c0.974 0.386 0.404 1.881-0.59 1.487z"></path>
<path class="path2" fill="#51b3da" d="M23.643 22.583l-7.643-3.030v1.721l7.053 2.797c0.991 0.393 1.565-1.101 0.59-1.487z"></path>
<path class="path3" fill="#80d0e1" d="M8.357 13.756l14.696-5.827c0.983-0.39 1.574 1.097 0.59 1.487l-14.696 5.827c-0.983 0.39-1.574-1.097-0.59-1.487z"></path>
<path class="path4" fill="#51b3da" d="M23.053 7.929l-7.053 2.797v1.721l7.643-3.030c0.982-0.39 0.394-1.878-0.59-1.487z"></path>
<path class="path5" fill="#c7e9f4" d="M4.869 20.869c-2.685 0-4.869-2.184-4.869-4.869s2.184-4.869 4.869-4.869 4.869 2.184 4.869 4.869-2.184 4.869-4.869 4.869z"></path>
<path class="path6" fill="#80d0e1" d="M27.131 29.696c-2.685 0-4.869-2.184-4.869-4.869s2.184-4.869 4.869-4.869 4.869 2.184 4.869 4.869c0 2.685-2.184 4.869-4.869 4.869z"></path>
<path class="path7" fill="#80d0e1" d="M27.131 12.043c-2.685 0-4.869-2.184-4.869-4.869s2.184-4.869 4.869-4.869 4.869 2.184 4.869 4.869c0 2.685-2.184 4.869-4.869 4.869z"></path>
</symbol>
<symbol id="icon-star" viewBox="0 0 32 32">
<title>star</title>
<path class="path1" fill="#c7e9f4" d="M5.508 28.995l2.687-8.883c0.031-0.102-0.005-0.213-0.090-0.277l-7.395-5.607c-1.35-1.023-0.648-3.174 1.042-3.208l9.278-0.189c0.106-0.002 0.201-0.071 0.236-0.171l3.047-8.766c0.253-0.729 0.915-1.199 1.687-1.199s1.433 0.471 1.687 1.199l3.047 8.766c0.035 0.1 0.13 0.169 0.236 0.171l9.278 0.189c1.694 0.034 2.39 2.187 1.042 3.208l-7.395 5.607c-0.085 0.064-0.121 0.176-0.090 0.277l2.687 8.883c0.49 1.621-1.341 2.949-2.729 1.983l-7.617-5.301c-0.087-0.061-0.204-0.061-0.292 0l-7.617 5.301c-1.388 0.965-3.219-0.363-2.729-1.983z"></path>
<path class="path2" fill="#80d0e1" d="M30.248 11.020l-9.278-0.189c-0.106-0.002-0.201-0.071-0.236-0.171l-3.047-8.766c-0.253-0.729-0.915-1.199-1.687-1.199-0 0-0 0-0 0l0 24.937c0.051 0 0.102 0.015 0.146 0.046l7.617 5.301c1.39 0.967 3.219-0.363 2.729-1.983l-2.687-8.883c-0.031-0.102 0.005-0.213 0.090-0.277l7.395-5.607c1.35-1.023 0.648-3.174-1.042-3.208z"></path>
</symbol>
<symbol id="icon-stop" viewBox="0 0 32 32">
<title>stop</title>
<path class="path1" fill="#c7e9f4" d="M27.733 32h-23.467c-2.353 0-4.267-1.914-4.267-4.267v-23.467c0-2.353 1.914-4.267 4.267-4.267h23.467c2.353 0 4.267 1.914 4.267 4.267v23.467c0 2.353-1.914 4.267-4.267 4.267z"></path>
<path class="path2" fill="#80d0e1" d="M27.733 0h-11.734v32h11.734c2.353 0 4.267-1.914 4.267-4.267v-23.467c0-2.353-1.914-4.267-4.267-4.267z"></path>
</symbol>
<symbol id="icon-stumbleupon" viewBox="0 0 32 32">
<title>stumbleupon</title>
<path class="path1" fill="#c7e9f4" d="M17.693 10.963c0-0.935-0.758-1.693-1.694-1.693s-1.694 0.758-1.694 1.693l-0.008 10.205c-0.054 3.866-3.17 6.992-7.037 7.049-3.993 0.059-7.261-3.283-7.261-7.277v-3.548c0-0.422 0.342-0.764 0.764-0.764h3.948c0.422 0 0.764 0.342 0.764 0.764v3.559c0 0.932 0.73 1.732 1.662 1.748 0.95 0.017 1.724-0.747 1.724-1.693v-10.332c0.137-3.83 3.276-6.894 7.139-6.894 3.877 0 7.023 3.086 7.139 6.936v1.692c0 0.338-0.222 0.635-0.545 0.732l-2.436 0.727c-0.179 0.053-0.372 0.039-0.541-0.040l-1.482-0.691c-0.269-0.125-0.441-0.395-0.441-0.692l-0-1.483z"></path>
<path class="path2" fill="#80d0e1" d="M18.135 13.138l1.482 0.691c0.169 0.079 0.362 0.093 0.541 0.040l2.436-0.727c0.323-0.097 0.545-0.394 0.545-0.732v-1.692c-0.116-3.85-3.261-6.936-7.139-6.936v5.489c0.935 0 1.694 0.758 1.694 1.693h0v1.483c0 0.297 0.172 0.567 0.441 0.692z"></path>
<path class="path3" fill="#80d0e1" d="M31.236 16.671h-3.948c-0.422 0-0.764 0.342-0.764 0.764v3.723c0 0.933-0.731 1.732-1.663 1.748-0.949 0.016-1.723-0.749-1.723-1.694v-3.47c0-0.511-0.492-0.878-0.982-0.732l-1.999 0.597c-0.179 0.053-0.372 0.039-0.541-0.040l-0.836-0.39c-0.506-0.236-1.086 0.134-1.086 0.692v3.26c0.033 3.883 3.163 7.029 7.039 7.089 3.996 0.062 7.267-3.281 7.267-7.278v-3.505c0-0.422-0.342-0.764-0.764-0.764z"></path>
</symbol>
<symbol id="icon-support" viewBox="0 0 32 32">
<title>support</title>
<path class="path1" fill="#51b3da" d="M29.685 31.397l-5.738-2.414c-5.249 0.463-9.8-2.725-10.042-6.91-0.027-0.468 0.334-0.869 0.803-0.89 4.509-0.205 8.746-2.366 10.621-5.834 0.193-0.357 0.614-0.526 1-0.401 6.475 2.094 7.613 8.995 2.338 12.445l2.021 2.726c0.513 0.692-0.223 1.606-1.003 1.278z"></path>
<path class="path2" fill="#c7e9f4" d="M2.002 25.437l3.558-4.8c-3.5-2.105-5.56-5.384-5.56-8.928 0-6.299 6.393-11.175 13.977-11.175 7.587 0 13.977 4.879 13.977 11.175 0 6.707-7.325 11.898-15.655 11.095l-9.294 3.91c-0.783 0.329-1.515-0.587-1.003-1.278z"></path>
<path class="path3" fill="#80d0e1" d="M13.977 0.534v22.353c7.577 0.016 13.977-4.906 13.977-11.178 0-6.299-6.393-11.175-13.977-11.175z"></path>
<path class="path4" fill="#80d0e1" d="M15.476 11.842c0 0.828-0.671 1.499-1.499 1.499s-1.499-0.671-1.499-1.499c0-0.828 0.671-1.499 1.499-1.499s1.499 0.671 1.499 1.499z"></path>
<path class="path5" fill="#80d0e1" d="M9.21 11.842c0 0.828-0.671 1.499-1.499 1.499s-1.499-0.671-1.499-1.499c0-0.828 0.671-1.499 1.499-1.499s1.499 0.671 1.499 1.499z"></path>
<path class="path6" fill="#238cc5" d="M13.977 10.342v2.998c0.828 0 1.499-0.671 1.499-1.499s-0.671-1.499-1.499-1.499z"></path>
<path class="path7" fill="#238cc5" d="M21.742 11.842c0 0.828-0.671 1.499-1.499 1.499s-1.499-0.671-1.499-1.499c0-0.828 0.671-1.499 1.499-1.499s1.499 0.671 1.499 1.499z"></path>
</symbol>
<symbol id="icon-tablet" viewBox="0 0 32 32">
<title>tablet</title>
<path class="path1" fill="#80d0e1" d="M29.57 27.9h-27.14c-1.34 0-2.43-1.090-2.43-2.43v-18.94c0-1.34 1.090-2.43 2.43-2.43h27.14c1.34 0 2.43 1.090 2.43 2.43v18.94c0 1.34-1.090 2.43-2.43 2.43z"></path>
<path class="path2" fill="#51b3da" d="M29.57 4.1h-13.57v23.8h13.57c1.34 0 2.43-1.090 2.43-2.43v-18.94c0-1.34-1.090-2.43-2.43-2.43z"></path>
<path class="path3" fill="#c7e9f4" d="M24.812 25.065h-21.167c-0.447 0-0.81-0.363-0.81-0.81v-16.51c0-0.447 0.363-0.81 0.81-0.81h21.167c0.447 0 0.81 0.363 0.81 0.81v16.51c0 0.447-0.363 0.81-0.81 0.81z"></path>
<path class="path4" fill="#80d0e1" d="M24.812 6.935h-8.812v18.13h8.812c0.447 0 0.81-0.363 0.81-0.81v-16.51c0-0.447-0.363-0.81-0.81-0.81z"></path>
<path class="path5" fill="#238cc5" d="M30.064 16c0 0.692-0.561 1.253-1.253 1.253s-1.253-0.561-1.253-1.253c0-0.692 0.561-1.253 1.253-1.253s1.253 0.561 1.253 1.253z"></path>
</symbol>
<symbol id="icon-tag" viewBox="0 0 32 32">
<title>tag</title>
<path class="path1" fill="#c7e9f4" d="M23.892 8.895l-7.281-8.612c-0.152-0.18-0.376-0.283-0.611-0.283s-0.459 0.104-0.611 0.283l-7.281 8.612c-0.122 0.144-0.189 0.327-0.189 0.517v21.788c0 0.442 0.358 0.8 0.8 0.8h14.563c0.442 0 0.8-0.358 0.8-0.8v-21.788c0-0.189-0.067-0.372-0.189-0.516zM16 14.917c-1.652 0-2.996-1.344-2.996-2.996s1.344-2.996 2.996-2.996 2.996 1.344 2.996 2.996c0 1.652-1.344 2.996-2.996 2.996z"></path>
<path class="path2" fill="#80d0e1" d="M23.892 8.895l-7.281-8.612c-0.152-0.18-0.376-0.283-0.611-0.283v8.926c1.652 0 2.996 1.344 2.996 2.996s-1.344 2.996-2.996 2.996v17.083h7.281c0.442 0 0.8-0.358 0.8-0.8v-21.788c0-0.189-0.067-0.372-0.189-0.516z"></path>
</symbol>
<symbol id="icon-thumb-down" viewBox="0 0 32 32">
<title>thumb-down</title>
<path class="path1" fill="#c7e9f4" d="M32 5.694v12.669c0 1.686-1.371 3.057-3.057 3.057h-3.768l0.732 5.492c0.532 3.992-5.076 5.604-6.712 1.881l-3.239-7.373h-4.283c-0.465 0-0.842-0.377-0.842-0.842v-17.098c0-0.465 0.377-0.842 0.842-0.842h17.27c1.686 0 3.057 1.371 3.057 3.057z"></path>
<path class="path2" fill="#80d0e1" d="M10.831 11.988v8.589c0 0.465 0.377 0.842 0.842 0.842h4.283l3.239 7.373c1.642 3.737 7.24 2.089 6.712-1.881l-0.732-5.492h3.768c1.686 0 3.057-1.371 3.057-3.057v-6.374h-21.169z"></path>
<path class="path3" fill="#80d0e1" d="M12.515 1.952v20.072c0 0.465-0.377 0.842-0.842 0.842h-10.831c-0.465 0-0.842-0.377-0.842-0.842v-20.072c0-0.465 0.377-0.842 0.842-0.842h10.831c0.465 0 0.842 0.377 0.842 0.842z"></path>
<path class="path4" fill="#51b3da" d="M8.114 7.318c0 1.025-0.831 1.856-1.856 1.856s-1.856-0.831-1.856-1.856c0-1.025 0.831-1.856 1.856-1.856s1.856 0.831 1.856 1.856z"></path>
<path class="path5" fill="#51b3da" d="M0 11.988v10.036c0 0.465 0.377 0.842 0.842 0.842h10.831c0.465 0 0.842-0.377 0.842-0.842v-10.036h-12.515z"></path>
</symbol>
<symbol id="icon-thumb-up" viewBox="0 0 32 32">
<title>thumb-up</title>
<path class="path1" fill="#c7e9f4" d="M28.943 29.361h-17.27c-0.465 0-0.842-0.377-0.842-0.842v-17.098c0-0.465 0.377-0.842 0.842-0.842h4.283l3.239-7.373c1.622-3.692 7.249-2.153 6.712 1.881l-0.732 5.492h3.768c1.686 0 3.057 1.371 3.057 3.057v12.669c0 1.686-1.371 3.057-3.057 3.057z"></path>
<path class="path2" fill="#80d0e1" d="M10.831 20.010v8.509c0 0.465 0.377 0.842 0.842 0.842h17.27c1.686 0 3.057-1.371 3.057-3.057v-6.294h-21.169z"></path>
<path class="path3" fill="#80d0e1" d="M11.673 30.889h-10.831c-0.465 0-0.842-0.377-0.842-0.842v-20.072c0-0.465 0.377-0.842 0.842-0.842h10.831c0.465 0 0.842 0.377 0.842 0.842v20.072c0 0.465-0.377 0.842-0.842 0.842z"></path>
<path class="path4" fill="#51b3da" d="M0 20.010v10.036c0 0.465 0.377 0.842 0.842 0.842h10.831c0.465 0 0.842-0.377 0.842-0.842v-10.036h-12.515z"></path>
<path class="path5" fill="#238cc5" d="M8.114 24.681c0 1.025-0.831 1.856-1.856 1.856s-1.856-0.831-1.856-1.856c0-1.025 0.831-1.856 1.856-1.856s1.856 0.831 1.856 1.856z"></path>
</symbol>
<symbol id="icon-time" viewBox="0 0 32 32">
<title>time</title>
<path class="path1" fill="#c7e9f4" d="M16 32c-8.822 0-16-7.178-16-16s7.178-16 16-16c8.822 0 16 7.178 16 16s-7.178 16-16 16z"></path>
<path class="path2" fill="#80d0e1" d="M16 0v32c8.822 0 16-7.178 16-16s-7.178-16-16-16z"></path>
<path class="path3" fill="#80d0e1" d="M16 16.842h-5.704c-0.465 0-0.842-0.377-0.842-0.842s0.377-0.842 0.842-0.842h4.861v-8.226c0-0.465 0.377-0.842 0.842-0.842s0.842 0.377 0.842 0.842v9.068c0 0.465-0.377 0.842-0.842 0.842z"></path>
<path class="path4" fill="#51b3da" d="M16 6.090v10.752c0.465 0 0.842-0.377 0.842-0.842v-9.068c0-0.465-0.377-0.842-0.842-0.842z"></path>
</symbol>
<symbol id="icon-trash" viewBox="0 0 32 32">
<title>trash</title>
<path class="path1" fill="#c7e9f4" d="M24.19 32h-16.379c-1.323 0-2.4-1.077-2.4-2.4v-20.608c0-0.442 0.358-0.8 0.8-0.8h19.579c0.442 0 0.8 0.358 0.8 0.8v20.608c0 1.323-1.077 2.4-2.4 2.4z"></path>
<path class="path2" fill="#80d0e1" d="M25.79 8.192h-9.79v23.808h8.19c1.323 0 2.4-1.077 2.4-2.4v-20.608c0-0.442-0.358-0.8-0.8-0.8z"></path>
<path class="path3" fill="#51b3da" d="M20.070 5.696h-8.14c-0.442 0-0.8-0.358-0.8-0.8v-4.096c0-0.442 0.358-0.8 0.8-0.8h8.14c0.442 0 0.8 0.358 0.8 0.8v4.096c0 0.442-0.358 0.8-0.8 0.8zM12.73 4.096h6.54v-2.496h-6.54v2.496z"></path>
<path class="path4" fill="#238cc5" d="M20.070 0h-4.070v1.6h3.27v2.496h-3.27v1.6h4.070c0.442 0 0.8-0.358 0.8-0.8v-4.096c0-0.442-0.358-0.8-0.8-0.8z"></path>
<path class="path5" fill="#80d0e1" d="M28.473 9.792h-24.947c-0.442 0-0.8-0.358-0.8-0.8v-2.496c0-1.323 1.077-2.4 2.4-2.4h21.747c1.323 0 2.4 1.077 2.4 2.4v2.496c0 0.442-0.358 0.8-0.8 0.8z"></path>
<path class="path6" fill="#80d0e1" d="M16 26.998c-0.442 0-0.8-0.358-0.8-0.8v-12.205c0-0.442 0.358-0.8 0.8-0.8s0.8 0.358 0.8 0.8v12.205c0 0.442-0.358 0.8-0.8 0.8z"></path>
<path class="path7" fill="#80d0e1" d="M11.2 26.998c-0.442 0-0.8-0.358-0.8-0.8v-12.205c0-0.442 0.358-0.8 0.8-0.8s0.8 0.358 0.8 0.8v12.205c0 0.442-0.358 0.8-0.8 0.8z"></path>
<path class="path8" fill="#51b3da" d="M26.873 4.096h-10.873v5.696h12.473c0.442 0 0.8-0.358 0.8-0.8v-2.496c0-1.323-1.077-2.4-2.4-2.4z"></path>
<path class="path9" fill="#51b3da" d="M16 13.193v13.805c0.442 0 0.8-0.358 0.8-0.8v-12.205c0-0.442-0.358-0.8-0.8-0.8z"></path>
<path class="path10" fill="#51b3da" d="M20.8 26.998c-0.442 0-0.8-0.358-0.8-0.8v-12.205c0-0.442 0.358-0.8 0.8-0.8s0.8 0.358 0.8 0.8v12.205c0 0.442-0.358 0.8-0.8 0.8z"></path>
</symbol>
<symbol id="icon-twitter" viewBox="0 0 32 32">
<title>twitter</title>
<path class="path1" fill="#c7e9f4" d="M15.607 10.746c-6.583-0.833-9.396-3.027-12.66-6.334-0.472-0.479-1.294-0.261-1.453 0.392-0.61 2.496-0.482 4.859 1.465 6.942 0.925 1.025 0.717 1.171-0.879 0.561-0.555-0.195-1.040-0.342-1.087-0.268-0.164 0.173 0.181 4.377 4 6.391l1.133 0.561-1.341 0.024c-1.295 0-1.341 0.024-1.202 0.537 0.828 2.838 4.237 3.97 5.757 4.513-1.215 0.76-3.606 2.5-7.445 2.586-1.041 0.024-1.896 0.122-1.896 0.195 0 0.306 9.87 6.357 19.63 0.342 4.978-3.074 9.272-10.112 9.272-16.784 0-1.122 0.069-1.269 1.364-2.61 0.763-0.781 1.48-1.634 1.619-1.878 0.231-0.464 0.208-0.464-0.971-0.049-1.965 0.732-2.243 0.634-1.272-0.464 0.717-0.781 1.572-2.196 1.572-2.61 0-0.073-0.347 0.049-0.74 0.268-0.416 0.244-1.341 0.61-2.035 0.829l-1.249 0.415c-0.748-0.531-2.136-1.574-3.098-1.878-4.596-1.331-8.867 2.476-8.555 7.123-0.116-1.723-0.031-0.529 0.069 1.195z"></path>
<path class="path2" fill="#80d0e1" d="M30.914 5.867c-1.965 0.732-2.243 0.634-1.272-0.464 0.717-0.781 1.572-2.195 1.572-2.61 0-0.073-0.347 0.049-0.74 0.268-0.416 0.244-1.341 0.61-2.035 0.829l-1.249 0.415c-0.748-0.531-2.136-1.574-3.098-1.878-3.539-1.025-6.884 0.998-8.093 4.104v22.376c1.199-0.409 2.416-0.971 3.63-1.72 4.978-3.074 9.272-10.112 9.272-16.784 0-1.122 0.069-1.269 1.364-2.61 0.763-0.781 1.48-1.634 1.619-1.878 0.231-0.463 0.208-0.463-0.971-0.049z"></path>
</symbol>
<symbol id="icon-unlock" viewBox="0 0 32 32">
<title>unlock</title>
<path class="path1" fill="#80d0e1" d="M8.682 16.8c-0.442 0-0.8-0.358-0.8-0.8v-7.882c0-4.476 3.642-8.118 8.118-8.118s8.118 3.642 8.118 8.118c0 0.442-0.358 0.8-0.8 0.8s-0.8-0.358-0.8-0.8c0-3.594-2.924-6.518-6.518-6.518s-6.518 2.924-6.518 6.518v7.882c0 0.442-0.358 0.8-0.8 0.8z"></path>
<path class="path2" fill="#c7e9f4" d="M25.942 32h-19.884c-0.442 0-0.8-0.358-0.8-0.8v-15.2c0-0.442 0.358-0.8 0.8-0.8h19.884c0.442 0 0.8 0.358 0.8 0.8v15.2c0 0.442-0.358 0.8-0.8 0.8z"></path>
<path class="path3" fill="#80d0e1" d="M25.942 15.2h-9.942v16.8h9.942c0.442 0 0.8-0.358 0.8-0.8v-15.2c0-0.442-0.358-0.8-0.8-0.8z"></path>
<path class="path4" fill="#80d0e1" d="M16 27.149c-1.957 0-3.549-1.592-3.549-3.549s1.592-3.549 3.549-3.549 3.549 1.592 3.549 3.549c0 1.957-1.592 3.549-3.549 3.549z"></path>
<path class="path5" fill="#51b3da" d="M16 0v1.6c3.594 0 6.518 2.924 6.518 6.518 0 0.442 0.358 0.8 0.8 0.8s0.8-0.358 0.8-0.8c0-4.476-3.642-8.118-8.118-8.118z"></path>
<path class="path6" fill="#51b3da" d="M16 20.051v7.099c1.957 0 3.549-1.592 3.549-3.549s-1.592-3.549-3.549-3.549z"></path>
</symbol>
<symbol id="icon-up" viewBox="0 0 32 32">
<title>up</title>
<path class="path1" fill="#c7e9f4" d="M18.873 32h-5.745c-1.032 0-1.872-0.84-1.872-1.872v-15.115h-3.338c-1.523 0-2.409-1.725-1.521-2.963l8.082-11.27c0.351-0.489 0.919-0.781 1.521-0.781s1.17 0.292 1.521 0.781l8.082 11.27c0.887 1.237 0.002 2.963-1.521 2.963h-3.338v15.115c0 1.032-0.84 1.872-1.872 1.872z"></path>
<path class="path2" fill="#80d0e1" d="M25.603 12.051l-8.082-11.27c-0.351-0.489-0.919-0.781-1.521-0.781-0 0-0 0-0 0v32h2.873c1.032 0 1.872-0.84 1.872-1.872v-15.115h3.338c1.522 0 2.409-1.725 1.521-2.963z"></path>
</symbol>
<symbol id="icon-upload" viewBox="0 0 32 32">
<title>upload</title>
<path class="path1" fill="#c7e9f4" d="M32 16c0 8.822-7.178 16-16 16s-16-7.178-16-16 7.178-16 16-16 16 7.178 16 16z"></path>
<path class="path2" fill="#80d0e1" d="M16 32v-32c8.822 0 16 7.178 16 16s-7.178 16-16 16z"></path>
<path class="path3" fill="#80d0e1" d="M17.187 7.907l5.484 5.448c1.065 1.058 0.314 2.879-1.187 2.879h-1.274v6.664c0 0.929-0.756 1.684-1.684 1.684h-5.053c-0.929 0-1.684-0.756-1.684-1.684v-6.664h-1.274c-1.5 0-2.252-1.821-1.187-2.879l5.485-5.449c0.327-0.325 0.757-0.488 1.187-0.487s0.86 0.163 1.187 0.488z"></path>
<path class="path4" fill="#51b3da" d="M21.484 16.234h-1.274v6.664c0 0.929-0.756 1.684-1.684 1.684h-2.526v-17.163c0.43 0 0.86 0.163 1.187 0.488l5.484 5.448c1.065 1.058 0.314 2.879-1.187 2.879z"></path>
</symbol>
<symbol id="icon-url" viewBox="0 0 32 32">
<title>url</title>
<path class="path1" fill="#c7e9f4" d="M16.76 15.24c-0 0-0 0 0 0-2.361-2.361-2.361-6.204 0-8.565l4.9-4.9c2.361-2.361 6.204-2.361 8.565 0 2.367 2.367 2.367 6.198 0 8.565l-4.9 4.9c-2.361 2.361-6.204 2.361-8.565 0zM18.017 13.983c1.668 1.668 4.383 1.668 6.051 0l4.9-4.9c1.672-1.672 1.672-4.379 0-6.051-1.668-1.668-4.383-1.668-6.051 0l-4.9 4.9c-1.668 1.668-1.668 4.383 0 6.051v0z"></path>
<path class="path2" fill="#c7e9f4" d="M1.775 30.225v0c-2.367-2.367-2.367-6.198-0-8.565l4.9-4.9c2.361-2.361 6.204-2.361 8.565 0s2.361 6.204 0 8.565l-4.9 4.9c-2.361 2.361-6.204 2.361-8.565 0zM3.032 28.968c1.668 1.668 4.383 1.668 6.051 0l4.9-4.9c1.668-1.668 1.668-4.383-0-6.051s-4.383-1.668-6.051 0l-4.9 4.9c-1.672 1.672-1.672 4.379 0 6.051z"></path>
<path class="path3" fill="#80d0e1" d="M10.757 21.243c-0.347-0.347-0.347-0.91 0-1.257l9.23-9.23c0.347-0.347 0.91-0.347 1.257 0s0.347 0.91 0 1.257l-9.23 9.23c-0.347 0.347-0.91 0.347-1.257 0z"></path>
<path class="path4" fill="#80d0e1" d="M18.017 13.983v0z"></path>
<path class="path5" fill="#80d0e1" d="M30.225 10.34c2.367-2.367 2.367-6.198 0-8.565l-1.257 1.257c1.672 1.672 1.672 4.379 0 6.051l-4.9 4.9c-1.668 1.668-4.383 1.668-6.051 0l-1.257 1.257c0 0 0 0 0 0 2.361 2.361 6.203 2.361 8.565 0l4.9-4.9z"></path>
<path class="path6" fill="#80d0e1" d="M15.24 16.76l-1.257 1.257c1.668 1.668 1.668 4.383 0 6.051l-4.9 4.9c-1.668 1.668-4.383 1.668-6.051 0l-1.257 1.257c2.361 2.361 6.203 2.361 8.565 0l4.9-4.9c2.361-2.361 2.361-6.203-0-8.565z"></path>
<path class="path7" fill="#51b3da" d="M21.243 10.757l-10.487 10.487c0.347 0.347 0.91 0.347 1.257 0l9.23-9.23c0.347-0.347 0.347-0.91 0-1.257z"></path>
</symbol>
<symbol id="icon-user" viewBox="0 0 32 32">
<title>user</title>
<path class="path1" fill="#c7e9f4" d="M16 15.477c-4.267 0-7.739-3.472-7.739-7.739s3.472-7.739 7.739-7.739 7.739 3.472 7.739 7.739-3.472 7.739-7.739 7.739z"></path>
<path class="path2" fill="#c7e9f4" d="M26.174 32h-20.349c-0.442 0-0.8-0.358-0.8-0.8v-3.251c0-6.051 4.923-10.974 10.974-10.974s10.974 4.923 10.974 10.974v3.251c0 0.442-0.358 0.8-0.8 0.8z"></path>
<path class="path3" fill="#80d0e1" d="M16 0v15.477c4.267 0 7.739-3.472 7.739-7.739s-3.472-7.739-7.739-7.739z"></path>
<path class="path4" fill="#80d0e1" d="M16 16.975v15.025h10.174c0.442 0 0.8-0.358 0.8-0.8v-3.251c0-6.051-4.923-10.974-10.974-10.974z"></path>
</symbol>
<symbol id="icon-visa" viewBox="0 0 32 32">
<title>visa</title>
<path class="path1" fill="#c7e9f4" d="M13.275 11.539l-1.906 8.78c-0.087 0.403 0.219 0.783 0.631 0.783h1.325c0.306 0 0.569-0.214 0.632-0.513l1.848-8.78c0.085-0.402-0.222-0.779-0.632-0.779h-1.267c-0.304 0-0.567 0.212-0.631 0.509z"></path>
<path class="path2" fill="#c7e9f4" d="M6.826 17.855l-1.127-5.832c-0.133-0.663-0.663-0.994-1.193-0.994h-4.44l-0.066 0.265c0.928 0.199 1.922 0.53 2.584 0.861 0.398 0.199 0.464 0.398 0.596 0.861l1.93 7.533c0.073 0.286 0.331 0.486 0.626 0.486h1.853c0.26 0 0.495-0.156 0.596-0.395l3.697-8.78c0.179-0.426-0.133-0.897-0.595-0.897h-1.279c-0.265 0-0.502 0.161-0.6 0.407l-2.581 6.485z"></path>
<path class="path3" fill="#c7e9f4" d="M19.416 13.813c0-0.331 0.331-0.729 1.127-0.861 0.32-0.053 1.027-0.064 1.914 0.211 0.364 0.113 0.748-0.104 0.83-0.476l0.178-0.813c0.073-0.336-0.129-0.668-0.46-0.761-0.524-0.148-1.162-0.281-1.866-0.281-2.584 0-4.374 1.392-4.374 3.313 0 1.458 1.325 2.253 2.253 2.717 2.236 1.044 1.282 2.253-0.265 2.253-0.86 0-1.469-0.139-1.953-0.328-0.372-0.145-0.785 0.076-0.868 0.467l-0.177 0.834c-0.070 0.329 0.123 0.658 0.446 0.753 0.622 0.183 1.469 0.328 2.352 0.328 2.717 0 4.506-1.325 4.506-3.446-0-2.518-3.711-2.717-3.645-3.91z"></path>
<path class="path4" fill="#80d0e1" d="M23.005 11.112c-0.524-0.148-1.162-0.281-1.866-0.281-2.584 0-4.374 1.392-4.374 3.313 0 1.458 1.325 2.253 2.253 2.717 2.236 1.044 1.282 2.253-0.265 2.253-0.86 0-1.469-0.139-1.953-0.328-0.27-0.105-0.56-0.017-0.731 0.187v1.809c0.042 0.023 0.085 0.044 0.133 0.058 0.622 0.183 1.469 0.328 2.352 0.328 2.717 0 4.506-1.325 4.506-3.446 0-2.518-3.711-2.717-3.645-3.91 0-0.331 0.331-0.729 1.127-0.861 0.32-0.053 1.027-0.064 1.914 0.211 0.364 0.113 0.748-0.104 0.83-0.476l0.178-0.813c0.073-0.336-0.129-0.668-0.46-0.761z"></path>
<path class="path5" fill="#80d0e1" d="M30.255 11.551c-0.060-0.303-0.325-0.521-0.634-0.521h-1.722c-0.53 0-0.928 0.265-1.127 0.729l-3.535 8.448c-0.178 0.426 0.135 0.896 0.596 0.896h1.287c0.275 0 0.52-0.174 0.61-0.434l0.379-1.090h3.313l0.221 1.015c0.065 0.297 0.327 0.509 0.631 0.509h1.079c0.407 0 0.713-0.372 0.634-0.771l-1.733-8.781zM27.099 17.176l0.953-2.587c0.090-0.243 0.442-0.218 0.495 0.036l0.545 2.587c0.034 0.161-0.089 0.312-0.253 0.312h-1.498c-0.18-0-0.305-0.179-0.242-0.348z"></path>
</symbol>
<symbol id="icon-warning" viewBox="0 0 32 32">
<title>warning</title>
<path class="path1" fill="#c7e9f4" d="M27.523 30.449h-23.047c-3.441 0-5.592-3.723-3.871-6.704l11.523-19.959c0.808-1.399 2.255-2.235 3.871-2.235s3.063 0.835 3.871 2.235v0l11.523 19.959c1.721 2.98-0.428 6.704-3.871 6.704z"></path>
<path class="path2" fill="#80d0e1" d="M31.394 23.745l-11.523-19.959c-0.808-1.399-2.255-2.235-3.871-2.235v28.898h11.523c3.441 0 5.592-3.723 3.871-6.704z"></path>
<path class="path3" fill="#80d0e1" d="M17.55 23.413c0 0.82-0.7 1.54-1.52 1.54-0.88 0-1.54-0.72-1.54-1.54 0-0.84 0.66-1.54 1.54-1.54 0.82 0 1.52 0.7 1.52 1.54zM17.17 19.614c0 0.62-0.68 0.88-1.16 0.88-0.64 0-1.18-0.26-1.18-0.88 0-2.38-0.28-5.799-0.28-8.179 0-0.78 0.64-1.22 1.46-1.22 0.78 0 1.44 0.44 1.44 1.22 0 2.38-0.28 5.799-0.28 8.179z"></path>
<path class="path4" fill="#51b3da" d="M16.030 21.873c-0.010 0-0.020 0.001-0.030 0.002v3.077c0.010 0 0.020 0.002 0.030 0.002 0.82 0 1.52-0.72 1.52-1.54 0-0.84-0.7-1.54-1.52-1.54z"></path>
<path class="path5" fill="#51b3da" d="M17.17 19.614c0-2.38 0.28-5.799 0.28-8.179 0-0.78-0.66-1.22-1.44-1.22-0.003 0-0.007 0-0.010 0v10.278c0.003 0 0.007 0 0.010 0 0.48 0 1.16-0.26 1.16-0.88z"></path>
</symbol>
<symbol id="icon-youtube" viewBox="0 0 32 32">
<title>youtube</title>
<path class="path1" fill="#c7e9f4" d="M31.421 8.448c-0.39-1.699-1.78-2.952-3.453-3.139-5.514-0.616-18.346-0.623-23.927 0-1.673 0.186-3.062 1.44-3.453 3.139-0.786 3.425-0.78 11.738-0.006 15.104 0.39 1.699 1.78 2.952 3.453 3.139 5.514 0.616 18.346 0.623 23.927 0 1.673-0.187 3.062-1.44 3.453-3.139 0.774-3.368 0.784-11.723 0.006-15.104zM12.889 18.836v-5.672c0-1.008 1.092-1.639 1.965-1.134l4.912 2.836c0.873 0.504 0.873 1.765 0 2.269l-4.912 2.836c-0.873 0.504-1.965-0.126-1.965-1.134z"></path>
<path class="path2" fill="#80d0e1" d="M31.421 8.448c-0.39-1.699-1.78-2.952-3.453-3.139-2.763-0.309-7.363-0.465-11.968-0.465v7.847l3.766 2.174c0.873 0.504 0.873 1.765 0 2.269l-3.766 2.174v7.847c4.586 0 9.177-0.154 11.962-0.465 1.673-0.187 3.062-1.44 3.453-3.139 0.774-3.368 0.784-11.723 0.006-15.104z"></path>
</symbol>
<symbol id="icon-zoom-in" viewBox="0 0 32 32">
<title>zoom-in</title>
<path class="path1" fill="#51b3da" d="M30.773 30.773c-1.636 1.636-4.298 1.636-5.934 0l-8.054-8.054c-0.432-0.432-0.323-1.159 0.216-1.446 0.901-0.48 1.726-1.091 2.453-1.819s1.339-1.553 1.819-2.453c0.286-0.538 1.013-0.648 1.446-0.216l8.054 8.054c1.636 1.636 1.636 4.298 0 5.934z"></path>
<path class="path2" fill="#238cc5" d="M21.273 17.002c-0.48 0.901-1.091 1.726-1.819 2.453l11.318 11.318c1.636-1.636 1.636-4.298 0-5.934l-8.054-8.054c-0.432-0.432-1.16-0.322-1.446 0.216z"></path>
<path class="path3" fill="#80d0e1" d="M20.741 20.741c-4.739 4.739-12.449 4.739-17.187 0s-4.739-12.449 0-17.187c4.739-4.739 12.449-4.739 17.187 0s4.739 12.449 0 17.187z"></path>
<path class="path4" fill="#51b3da" d="M3.554 3.554l17.187 17.187c4.739-4.739 4.739-12.449 0-17.187s-12.449-4.739-17.187 0z"></path>
<path class="path5" fill="#c7e9f4" d="M17.838 17.838c-3.138 3.138-8.243 3.138-11.38 0s-3.138-8.243 0-11.38 8.243-3.137 11.38 0c3.138 3.138 3.138 8.243 0 11.38z"></path>
<path class="path6" fill="#80d0e1" d="M6.458 6.458l11.38 11.38c3.138-3.138 3.138-8.243 0-11.38s-8.243-3.138-11.38 0z"></path>
<path class="path7" fill="#80d0e1" d="M15.237 11.238h-2.18v-2.179c0-0.502-0.407-0.91-0.91-0.91s-0.91 0.407-0.91 0.91v2.179h-2.179c-0.502 0-0.91 0.407-0.91 0.91s0.407 0.91 0.91 0.91h2.179v2.18c0 0.502 0.407 0.91 0.91 0.91s0.91-0.407 0.91-0.91v-2.18h2.18c0.502 0 0.91-0.407 0.91-0.91s-0.407-0.91-0.91-0.91z"></path>
<path class="path8" fill="#51b3da" d="M13.057 11.238v-2.179c0-0.502-0.407-0.91-0.91-0.91s-0.91 0.407-0.91 0.91v2.179h-0l1.82 1.819h2.179c0.502 0 0.91-0.407 0.91-0.91s-0.407-0.91-0.91-0.91h-2.179z"></path>
</symbol>
<symbol id="icon-zoom-out" viewBox="0 0 32 32">
<title>zoom-out</title>
<path class="path1" fill="#51b3da" d="M30.773 30.773c-1.636 1.636-4.298 1.636-5.934 0l-8.054-8.054c-0.432-0.432-0.323-1.159 0.216-1.446 0.901-0.48 1.726-1.091 2.453-1.819s1.339-1.553 1.819-2.453c0.286-0.538 1.013-0.648 1.446-0.216l8.054 8.054c1.636 1.636 1.636 4.298 0 5.934z"></path>
<path class="path2" fill="#238cc5" d="M21.273 17.002c-0.48 0.901-1.091 1.726-1.819 2.453l11.318 11.318c1.636-1.636 1.636-4.298 0-5.934l-8.054-8.054c-0.432-0.432-1.16-0.322-1.446 0.216z"></path>
<path class="path3" fill="#80d0e1" d="M20.741 20.741c-4.739 4.739-12.449 4.739-17.187 0s-4.739-12.449 0-17.187c4.739-4.739 12.449-4.739 17.187 0s4.739 12.449 0 17.187z"></path>
<path class="path4" fill="#51b3da" d="M3.554 3.554l17.187 17.187c4.739-4.739 4.739-12.449 0-17.187s-12.449-4.739-17.187 0z"></path>
<path class="path5" fill="#c7e9f4" d="M17.838 17.838c-3.138 3.138-8.243 3.138-11.38 0s-3.138-8.243 0-11.38 8.243-3.137 11.38 0c3.138 3.138 3.138 8.243 0 11.38z"></path>
<path class="path6" fill="#80d0e1" d="M6.458 6.458l11.38 11.38c3.138-3.138 3.138-8.243 0-11.38s-8.243-3.138-11.38 0z"></path>
<path class="path7" fill="#80d0e1" d="M15.239 13.057h-6.178c-0.502 0-0.91-0.407-0.91-0.91s0.407-0.91 0.91-0.91h6.178c0.502 0 0.91 0.407 0.91 0.91s-0.407 0.91-0.91 0.91z"></path>
<path class="path8" fill="#51b3da" d="M15.239 11.238h-3.999l1.819 1.819h2.18c0.502 0 0.91-0.407 0.91-0.91s-0.407-0.91-0.91-0.91z"></path>
</symbol>
</defs>
</svg>
