<svg style="position: absolute; width: 0; height: 0;" width="0" height="0" version="1.1" xmlns="http://www.w3.org/2000/svg" xmlns:xlink="http://www.w3.org/1999/xlink">
  <defs>
    <symbol id="icon-profile" viewBox="0 0 32 32">
      <title>profile</title>
      <path class="path1" d="M23.42 7.42c0 4.098-3.322 7.42-7.42 7.42s-7.42-3.322-7.42-7.42c0-4.098 3.322-7.42 7.42-7.42s7.42 3.322 7.42 7.42z"></path>
      <path class="path2" d="M16 18.551c-7.428 0-13.449 6.021-13.449 13.449h26.899c0-7.428-6.021-13.449-13.449-13.449z"></path>
    </symbol>
    <symbol id="icon-search" viewBox="0 0 32 32">
      <title>search</title>
      <path class="path1" d="M32 30.588l-8.508-8.508c2.018-2.342 3.239-5.388 3.239-8.714-0-7.37-5.996-13.366-13.366-13.366s-13.366 5.996-13.366 13.366 5.996 13.366 13.366 13.366c3.326 0 6.372-1.222 8.714-3.239l8.508 8.508 1.412-1.412zM1.997 13.366c0-6.269 5.1-11.368 11.368-11.368s11.368 5.1 11.368 11.368-5.1 11.368-11.368 11.368-11.368-5.1-11.368-11.368z"></path>
    </symbol>
    <symbol id="icon-settings" viewBox="0 0 32 32">
      <title>settings</title>
      <path class="path1" d="M30.247 12.837h-1.696c-0.315-1.229-0.807-2.381-1.449-3.434l1.22-1.222c0.329-0.329 0.51-0.768 0.51-1.235s-0.182-0.906-0.51-1.234l-2.032-2.030c-0.659-0.66-1.811-0.659-2.468-0.001l-1.271 1.263c-1.041-0.607-2.158-1.075-3.388-1.375v-1.815c0-0.963-0.769-1.754-1.732-1.754h-2.873c-0.963 0-1.72 0.791-1.72 1.754v1.815c-1.229 0.3-2.353 0.768-3.395 1.376l-1.27-1.263c-0.658-0.66-1.811-0.659-2.472-0.001l-2.031 2.030c-0.326 0.325-0.512 0.775-0.512 1.234 0 0.466 0.18 0.904 0.51 1.233l1.219 1.225c-0.641 1.053-1.134 2.204-1.449 3.434h-1.697c-0.963 0-1.741 0.774-1.741 1.735v2.871c0 0.963 0.777 1.72 1.741 1.72h1.697c0.315 1.229 0.807 2.387 1.447 3.441l-1.22 1.227c-0.33 0.329-0.511 0.77-0.511 1.236s0.182 0.907 0.511 1.236l2.032 2.032c0.33 0.329 0.768 0.51 1.233 0.51s0.904-0.182 1.234-0.51l1.276-1.264c1.043 0.608 2.166 1.075 3.395 1.377v1.813c0 0.963 0.757 1.739 1.72 1.739h2.873c0.963 0 1.732-0.776 1.732-1.739v-1.813c1.23-0.301 2.346-0.768 3.389-1.376l1.265 1.261c0.33 0.331 0.768 0.512 1.235 0.512s0.906-0.182 1.235-0.51l2.032-2.030c0.329-0.329 0.51-0.768 0.511-1.233 0-0.466-0.182-0.904-0.511-1.234l-1.218-1.232c0.64-1.054 1.133-2.213 1.448-3.441h1.697c0.963 0 1.754-0.757 1.754-1.72v-2.871c0.001-0.961-0.79-1.735-1.753-1.735zM15.993 21.473c-3.047 0-5.518-2.448-5.518-5.465 0-3.020 2.471-5.464 5.518-5.464s5.52 2.445 5.52 5.464c-0.001 3.018-2.472 5.465-5.52 5.465z"></path>
    </symbol>
    <symbol id="icon-collections" viewBox="0 0 32 32">
      <title>collections</title>
      <path class="path1" d="M14.401 7.652c-0.296 0-0.563-0.176-0.68-0.448l-0.97-2.264c-0.561-1.309-1.848-2.157-3.272-2.157h-5.919c-1.966 0-3.56 1.594-3.56 3.56v22.875h32v-21.565h-17.599z"></path>
    </symbol>
    <symbol id="icon-account" viewBox="0 0 32 32">
      <title>account</title>
      <path class="path1" d="M16 0.001c-8.836 0-16 7.163-16 15.999s7.164 15.999 16 15.999c8.837 0 16-7.163 16-15.999s-7.163-15.999-16-15.999zM16 4.785c2.924 0 5.293 2.37 5.293 5.292s-2.369 5.292-5.293 5.292c-2.922 0-5.291-2.369-5.291-5.292s2.369-5.292 5.291-5.292zM15.996 27.816c-2.916 0-5.587-1.062-7.646-2.82-0.502-0.428-0.791-1.056-0.791-1.714 0-2.964 2.399-5.336 5.363-5.336h6.158c2.965 0 5.355 2.372 5.355 5.336 0 0.659-0.288 1.285-0.791 1.713-2.059 1.758-4.731 2.82-7.647 2.82z"></path>
    </symbol>
    <symbol id="icon-apps" viewBox="0 0 32 32">
      <title>apps</title>
      <path class="path1" d="M24.126 0h7.874v7.874h-7.874v-7.874z"></path>
      <path class="path2" d="M24.126 12.062h7.874v7.874h-7.874v-7.874z"></path>
      <path class="path3" d="M24.126 24.126h7.874v7.874h-7.874v-7.874z"></path>
      <path class="path4" d="M12.062 0h7.874v7.874h-7.874v-7.874z"></path>
      <path class="path5" d="M12.062 12.062h7.874v7.874h-7.874v-7.874z"></path>
      <path class="path6" d="M12.062 24.126h7.874v7.874h-7.874v-7.874z"></path>
      <path class="path7" d="M0 0h7.874v7.874h-7.874v-7.874z"></path>
      <path class="path8" d="M0 12.062h7.874v7.874h-7.874v-7.874z"></path>
      <path class="path9" d="M0 24.126h7.874v7.874h-7.874v-7.874z"></path>
    </symbol>
    <symbol id="icon-tags" viewBox="0 0 32 32">
      <title>tags</title>
      <path class="path1" d="M15.568 1.857c-0.517-0.517-1.211-0.956-2.081-1.316s-1.667-0.541-2.388-0.541h-8.488c-0.707 0-1.32 0.259-1.836 0.775s-0.775 1.129-0.775 1.836v8.488c0 0.721 0.18 1.516 0.541 2.387s0.799 1.557 1.316 2.061l16.434 16.452 13.709-13.718-16.432-16.425zM8.376 8.376c-0.51 0.51-1.126 0.765-1.847 0.765s-1.336-0.255-1.846-0.765c-0.51-0.51-0.765-1.125-0.765-1.846s0.255-1.337 0.765-1.846c0.51-0.51 1.126-0.765 1.846-0.765s1.337 0.255 1.847 0.765c0.51 0.51 0.765 1.125 0.765 1.846s-0.255 1.336-0.765 1.846z"></path>
    </symbol>
    <symbol id="icon-sources" viewBox="0 0 32 32">
      <title>sources</title>
      <path class="path1" d="M9.316 27.337c0-2.552-2.075-4.627-4.626-4.627s-4.627 2.076-4.627 4.627c0 2.551 2.076 4.627 4.627 4.627s4.626-2.075 4.626-4.627z"></path>
      <path class="path2" d="M0.583 17.49c3.712 0 7.203 1.452 9.83 4.088 2.627 2.641 4.074 6.157 4.074 9.901 0 0.285 0.231 0.516 0.516 0.516h5.934c0.285 0 0.516-0.231 0.516-0.516 0-11.556-9.362-20.958-20.871-20.958-0.285 0-0.516 0.231-0.516 0.516v5.936c0 0.285 0.231 0.516 0.516 0.516z"></path>
      <path class="path3" d="M0.591 0c-0.285 0-0.516 0.231-0.516 0.516v5.935c0 0.285 0.231 0.516 0.516 0.516 13.444 0 24.382 10.998 24.382 24.517 0 0.285 0.231 0.516 0.516 0.516h5.933c0.285 0 0.516-0.231 0.516-0.516 0-17.36-14.062-31.484-31.347-31.484z"></path>
    </symbol>
    <symbol id="icon-bin" viewBox="0 0 32 32">
      <title>bin</title>
      <path class="path1" d="M5.786 32h20.428v-21.101h-20.428v21.101z"></path>
      <path class="path2" d="M25.826 2.307h-6.202c-0.637-1.39-2.019-2.307-3.622-2.307s-2.984 0.917-3.623 2.307h-6.202c-1.228 0-2.243 0.985-2.243 2.213v4.484h24.133v-4.484c0-1.229-1.013-2.213-2.241-2.213z"></path>
    </symbol>
    <symbol id="icon-document" viewBox="0 0 32 32">
      <title>document</title>
      <path class="path1" d="M27.333 8.019h-7.539v-7.539c0-0.256-0.207-0.463-0.463-0.463h-14.719c-0.256 0-0.463 0.207-0.463 0.463v31.056c0 0.256 0.207 0.463 0.463 0.463h22.721c0.256 0 0.463-0.207 0.463-0.463v-23.054c0-0.256-0.207-0.463-0.463-0.463zM22.054 26.246c0 0.339-0.275 0.615-0.615 0.615h-10.932c-0.339 0-0.615-0.275-0.615-0.615v-1.268c0-0.34 0.275-0.615 0.615-0.615h10.932c0.34 0 0.615 0.275 0.615 0.615v1.268zM22.054 20.832c0 0.339-0.275 0.615-0.615 0.615h-10.932c-0.339 0-0.615-0.275-0.615-0.615v-1.268c0-0.34 0.275-0.615 0.615-0.615h10.932c0.34 0 0.615 0.275 0.615 0.615v1.268zM22.054 15.418c0 0.339-0.275 0.615-0.615 0.615h-10.932c-0.339 0-0.615-0.275-0.615-0.615v-1.268c0-0.339 0.275-0.615 0.615-0.615h10.932c0.34 0 0.615 0.275 0.615 0.615v1.268z"></path>
      <path class="path2" d="M22.914 0.114c-0.112-0.112-0.28-0.145-0.426-0.085s-0.241 0.203-0.241 0.361v4.822c0 0.216 0.175 0.391 0.391 0.391h4.822c0.158 0 0.3-0.095 0.361-0.241s0.027-0.314-0.085-0.426l-4.822-4.822z"></path>
    </symbol>
    <symbol id="icon-square" viewBox="0 0 32 32">
      <title>square</title>
      <path class="path1" d="M25.438 6.857v18.581h-18.581v-18.581h18.581zM32.295 0h-32.295v32.295h32.295v-32.295z"></path>
    </symbol>
    <symbol id="icon-triangle" viewBox="0 0 32 32">
      <title>triangle</title>
      <path class="path1" d="M16.069 15.163l5.061 9.979h-10.121l5.061-9.979zM16.069 0l-16.226 32h32.453l-16.226-32z"></path>
    </symbol>
    <symbol id="icon-circle" viewBox="0 0 32 32">
      <title>circle</title>
      <path class="path1" d="M16.146 6.857c5.122 0 9.289 4.167 9.289 9.289s-4.167 9.289-9.289 9.289-9.289-4.165-9.289-9.289 4.167-9.289 9.289-9.289zM16.146 0c-8.917 0-16.146 7.23-16.146 16.146 0 8.919 7.23 16.146 16.146 16.146s16.146-7.23 16.146-16.146c0.002-8.917-7.227-16.146-16.146-16.146v0z"></path>
    </symbol>
  </defs>
</svg>
