<svg style="position: absolute; width: 0; height: 0; overflow: hidden;" version="1.1" xmlns="http://www.w3.org/2000/svg" xmlns:xlink="http://www.w3.org/1999/xlink">
<defs>
<symbol id="icon-american-express" viewBox="0 0 32 32">
<title>american-express</title>
<path class="path1" d="M14.788 12.325l-1.767 4.77c-0.044 0.12-0.213 0.12-0.258 0l-1.767-4.77c-0.1-0.27-0.357-0.449-0.645-0.449h-1.721c-0.38 0-0.687 0.308-0.687 0.687v6.377c0 0.153-0.213 0.192-0.266 0.048l-2.454-6.662c-0.1-0.27-0.357-0.45-0.645-0.45h-1.312c-0.286 0-0.543 0.178-0.643 0.446l-2.577 6.873c-0.168 0.449 0.164 0.929 0.643 0.929h0.369c0.296 0 0.558-0.189 0.652-0.47l0.462-1.386h3.505l0.462 1.386c0.094 0.281 0.356 0.47 0.652 0.47h2.322c0.38 0 0.687-0.308 0.687-0.687v-4.724c0-0.154 0.214-0.192 0.267-0.047l1.836 5.008c0.099 0.271 0.357 0.451 0.645 0.451h0.695c0.286 0 0.541-0.177 0.643-0.444l1.834-4.835c0.054-0.143 0.266-0.104 0.266 0.049v4.542c0 0.38 0.308 0.687 0.687 0.687h0.275c0.38 0 0.687-0.308 0.687-0.687v-6.873c0-0.38-0.308-0.687-0.687-0.687h-1.515c-0.287 0-0.545 0.179-0.645 0.449zM2.855 16.229l0.836-2.341c0.043-0.122 0.215-0.122 0.259 0l0.836 2.341c0.032 0.090-0.034 0.184-0.129 0.184h-1.672c-0.095 0-0.161-0.094-0.129-0.184zM29.655 15.918l2.206-2.942c0.34-0.453 0.017-1.1-0.55-1.1h-0.572c-0.204 0-0.397 0.091-0.528 0.247l-1.856 2.227-1.445-2.168c-0.127-0.191-0.342-0.306-0.572-0.306h-5.749c-0.38 0-0.687 0.308-0.687 0.687v6.873c0 0.38 0.308 0.687 0.687 0.687h5.572c0.213 0 0.415-0.099 0.545-0.268l1.856-2.412 1.856 2.412c0.13 0.169 0.331 0.268 0.545 0.268h0.349c0.566 0 0.89-0.647 0.55-1.1l-2.206-2.942c-0.037-0.049-0.037-0.116 0-0.165zM25.401 18.474h-3.711c-0.076 0-0.137-0.062-0.137-0.137v-1.375c0-0.076 0.062-0.137 0.137-0.137h2.887c0.38 0 0.687-0.308 0.687-0.687v-0.275c0-0.38-0.308-0.687-0.687-0.687h-2.887c-0.076 0-0.137-0.062-0.137-0.137v-1.168c0-0.076 0.062-0.137 0.137-0.137h3.916c0.044 0 0.085 0.021 0.111 0.057l1.549 2.129c0.035 0.049 0.035 0.115-0.001 0.163l-1.754 2.338c-0.026 0.035-0.067 0.055-0.11 0.055z"></path>
</symbol>
<symbol id="icon-behance" viewBox="0 0 32 32">
<title>behance</title>
<path class="path1" d="M9.276 5.938c2.362 0 4.812 0.459 5.837 2.562 0.581 1.191 0.707 3.415-0.225 4.797-0.45 0.66-1.118 1.203-2.010 1.622 1.211 0.349 2.111 0.963 2.701 1.832 1.153 1.691 1.125 4.206 0.318 5.736-1.205 2.266-3.825 3.144-6.365 3.144h-8.816c-0.395 0-0.716-0.321-0.716-0.716v-18.261c0-0.395 0.321-0.716 0.716-0.716h8.56zM8.717 13.887c1.536 0 2.647-0.666 2.647-2.344 0-1.722-1.267-2.267-2.981-2.267h-3.336c-0.395 0-0.716 0.321-0.716 0.716v3.171c0 0.395 0.321 0.716 0.716 0.716h3.67v0.008zM8.958 22.27c1.857 0 3.163-0.667 3.205-2.509 0.036-1.605-1.297-2.909-2.903-2.909h-4.205c-0.395 0-0.716 0.321-0.716 0.716v3.986c0 0.395 0.321 0.716 0.716 0.716h3.902zM28.725 21.199h1.941c0.528 0 0.878 0.554 0.645 1.028-3.083 6.284-13.551 4.707-13.551-3.722 0-4.407 3.084-7.545 7.304-7.545 4.718 0 7.226 3.924 6.908 8.469h-10.285c0 4.696 5.267 4.221 6.433 2.138 0.124-0.222 0.35-0.368 0.604-0.368zM22.544 16.968h4.649c0.477 0 0.827-0.46 0.688-0.916-0.943-3.099-5.077-2.702-6.016-0.029-0.162 0.462 0.19 0.945 0.679 0.945zM20.888 7.974v0.508c0 0.395 0.321 0.716 0.716 0.716h6.548c0.395 0 0.716-0.321 0.716-0.716v-0.508c0-0.395-0.321-0.716-0.716-0.716h-6.548c-0.395 0-0.716 0.321-0.716 0.716z"></path>
</symbol>
<symbol id="icon-calendar" viewBox="0 0 32 32">
<title>calendar</title>
<path class="path1" d="M31.6 13.268h-31.2c-0.221 0-0.4 0.179-0.4 0.4v13.578c0 1.454 1.178 2.632 2.632 2.632h26.736c1.453 0 2.632-1.178 2.632-2.632v-13.578c0-0.221-0.179-0.4-0.4-0.4zM7.001 26.199c-0.898 0-1.626-0.728-1.626-1.626s0.728-1.626 1.626-1.626 1.626 0.728 1.626 1.626c0 0.898-0.728 1.626-1.626 1.626zM7.001 20.199c-0.898 0-1.626-0.728-1.626-1.626s0.728-1.626 1.626-1.626 1.626 0.728 1.626 1.626-0.728 1.626-1.626 1.626zM13 26.199c-0.898 0-1.626-0.728-1.626-1.626s0.728-1.626 1.626-1.626 1.626 0.728 1.626 1.626c0 0.898-0.728 1.626-1.626 1.626zM13 20.199c-0.898 0-1.626-0.728-1.626-1.626s0.728-1.626 1.626-1.626 1.626 0.728 1.626 1.626-0.728 1.626-1.626 1.626zM19 26.199c-0.898 0-1.626-0.728-1.626-1.626s0.728-1.626 1.626-1.626 1.626 0.728 1.626 1.626c0 0.898-0.728 1.626-1.626 1.626zM19 20.199c-0.898 0-1.626-0.728-1.626-1.626s0.728-1.626 1.626-1.626 1.626 0.728 1.626 1.626-0.728 1.626-1.626 1.626zM24.999 26.199c-0.898 0-1.626-0.728-1.626-1.626s0.728-1.626 1.626-1.626 1.626 0.728 1.626 1.626c0 0.898-0.728 1.626-1.626 1.626zM24.999 20.199c-0.898 0-1.626-0.728-1.626-1.626s0.728-1.626 1.626-1.626 1.626 0.728 1.626 1.626-0.728 1.626-1.626 1.626z"></path>
<path class="path2" d="M29.368 4.742h-5.258v-1.82c0-0.442-0.358-0.8-0.8-0.8s-0.8 0.358-0.8 0.8v1.82h-13.020v-1.82c0-0.442-0.358-0.8-0.8-0.8s-0.8 0.358-0.8 0.8v1.82h-5.258c-1.453 0-2.632 1.178-2.632 2.632v3.894c0 0.221 0.179 0.4 0.4 0.4h31.2c0.221 0 0.4-0.179 0.4-0.4v-3.894c0-1.454-1.178-2.632-2.632-2.632z"></path>
</symbol>
<symbol id="icon-check" viewBox="0 0 32 32">
<title>check</title>
<path class="path1" d="M26.28 3.563c0.583-0.583 1.531-0.583 2.113 0l3.17 3.17c0.583 0.583 0.583 1.531 0 2.113l-19.59 19.59c-0.583 0.583-1.531 0.583-2.113 0l-9.422-9.422c-0.584-0.584-0.584-1.529 0-2.113l3.17-3.17c0.583-0.583 1.531-0.583 2.113-0l5.195 5.195 15.363-15.363z"></path>
</symbol>
<symbol id="icon-cloud" viewBox="0 0 32 32">
<title>cloud</title>
<path class="path1" d="M26.032 26.047h-20.063c-3.291 0-5.968-2.677-5.968-5.968 0-2.814 1.972-5.227 4.67-5.825 0.424-4.614 4.302-8.301 9.111-8.301 2.353 0 4.569 0.881 6.273 2.489 3.466-0.108 6.345 2.437 6.803 5.727 2.898 0.4 5.143 2.886 5.143 5.911 0 3.291-2.677 5.968-5.968 5.968z"></path>
</symbol>
<symbol id="icon-comment" viewBox="0 0 32 32">
<title>comment</title>
<path class="path1" d="M27.544 3.663h-23.088c-2.457 0-4.456 1.999-4.456 4.456v10.409c0 2.457 1.999 4.456 4.456 4.456h1.648v4.589c0 0.589 0.641 0.954 1.147 0.657l8.956-5.247h11.337c2.457 0 4.456-1.999 4.456-4.456v-10.409c0-2.457-1.999-4.456-4.456-4.456zM9.584 14.677c-0.747 0-1.353-0.606-1.353-1.353s0.606-1.353 1.353-1.353c0.747 0 1.353 0.606 1.353 1.353s-0.606 1.353-1.353 1.353zM16 14.677c-0.747 0-1.353-0.606-1.353-1.353s0.606-1.353 1.353-1.353 1.353 0.606 1.353 1.353c0 0.747-0.606 1.353-1.353 1.353zM22.416 14.677c-0.747 0-1.353-0.606-1.353-1.353s0.606-1.353 1.353-1.353c0.747 0 1.353 0.606 1.353 1.353s-0.606 1.353-1.353 1.353z"></path>
</symbol>
<symbol id="icon-cross" viewBox="0 0 32 32">
<title>cross</title>
<path class="path1" d="M25.347 31.491l-9.347-9.347-9.347 9.347c-0.679 0.679-1.778 0.679-2.458-0l-3.686-3.686c-0.679-0.679-0.679-1.778 0-2.458l9.347-9.347-9.347-9.347c-0.679-0.679-0.679-1.778 0-2.458l3.686-3.686c0.679-0.679 1.778-0.679 2.458 0l9.347 9.347 9.347-9.347c0.679-0.679 1.778-0.679 2.458 0l3.686 3.686c0.679 0.679 0.679 1.778 0 2.458l-9.347 9.347 9.347 9.347c0.679 0.679 0.679 1.778 0 2.458l-3.686 3.686c-0.679 0.679-1.778 0.679-2.458 0z"></path>
</symbol>
<symbol id="icon-disabled" viewBox="0 0 32 32">
<title>disabled</title>
<path class="path1" d="M16 0c-8.822 0-16 7.178-16 16s7.178 16 16 16 16-7.178 16-16c0-8.822-7.178-16-16-16zM6.165 10.185c0.148-0.25 0.492-0.295 0.698-0.089l15.041 15.041c0.206 0.206 0.161 0.549-0.089 0.698-10.078 5.983-21.667-5.514-15.65-15.65zM25.137 21.904l-15.041-15.041c-0.206-0.206-0.161-0.55 0.089-0.698 10.078-5.982 21.667 5.514 15.65 15.65-0.148 0.25-0.492 0.295-0.698 0.089z"></path>
</symbol>
<symbol id="icon-down" viewBox="0 0 32 32">
<title>down</title>
<path class="path1" d="M14.479 31.22l-8.082-11.27c-0.887-1.237-0.002-2.963 1.521-2.963h3.338v-15.115c0-1.032 0.84-1.872 1.872-1.872h5.745c1.032 0 1.872 0.84 1.872 1.872v15.115h3.338c1.523 0 2.409 1.725 1.521 2.963l-8.082 11.27c-0.745 1.040-2.296 1.040-3.042 0z"></path>
</symbol>
<symbol id="icon-download" viewBox="0 0 32 32">
<title>download</title>
<path class="path1" d="M16 0c-8.822 0-16 7.178-16 16s7.178 16 16 16 16-7.178 16-16-7.178-16-16-16zM22.672 18.645l-5.484 5.448c-0.654 0.65-1.719 0.65-2.374 0l-5.485-5.448c-1.064-1.057-0.314-2.879 1.187-2.879h1.274v-6.664c0-0.929 0.756-1.684 1.684-1.684h5.053c0.929 0 1.684 0.756 1.684 1.684v6.664h1.274c1.5 0 2.252 1.821 1.187 2.879z"></path>
</symbol>
<symbol id="icon-dribbble" viewBox="0 0 32 32">
<title>dribbble</title>
<path class="path1" d="M17.536 15.456c-0.285-0.626-0.587-1.251-0.899-1.87-0.102-0.203-0.335-0.301-0.553-0.238-7 2.027-13.735 2.172-15.614 2.169-0.26-0-0.471 0.21-0.472 0.47-0.004 3.776 1.317 7.358 3.684 10.206 0.206 0.248 0.592 0.222 0.764-0.050 2.608-4.129 7.444-8.363 12.8-10.041 0.272-0.085 0.406-0.387 0.288-0.646z"></path>
<path class="path2" d="M8.84 1.708c-4.122 2.070-7.231 5.866-8.368 10.433-0.074 0.298 0.157 0.585 0.464 0.582 4.321-0.053 9.19-0.675 13.603-1.789 0.303-0.077 0.45-0.421 0.294-0.692-2.261-3.944-4.6-7.276-5.397-8.387-0.136-0.189-0.388-0.25-0.595-0.146z"></path>
<path class="path3" d="M26.278 3.746c-3.735-3.127-8.617-4.348-13.3-3.445-0.339 0.065-0.497 0.459-0.295 0.738 0.967 1.339 3.228 4.579 5.349 8.417 0.115 0.208 0.366 0.298 0.587 0.211 4.579-1.801 6.935-4.293 7.723-5.262 0.163-0.2 0.134-0.494-0.064-0.659z"></path>
<path class="path4" d="M18.408 18.748c-7.842 2.84-11.204 8.017-12.034 9.502-0.116 0.208-0.059 0.469 0.133 0.61 4.604 3.403 10.46 3.964 15.398 2.005 0.209-0.083 0.331-0.301 0.291-0.522-0.311-1.722-1.221-6.113-3.186-11.32-0.234-0.107-0.368-0.168-0.602-0.275z"></path>
<path class="path5" d="M22.038 18.396c1.635 4.603 2.465 8.45 2.785 10.133 0.065 0.343 0.466 0.497 0.746 0.289 3.157-2.355 5.418-5.843 6.173-9.856 0.045-0.242-0.1-0.478-0.337-0.543-1.252-0.346-4.867-1.181-8.986-0.646-0.296 0.038-0.48 0.343-0.38 0.624z"></path>
<path class="path6" d="M19.677 12.639c0.397 0.83 0.724 1.569 1.056 2.368 0.081 0.194 0.281 0.31 0.489 0.286 4.38-0.488 8.665 0.162 10.222 0.445 0.297 0.054 0.569-0.18 0.555-0.481-0.154-3.332-1.333-6.401-3.229-8.898-0.181-0.238-0.537-0.247-0.731-0.019-0.917 1.075-3.468 3.67-8.123 5.664-0.246 0.105-0.355 0.394-0.24 0.635z"></path>
</symbol>
<symbol id="icon-envelope" viewBox="0 0 32 32">
<title>envelope</title>
<path class="path1" d="M31.14 26.099c0.194 0.185 0.512 0.116 0.616-0.131 0.16-0.38 0.243-0.792 0.243-1.217v-17.5c0-0.435-0.087-0.855-0.253-1.241-0.106-0.246-0.422-0.314-0.616-0.129l-10.286 9.844c-0.157 0.15-0.157 0.401 0 0.551l10.295 9.824z"></path>
<path class="path2" d="M15.158 17.42c0.473 0.447 1.213 0.447 1.685 0 3.245-3.067 13.18-12.589 13.119-12.53 0.208-0.199 0.129-0.55-0.144-0.638-0.308-0.099-0.633-0.151-0.965-0.151h-25.703c-0.337 0-0.666 0.053-0.978 0.155-0.273 0.089-0.351 0.439-0.143 0.638 12.718 12.153 10.432 9.975 13.13 12.525z"></path>
<path class="path3" d="M19.713 17.3c-0.147-0.14-0.377-0.14-0.525-0.001l-1.299 1.228c-1.053 0.996-2.713 1.008-3.779-0l-1.298-1.227c-0.147-0.139-0.378-0.139-0.525 0.002l-10.256 9.805c-0.208 0.199-0.13 0.549 0.144 0.638 0.311 0.101 0.638 0.154 0.973 0.154h25.703c0.341 0 0.675-0.055 0.99-0.159 0.273-0.090 0.35-0.439 0.142-0.638l-10.271-9.801z"></path>
<path class="path4" d="M0.864 5.891c-0.194-0.185-0.511-0.117-0.616 0.13-0.163 0.383-0.248 0.799-0.248 1.229v17.5c0 0.432 0.086 0.849 0.25 1.233 0.105 0.247 0.422 0.315 0.616 0.13l10.289-9.838c0.157-0.15 0.157-0.401-0-0.551l-10.291-9.834z"></path>
</symbol>
<symbol id="icon-error" viewBox="0 0 32 32">
<title>error</title>
<path class="path1" d="M16 0c-8.822 0-16 7.178-16 16s7.178 16 16 16 16-7.178 16-16-7.178-16-16-16zM22.671 21.48c0.329 0.329 0.329 0.862 0 1.191s-0.862 0.329-1.191 0l-5.48-5.48-5.48 5.48c-0.329 0.329-0.862 0.329-1.191 0s-0.329-0.862 0-1.191l5.48-5.48-5.48-5.48c-0.329-0.329-0.329-0.862 0-1.191s0.862-0.329 1.191 0l5.48 5.48 5.48-5.48c0.329-0.329 0.862-0.329 1.191 0s0.329 0.862 0 1.191l-5.48 5.48 5.48 5.48z"></path>
</symbol>
<symbol id="icon-exclamation" viewBox="0 0 32 32">
<title>exclamation</title>
<path class="path1" d="M16 0c-8.822 0-16 7.178-16 16s7.178 16 16 16 16-7.178 16-16-7.178-16-16-16zM16.011 8.242c0.821 0 1.516 0.463 1.516 1.284 0 2.505-0.295 6.105-0.295 8.611 0 0.653-0.716 0.926-1.221 0.926-0.674 0-1.242-0.274-1.242-0.926 0-2.505-0.295-6.105-0.295-8.611 0-0.821 0.674-1.284 1.537-1.284zM16.032 23.758c-0.926 0-1.621-0.758-1.621-1.621 0-0.884 0.695-1.621 1.621-1.621 0.863 0 1.6 0.737 1.6 1.621 0 0.863-0.737 1.621-1.6 1.621z"></path>
</symbol>
<symbol id="icon-facebook" viewBox="0 0 32 32">
<title>facebook</title>
<path class="path1" d="M18.656 31.273v-15.275h4.084c0.37 0 0.681-0.278 0.723-0.645l0.462-4.060c0.049-0.431-0.288-0.809-0.723-0.809h-4.546l0.008-2.76c0-1.438 0.146-2.209 2.36-2.209h2.232c0.402 0 0.727-0.326 0.727-0.727v-4.060c0-0.402-0.326-0.727-0.727-0.727h-4.007c-5.686 0-7.688 2.675-7.688 7.174v3.311h-2.817c-0.402 0-0.727 0.326-0.727 0.727v4.060c0 0.402 0.326 0.727 0.727 0.727h2.817v15.274c0 0.402 0.326 0.727 0.727 0.727h5.64c0.402 0 0.727-0.326 0.727-0.727z"></path>
</symbol>
<symbol id="icon-file" viewBox="0 0 32 32">
<title>file</title>
<path class="path1" d="M20.080 1.434v5.906c0 0.221 0.179 0.4 0.4 0.4h5.906c0.356 0 0.535-0.431 0.283-0.683l-5.906-5.906c-0.252-0.252-0.683-0.073-0.683 0.283z"></path>
<path class="path2" d="M19.28 9.34c-0.442 0-0.8-0.358-0.8-0.8v-8.14c0-0.221-0.179-0.4-0.4-0.4h-13.1c-0.442 0-0.8 0.358-0.8 0.8v30.4c0 0.442 0.358 0.8 0.8 0.8h22.040c0.442 0 0.8-0.358 0.8-0.8v-21.46c0-0.221-0.179-0.4-0.4-0.4h-8.14z"></path>
</symbol>
<symbol id="icon-filter" viewBox="0 0 32 32">
<title>filter</title>
<path class="path1" d="M29.814 4.388v-2.58c0-0.998-0.809-1.808-1.808-1.808h-24.012c-0.998 0-1.808 0.809-1.808 1.808v2.58c0 0.25 0.202 0.452 0.452 0.452h26.724c0.25 0 0.452-0.202 0.452-0.452z"></path>
<path class="path2" d="M2.638 6.648c-0.25 0-0.452 0.202-0.452 0.452v0.634c0 0.624 0.315 1.196 0.843 1.529l7.653 4.83v16.052c0 1.393 1.402 2.254 2.601 1.669l7.020-3.426c0.617-0.301 1.015-0.939 1.015-1.625v-12.67l7.654-4.831c0.528-0.333 0.843-0.905 0.843-1.529v-0.634c0-0.25-0.202-0.452-0.452-0.452h-26.724z"></path>
</symbol>
<symbol id="icon-folder" viewBox="0 0 32 32">
<title>folder</title>
<path class="path1" d="M5.462 14.773l-3.969 12.333c-0.080 0.249 0.105 0.503 0.367 0.503h25.505c0.335 0 0.631-0.216 0.733-0.534l3.883-12.065c0.080-0.249-0.105-0.503-0.367-0.503h-25.786c-0.167-0-0.315 0.108-0.367 0.267z"></path>
<path class="path2" d="M4.254 13.499c0.102-0.318 0.399-0.534 0.733-0.534h22.763c0.213 0 0.385-0.172 0.385-0.385v-3.962c0-0.425-0.345-0.77-0.77-0.77h-16.765v-2.685c0-0.425-0.345-0.77-0.77-0.77h-9.060c-0.425 0-0.77 0.345-0.77 0.77v19.102c0 0.439 0.617 0.536 0.752 0.118l3.502-10.882z"></path>
</symbol>
<symbol id="icon-globe" viewBox="0 0 32 32">
<title>globe</title>
<path class="path1" d="M11.981 23.966c-0.274 0-0.477 0.258-0.41 0.524 1.052 4.171 2.8 6.716 4.429 6.716s3.377-2.545 4.429-6.716c0.067-0.266-0.136-0.524-0.41-0.524h-8.038z"></path>
<path class="path2" d="M22.625 8.034h6.556c0.333 0 0.536-0.369 0.357-0.65-2.184-3.419-5.627-5.96-9.67-6.963-0.389-0.097-0.685 0.354-0.436 0.669 1.415 1.797 2.286 4.443 2.782 6.617 0.044 0.192 0.215 0.327 0.411 0.327z"></path>
<path class="path3" d="M20.534 9.724h-9.067c-0.207 0-0.384 0.15-0.417 0.354-0.226 1.425-0.376 2.98-0.427 4.64-0.007 0.239 0.183 0.438 0.422 0.438h9.911c0.239 0 0.43-0.198 0.422-0.438-0.051-1.661-0.201-3.215-0.427-4.64-0.033-0.204-0.21-0.354-0.417-0.354z"></path>
<path class="path4" d="M20.955 16.845h-9.911c-0.239 0-0.43 0.198-0.422 0.438 0.051 1.661 0.201 3.215 0.427 4.64 0.032 0.204 0.21 0.354 0.417 0.354h9.067c0.207 0 0.384-0.15 0.417-0.354 0.226-1.425 0.376-2.98 0.427-4.64 0.007-0.239-0.183-0.438-0.422-0.438z"></path>
<path class="path5" d="M23.096 22.277h7.395c0.171 0 0.326-0.102 0.39-0.26 0.599-1.476 0.984-3.060 1.118-4.714 0.020-0.246-0.175-0.457-0.422-0.457h-8.087c-0.229 0-0.415 0.183-0.422 0.412-0.046 1.567-0.178 3.091-0.39 4.537-0.037 0.255 0.16 0.482 0.418 0.482z"></path>
<path class="path6" d="M22.678 10.206c0.212 1.446 0.344 2.971 0.39 4.537 0.007 0.229 0.193 0.412 0.422 0.412h8.087c0.247 0 0.442-0.211 0.422-0.457-0.133-1.654-0.519-3.239-1.118-4.714-0.064-0.158-0.22-0.26-0.39-0.26h-7.395c-0.257 0-0.455 0.228-0.418 0.483z"></path>
<path class="path7" d="M9.375 23.966h-6.556c-0.333 0-0.536 0.369-0.357 0.65 2.184 3.419 5.627 5.96 9.67 6.963 0.389 0.097 0.685-0.354 0.436-0.669-1.415-1.796-2.285-4.44-2.782-6.617-0.044-0.192-0.214-0.327-0.411-0.327z"></path>
<path class="path8" d="M20.019 8.034c0.274 0 0.477-0.258 0.41-0.524-1.052-4.171-2.799-6.716-4.429-6.716s-3.377 2.545-4.429 6.716c-0.067 0.266 0.136 0.524 0.41 0.524h8.038z"></path>
<path class="path9" d="M1.119 9.984c-0.599 1.476-0.984 3.060-1.118 4.714-0.020 0.246 0.175 0.457 0.422 0.457h8.086c0.229 0 0.415-0.183 0.422-0.412 0.046-1.567 0.178-3.091 0.39-4.537 0.037-0.255-0.16-0.482-0.418-0.482h-7.395c-0.171-0-0.326 0.102-0.39 0.26z"></path>
<path class="path10" d="M22.213 24.293c-0.497 2.175-1.367 4.821-2.782 6.617-0.248 0.315 0.047 0.766 0.436 0.669 4.043-1.004 7.486-3.544 9.67-6.963 0.179-0.281-0.023-0.65-0.357-0.65h-6.556c-0.197 0-0.367 0.135-0.411 0.327z"></path>
<path class="path11" d="M9.787 7.707c0.497-2.175 1.367-4.821 2.782-6.617 0.248-0.315-0.047-0.766-0.436-0.669-4.043 1.004-7.486 3.544-9.67 6.963-0.179 0.281 0.023 0.65 0.357 0.65h6.556c0.197 0 0.367-0.135 0.411-0.327z"></path>
<path class="path12" d="M8.51 16.845h-8.086c-0.247 0-0.442 0.211-0.422 0.457 0.133 1.654 0.519 3.239 1.118 4.714 0.064 0.158 0.22 0.26 0.39 0.26h7.395c0.257 0 0.455-0.228 0.418-0.482-0.212-1.446-0.344-2.971-0.39-4.537-0.007-0.229-0.193-0.412-0.422-0.412z"></path>
</symbol>
<symbol id="icon-google" viewBox="0 0 32 32">
<title>google+</title>
<path class="path1" d="M10.716 26.524c-5.908 0-10.716-4.72-10.716-10.524s4.807-10.524 10.716-10.524c2.342 0 4.611 0.753 6.466 2.133 0.311 0.231 0.36 0.678 0.103 0.968l-1.857 2.096c-0.223 0.251-0.598 0.294-0.872 0.099-1.113-0.789-2.455-1.218-3.84-1.218-3.62 0-6.565 2.892-6.565 6.447s2.945 6.447 6.565 6.447c3.063 0 5.067-1.467 5.719-4.1h-5.010c-0.363 0-0.658-0.294-0.658-0.658v-2.761c0-0.363 0.294-0.658 0.658-0.658h8.734c0.363 0 0.658 0.294 0.658 0.658v1.381c0 6.109-4.059 10.215-10.1 10.215z"></path>
<path class="path2" d="M31.342 14.272h-2.449v-2.449c0-0.363-0.294-0.658-0.658-0.658h-1.17c-0.363 0-0.658 0.294-0.658 0.658v2.449h-2.449c-0.363 0-0.658 0.294-0.658 0.658v1.17c0 0.363 0.294 0.658 0.658 0.658h2.449v2.449c0 0.363 0.294 0.658 0.658 0.658h1.17c0.363 0 0.658-0.294 0.658-0.658v-2.449h2.449c0.363 0 0.658-0.294 0.658-0.658v-1.17c-0-0.363-0.295-0.658-0.658-0.658z"></path>
</symbol>
<symbol id="icon-heart" viewBox="0 0 32 32">
<title>heart</title>
<path class="path1" d="M15.479 29.717l-12.951-12.951c-5.422-5.422-1.53-14.697 6.088-14.697 0 0-0 0 0 0 3.983 0 5.957 2.391 7.382 3.816 1.398-1.398 3.376-3.816 7.382-3.816 7.594 0 11.534 9.25 6.088 14.697l-12.951 12.951c-0.286 0.286-0.751 0.286-1.037 0zM8.615 3.535c-6.301 0-9.57 7.675-5.051 12.194l12.433 12.433 12.433-12.433c4.515-4.515 1.255-12.194-5.051-12.194-3.393 0-4.918 1.959-6.864 3.905-0.286 0.286-0.751 0.286-1.037 0-1.947-1.947-3.469-3.905-6.864-3.905z"></path>
</symbol>
<symbol id="icon-heart-filled" viewBox="0 0 32 32">
<title>heart</title>
<path class="path1" d="M15.478 29.726l-12.959-12.959c-3.359-3.359-3.359-8.824 0-12.183 3.363-3.363 8.816-3.367 12.183 0l1.295 1.295 1.295-1.295c3.367-3.367 8.816-3.367 12.183 0s3.367 8.816 0 12.183l-12.959 12.959c-0.286 0.287-0.751 0.287-1.038 0z"></path>
</symbol>
<symbol id="icon-home" viewBox="0 0 32 32">
<title>home</title>
<path class="path1" d="M30.993 15.677l-13.811-15.155c-0.634-0.696-1.731-0.696-2.365 0l-13.811 15.155c-0.968 1.063-0.23 2.704 1.158 2.704h2.296v12.019c0 0.884 0.716 1.6 1.6 1.6h4.754c0.221 0 0.4-0.179 0.4-0.4v-11.583c0-0.442 0.358-0.8 0.8-0.8h7.974c0.442 0 0.8 0.358 0.8 0.8v11.583c0 0.221 0.179 0.4 0.4 0.4h4.754c0.884 0 1.6-0.716 1.6-1.6v-12.019h2.296c1.386 0 2.127-1.641 1.158-2.704z"></path>
</symbol>
<symbol id="icon-inbox" viewBox="0 0 32 32">
<title>inbox</title>
<path class="path1" d="M9.136 18.918c0.379 0 0.706 0.266 0.783 0.636l0.793 3.796c0.039 0.185 0.202 0.318 0.392 0.318h9.793c0.189 0 0.353-0.133 0.392-0.318l0.793-3.796c0.078-0.371 0.404-0.636 0.783-0.636h8.401c0.267 0 0.459-0.256 0.384-0.512l-4.644-15.848c-0.1-0.341-0.413-0.575-0.768-0.575h-20.475c-0.355 0-0.668 0.234-0.768 0.575l-4.644 15.848c-0.075 0.256 0.117 0.512 0.384 0.512h8.401z"></path>
<path class="path2" d="M23.514 20.518l-0.86 4.114c-0.078 0.371-0.404 0.636-0.783 0.636h-11.743c-0.379 0-0.706-0.266-0.783-0.636l-0.86-4.114h-8.086c-0.221 0-0.4 0.179-0.4 0.4v8.299c0 0.442 0.358 0.8 0.8 0.8h30.4c0.442 0 0.8-0.358 0.8-0.8v-8.299c0-0.221-0.179-0.4-0.4-0.4h-8.086z"></path>
</symbol>
<symbol id="icon-info" viewBox="0 0 32 32">
<title>info</title>
<path class="path1" d="M16 0c-8.822 0-16 7.178-16 16s7.178 16 16 16c8.822 0 16-7.178 16-16s-7.178-16-16-16zM17.642 22.474c0 0.505-0.737 1.011-1.642 1.011-0.947 0-1.621-0.505-1.621-1.011v-8.021c0-0.589 0.674-0.989 1.621-0.989 0.905 0 1.642 0.4 1.642 0.989v8.021zM16 11.526c-0.968 0-1.726-0.716-1.726-1.516s0.758-1.495 1.726-1.495c0.947 0 1.705 0.695 1.705 1.495s-0.758 1.516-1.705 1.516z"></path>
</symbol>
<symbol id="icon-instagram" viewBox="0 0 32 32">
<title>instagram</title>
<path class="path1" d="M15.98 10.67c-2.953 0-5.337 2.397-5.337 5.337 0 2.953 2.397 5.337 5.337 5.337s5.337-2.397 5.337-5.337c0-2.953-2.384-5.337-5.337-5.337z"></path>
<path class="path2" d="M31.979 16.007c0-7.108 0.165-10.46-2.681-13.306-3.117-3.117-7.382-2.681-13.306-2.681-7.108 0-10.46-0.165-13.306 2.681-2.894 2.894-2.681 6.393-2.681 13.306 0 6.71-0.246 10.378 2.681 13.306 2.894 2.894 6.393 2.681 13.306 2.681 6.619 0 10.355 0.269 13.306-2.681 3.117-3.117 2.681-7.382 2.681-13.306zM15.98 24.223c-4.534 0-8.216-3.682-8.216-8.216s3.682-8.216 8.216-8.216c4.534 0 8.216 3.682 8.216 8.216s-3.682 8.216-8.216 8.216zM24.517 9.385c-1.058 0-1.915-0.857-1.915-1.915s0.857-1.915 1.915-1.915c1.058 0 1.915 0.857 1.915 1.915s-0.857 1.915-1.915 1.915z"></path>
</symbol>
<symbol id="icon-interogation" viewBox="0 0 32 32">
<title>interogation</title>
<path class="path1" d="M16 0c-8.822 0-16 7.178-16 16s7.178 16 16 16c8.822 0 16-7.178 16-16s-7.178-16-16-16zM15.558 23.758c-0.905 0-1.6-0.758-1.6-1.621 0-0.884 0.716-1.621 1.6-1.621s1.621 0.737 1.621 1.621c0 0.863-0.716 1.621-1.621 1.621zM17.958 15.568c-1.158 0.905-1.179 1.537-1.179 2.632 0 0.4-0.211 0.863-1.242 0.863-0.863 0-1.158-0.316-1.158-1.411 0-1.811 0.8-2.674 1.411-3.2 0.695-0.589 1.874-1.242 1.874-2.379 0-0.968-0.842-1.432-1.895-1.432-2.147 0-1.684 1.621-2.821 1.621-0.568 0-1.263-0.379-1.263-1.2 0-1.137 1.305-2.821 4.147-2.821 2.695 0 4.484 1.495 4.484 3.474s-1.789 3.411-2.358 3.853z"></path>
</symbol>
<symbol id="icon-laptop" viewBox="0 0 32 32">
<title>laptop</title>
<path class="path1" d="M31.2 20.992h-30.4c-0.495 0-0.873 0.447-0.788 0.936l0.63 3.643c0.213 1.233 1.276 2.129 2.528 2.129h25.66c1.252 0 2.315-0.895 2.528-2.129l0.63-3.643c0.085-0.49-0.294-0.936-0.788-0.936zM17.152 25.146h-2.304c-0.442 0-0.8-0.358-0.8-0.8s0.358-0.8 0.8-0.8h2.304c0.442 0 0.8 0.358 0.8 0.8s-0.358 0.8-0.8 0.8z"></path>
<path class="path2" d="M5.39 18.992v-11.093c0-0.442 0.358-0.8 0.8-0.8h19.62c0.442 0 0.8 0.358 0.8 0.8v11.093c0 0.221 0.179 0.4 0.4 0.4h2c0.221 0 0.4-0.179 0.4-0.4v-13.010c0-0.929-0.753-1.683-1.683-1.683h-23.454c-0.929 0-1.683 0.753-1.683 1.683v13.010c0 0.221 0.179 0.4 0.4 0.4h2c0.221 0 0.4-0.179 0.4-0.4z"></path>
</symbol>
<symbol id="icon-left" viewBox="0 0 32 32">
<title>left</title>
<path class="path1" d="M12.050 25.604l-11.27-8.082c-1.040-0.746-1.040-2.296 0-3.042l11.27-8.082c1.237-0.887 2.963-0.002 2.963 1.521v3.338h15.115c1.032 0 1.872 0.84 1.872 1.872v5.745c0 1.032-0.84 1.872-1.872 1.872h-15.115v3.338c0 1.529-1.73 2.405-2.963 1.521z"></path>
</symbol>
<symbol id="icon-linkedin" viewBox="0 0 32 32">
<title>linkedin</title>
<path class="path1" d="M0 11.354v19.149c0 0.552 0.448 1 1 1h4.851c0.552 0 1-0.448 1-1v-19.149c0-0.552-0.448-1-1-1h-4.851c-0.552 0-1 0.448-1 1z"></path>
<path class="path2" d="M3.876 0c-2.344 0-3.876 1.579-3.876 3.653 0 2.031 1.487 3.656 3.787 3.656h0.044c2.389 0 3.877-1.625 3.877-3.656-0.044-2.074-1.488-3.653-3.831-3.653z"></path>
<path class="path3" d="M24.112 10.354c-3.637 0-5.266 2.053-6.175 3.493v-1.996c0-0.552-0.448-1-1-1h-4.831c-0.557 0-1.006 0.454-1 1.011 0.045 3.785-0.002 15.607-0.017 19.135-0.002 0.554 0.446 1.004 1 1.004h4.847c0.552 0 1-0.448 1-1v-10.811c0-0.632 0.044-1.263 0.226-1.715 0.495-1.263 1.622-2.57 3.515-2.57 2.48 0 3.471 1.939 3.471 4.781v10.315c0 0.552 0.448 1 1 1h4.851c0.552 0 1-0.448 1-1l0-11.126c0-6.496-3.38-9.52-7.888-9.52z"></path>
</symbol>
<symbol id="icon-lock" viewBox="0 0 32 32">
<title>lock</title>
<path class="path1" d="M25.942 15.2h-1.824v-7.082c-0-4.476-3.642-8.118-8.118-8.118s-8.118 3.642-8.118 8.118v7.082h-1.824c-0.442 0-0.8 0.358-0.8 0.8v15.2c0 0.442 0.358 0.8 0.8 0.8h19.884c0.442 0 0.8-0.358 0.8-0.8v-15.2c0-0.442-0.358-0.8-0.8-0.8zM9.482 8.118c0-3.594 2.924-6.518 6.518-6.518s6.518 2.924 6.518 6.518v7.082h-13.036v-7.082zM16 27.149c-1.957 0-3.549-1.592-3.549-3.549s1.592-3.549 3.549-3.549 3.549 1.592 3.549 3.549c0 1.957-1.592 3.549-3.549 3.549z"></path>
</symbol>
<symbol id="icon-logout" viewBox="0 0 32 32">
<title>logout</title>
<path class="path1" d="M20.791 21.535v-1.876h-9.736c-0.963 0-1.746-0.783-1.746-1.746v-3.826c0-0.963 0.783-1.746 1.746-1.746h9.736v-1.876c0-1.42 1.609-2.247 2.764-1.419l7.718 5.535c0.97 0.695 0.97 2.142-0 2.838l-7.718 5.535c-0 0-0 0-0 0-1.153 0.826-2.764 0.005-2.764-1.419z"></path>
<path class="path2" d="M20.074 31.714h-17.455c-1.444 0-2.619-1.175-2.619-2.619v-26.19c0-1.444 1.175-2.619 2.619-2.619h17.455c1.444 0 2.619 1.175 2.619 2.619v2.801c0 0.482-0.391 0.873-0.873 0.873s-0.873-0.391-0.873-0.873v-2.801c0-0.481-0.392-0.873-0.873-0.873h-17.455c-0.481 0-0.873 0.392-0.873 0.873v26.19c0 0.481 0.392 0.873 0.873 0.873h17.455c0.481 0 0.873-0.392 0.873-0.873v-2.8c0-0.482 0.391-0.873 0.873-0.873s0.873 0.391 0.873 0.873v2.8c0 1.444-1.175 2.619-2.619 2.619z"></path>
</symbol>
<symbol id="icon-marker" viewBox="0 0 32 32">
<title>marker</title>
<path class="path1" d="M16 0c-6.788 0-12.311 5.522-12.311 12.311 0 8.378 7.031 16.139 11.849 19.543 0.277 0.196 0.647 0.196 0.923 0 3.922-2.771 11.849-10.532 11.849-19.543-0-6.788-5.523-12.311-12.311-12.311zM16 18.402c-3.359 0-6.091-2.732-6.091-6.091s2.733-6.091 6.091-6.091 6.091 2.733 6.091 6.091-2.733 6.091-6.091 6.091z"></path>
</symbol>
<symbol id="icon-master-card" viewBox="0 0 32 32">
<title>master-card</title>
<path class="path1" d="M14.519 6.752c0.262-0.209 0.19-0.624-0.123-0.742-6.848-2.568-14.125 2.417-14.388 9.59-0.279 7.6 7.285 13.051 14.387 10.389 0.314-0.118 0.387-0.532 0.125-0.742-5.944-4.757-5.936-13.744-0-18.495z"></path>
<path class="path2" d="M19.322 6.226c-0.331 0.087-0.437 0.502-0.187 0.736 5.221 4.901 5.232 13.163 0 18.075-0.249 0.234-0.145 0.649 0.185 0.736 6.463 1.706 12.773-3.253 12.679-9.918-0.092-6.491-6.3-11.31-12.677-9.628z"></path>
<path class="path3" d="M17.034 24.546c-0.144 0.108-0.34 0.117-0.493 0.021-6.334-3.969-6.332-13.169 0-17.136 0.153-0.096 0.348-0.087 0.493 0.021 5.726 4.28 5.72 12.818 0 17.093z"></path>
</symbol>
<symbol id="icon-minus" viewBox="0 0 32 32">
<title>minus</title>
<path class="path1" d="M30.316 20.211h-28.632c-0.929 0-1.684-0.756-1.684-1.684v-5.053c0-0.929 0.756-1.684 1.684-1.684h28.632c0.929 0 1.684 0.756 1.684 1.684v5.053c0 0.929-0.756 1.684-1.684 1.684z"></path>
</symbol>
<symbol id="icon-next" viewBox="0 0 32 32">
<title>next</title>
<path class="path1" d="M9.888 31.342v0l-4.212-4.063c-0.936-0.902-0.962-2.39-0.060-3.326l7.288-7.555c0.216-0.223 0.216-0.574 0-0.797l-7.288-7.554c-0.902-0.936-0.876-2.423 0.060-3.326l4.212-4.063c0.934-0.9 2.425-0.874 3.326 0.060l13.167 13.649c0.883 0.916 0.883 2.35-0 3.266l-13.167 13.649c-0.9 0.933-2.392 0.96-3.326 0.060z"></path>
</symbol>
<symbol id="icon-notification" viewBox="0 0 32 32">
<title>notification</title>
<path class="path1" d="M27.187 27.732h-22.373c-0.589 0-0.977-0.617-0.721-1.148l2.447-5.070v-8.633c0-4.107 2.606-7.574 6.235-8.895v-0.761c-0-1.778 1.447-3.225 3.225-3.225s3.225 1.447 3.225 3.225v0.761c3.622 1.319 6.235 4.781 6.235 8.895v8.633l2.447 5.070c0.256 0.531-0.131 1.148-0.721 1.148z"></path>
<path class="path2" d="M12.268 29.332c-0.33 0-0.519 0.377-0.32 0.641 2.033 2.703 6.071 2.703 8.104 0 0.198-0.264 0.009-0.641-0.32-0.641h-7.463z"></path>
</symbol>
<symbol id="icon-pause" viewBox="0 0 32 32">
<title>pause</title>
<path class="path1" d="M10.375 31.063h-7.5c-1.585 0-2.875-1.29-2.875-2.875v-24.375c0-1.585 1.29-2.875 2.875-2.875h7.5c1.585 0 2.875 1.29 2.875 2.875v24.375c0 1.585-1.29 2.875-2.875 2.875z"></path>
<path class="path2" d="M29.125 31.063h-7.5c-1.585 0-2.875-1.29-2.875-2.875v-24.375c0-1.585 1.29-2.875 2.875-2.875h7.5c1.585 0 2.875 1.29 2.875 2.875v24.375c0 1.585-1.29 2.875-2.875 2.875z"></path>
</symbol>
<symbol id="icon-paypal" viewBox="0 0 32 32">
<title>paypal</title>
<path class="path1" d="M13.571 20l2.16 0c6.43 0 11.586-4.052 13.065-10.285v0c1.961 3.494 0.403 12.666-10.096 12.631l-0 0c-1.274 0.007-1.569 0.022-1.826 1.654l-1.053 6.67c-0.111 0.693-0.566 1.284-1.251 1.327l-4.21 0.003c-0.565 0-1.33-0.425-1.186-1.333h2.7l1.698-10.667zM7.82 0c-0.733 0-1.219 0.609-1.333 1.333l-4 25.333c-0.114 0.724 0.602 1.333 1.333 1.333l5.773 0 1.474-9.334c0.239-1.508 1.447-1.332 1.94-1.332l0-0 2.723 0c5.114 0 9.389-3.151 10.533-8.509 1.297-6.066-3.052-8.824-6.792-8.824-1.207 0-10.44 0-11.651 0v0z"></path>
</symbol>
<symbol id="icon-pencil" viewBox="0 0 32 32">
<title>pencil</title>
<path class="path1" d="M26.363 7.050l-12.4 12.4c-0.376 0.376-0.989 0.421-1.389 0.070-0.438-0.385-0.455-1.053-0.049-1.459l12.425-12.425c0.195-0.195 0.195-0.511 0-0.707l-2.31-2.31c-0.195-0.195-0.512-0.195-0.707 0l-18.348 18.348c-0.195 0.195-0.195 0.512 0 0.707l6.74 6.74c0.195 0.195 0.511 0.195 0.707 0l18.348-18.348c0.195-0.195 0.195-0.511 0-0.707l-2.31-2.31c-0.195-0.195-0.512-0.195-0.707 0z"></path>
<path class="path2" d="M30.621 7.775c0.24 0.24 0.647 0.177 0.799-0.126 2.269-4.521-2.548-9.338-7.069-7.069-0.303 0.152-0.366 0.559-0.126 0.799l6.396 6.396z"></path>
<path class="path3" d="M2.727 23.644c-0.272-0.272-0.736-0.148-0.836 0.223l-1.855 6.872c-0.2 0.743 0.481 1.426 1.225 1.225l6.872-1.855c0.371-0.1 0.495-0.564 0.223-0.836l-5.63-5.63z"></path>
</symbol>
<symbol id="icon-phone" viewBox="0 0 32 32">
<title>phone</title>
<path class="path1" d="M23.078 0h-14.157c-2.322 0-4.211 1.889-4.211 4.211v23.579c0 2.322 1.889 4.211 4.211 4.211h14.157c2.322 0 4.211-1.889 4.211-4.211v-23.579c0-2.322-1.889-4.211-4.21-4.211zM16 29.87c-1.018 0-1.843-0.825-1.843-1.843s0.825-1.842 1.843-1.842 1.843 0.825 1.843 1.842c0 1.018-0.825 1.843-1.843 1.843zM24.341 22.824c0 0.665-0.541 1.206-1.206 1.206h-14.271c-0.665 0-1.206-0.541-1.206-1.206v-17.495c0-0.665 0.541-1.206 1.206-1.206h14.271c0.665 0 1.206 0.541 1.206 1.206v17.495z"></path>
</symbol>
<symbol id="icon-pinterest" viewBox="0 0 32 32">
<title>pinterest</title>
<path class="path1" d="M4.325 11.482c0 3.161 1.13 5.974 3.553 7.022 0.397 0.172 0.753 0.006 0.869-0.46 0.080-0.323 0.27-1.136 0.354-1.475 0.116-0.461 0.071-0.623-0.25-1.024-0.699-0.873-1.145-2.003-1.145-3.605 0-10.929 15.762-11.943 15.762-1.76 0 5.3-2.214 9.773-5.501 9.773-1.815 0-3.174-1.59-2.738-3.541 0.521-2.328 1.532-4.841 1.532-6.522 0-1.505-0.762-2.759-2.34-2.759-1.856 0-3.346 2.034-3.346 4.758 0 1.735 0.553 2.908 0.553 2.908s-1.899 8.523-2.232 10.016c-0.663 2.973-0.1 6.617-0.052 6.985 0.028 0.218 0.293 0.27 0.412 0.105 0.171-0.237 2.381-3.127 3.132-6.015 0.213-0.818 1.22-5.052 1.22-5.052 0.603 1.218 2.365 2.291 4.238 2.291 11.515 0 13.895-23.127-1.623-23.127-8.244 0-12.4 6.261-12.4 11.482z"></path>
</symbol>
<symbol id="icon-play" viewBox="0 0 32 32">
<title>play</title>
<path class="path1" d="M1.745 28.991v-25.982c0-2.312 2.502-3.759 4.506-2.602l22.501 12.991c2.003 1.156 2.004 4.046 0 5.203l-22.501 12.991c-2.002 1.156-4.506-0.287-4.506-2.602z"></path>
</symbol>
<symbol id="icon-plus" viewBox="0 0 32 32">
<title>plus</title>
<path class="path1" d="M18.526 32h-5.053c-0.929 0-1.684-0.756-1.684-1.684v-10.105h-10.105c-0.929 0-1.684-0.756-1.684-1.684v-5.053c0-0.929 0.756-1.684 1.684-1.684h10.105v-10.105c0-0.929 0.756-1.684 1.684-1.684h5.053c0.929 0 1.684 0.756 1.684 1.684v10.105h10.105c0.929 0 1.684 0.756 1.684 1.684v5.053c0 0.929-0.756 1.684-1.684 1.684h-10.105v10.105c0 0.929-0.756 1.684-1.684 1.684z"></path>
</symbol>
<symbol id="icon-prev" viewBox="0 0 32 32">
<title>prev</title>
<path class="path1" d="M18.786 31.282l-13.167-13.649c-0.883-0.916-0.883-2.35 0-3.266l13.167-13.649c0.901-0.933 2.392-0.96 3.326-0.060l4.212 4.063c0.936 0.902 0.963 2.39 0.060 3.326l-7.288 7.555c-0.216 0.223-0.216 0.574 0 0.797l7.288 7.554c0.902 0.936 0.876 2.423-0.060 3.326l-4.212 4.063c-0.933 0.9-2.425 0.874-3.326-0.060z"></path>
</symbol>
<symbol id="icon-refresh" viewBox="0 0 32 32">
<title>refresh</title>
<path class="path1" d="M30.248 5.569c-0.052-0.786-0.935-1.221-1.589-0.783l-0.768 0.513c-6.643-7.383-18.264-6.977-24.423 0.757-0.777 0.975-0.5 2.415 0.579 3.040l0.914 0.53c0.867 0.502 1.96 0.285 2.593-0.491 4.042-4.952 11.426-5.404 16.019-0.951l-0.668 0.447c-0.655 0.438-0.59 1.42 0.116 1.768l6.208 3.060c0.706 0.348 1.525-0.199 1.473-0.985l-0.454-6.906z"></path>
<path class="path2" d="M1.752 26.431c0.052 0.786 0.935 1.221 1.589 0.783l0.768-0.513c6.644 7.383 18.265 6.977 24.423-0.757 0.777-0.975 0.5-2.415-0.579-3.040l-0.914-0.53c-0.867-0.502-1.96-0.285-2.593 0.491-4.042 4.952-11.426 5.404-16.019 0.951l0.668-0.447c0.655-0.438 0.59-1.42-0.116-1.768l-6.208-3.060c-0.706-0.348-1.525 0.199-1.473 0.985l0.454 6.906z"></path>
</symbol>
<symbol id="icon-resize" viewBox="0 0 32 32">
<title>resize</title>
<path class="path1" d="M19.893 14.964l-2.857-2.857c-0.61-0.61-0.611-1.599 0-2.209l4.16-4.16-1.486-1.486c-0.898-0.899-0.404-2.44 0.851-2.646l9.623-1.585c1.056-0.173 1.969 0.743 1.795 1.795l-1.585 9.623c-0.207 1.254-1.747 1.75-2.646 0.851l-1.486-1.486-4.16 4.16c-0.609 0.609-1.6 0.609-2.209 0z"></path>
<path class="path2" d="M0.021 30.183l1.585-9.623c0.206-1.254 1.747-1.75 2.646-0.851l1.486 1.486 4.16-4.16c0.609-0.609 1.6-0.609 2.209 0l2.857 2.857c0.61 0.61 0.611 1.599-0 2.209l-4.159 4.16 1.486 1.486c0.898 0.899 0.404 2.44-0.851 2.646l-9.623 1.585c-1.060 0.174-1.968-0.747-1.795-1.795z"></path>
</symbol>
<symbol id="icon-right" viewBox="0 0 32 32">
<title>right</title>
<path class="path1" d="M16.987 24.082v-3.338h-15.115c-1.032 0-1.872-0.84-1.872-1.872v-5.745c0-1.032 0.84-1.872 1.872-1.872h15.115v-3.338c0-1.523 1.725-2.409 2.963-1.521l11.27 8.082c1.039 0.746 1.040 2.296 0 3.042l-11.27 8.082c-1.235 0.886-2.963 0.005-2.963-1.521z"></path>
</symbol>
<symbol id="icon-save" viewBox="0 0 32 32">
<title>save</title>
<path class="path1" d="M21.582 0.261c-0.167-0.167-0.393-0.26-0.629-0.26-0.601 0-19.498 0-20.065 0-0.488 0-0.889 0.396-0.889 0.889 0 0.221-0.003 30.242 0.005 30.313 0.046 0.449 0.425 0.798 0.884 0.798 1.197 0 29.028 0 30.222 0 0.489 0 0.889-0.397 0.889-0.889v-20.065c0-0.236-0.094-0.462-0.26-0.629l-10.157-10.157zM25.663 30.222h-19.325v-12.736c0-0.491 0.398-0.889 0.889-0.889h17.547c0.491 0 0.889 0.398 0.889 0.889v12.736zM21.815 3.007v4.987c0 0.491-0.398 0.889-0.889 0.889h-9.852c-0.491 0-0.889-0.398-0.889-0.889v-6.217h10.4l1.229 1.229z"></path>
</symbol>
<symbol id="icon-search" viewBox="0 0 32 32">
<title>search</title>
<path class="path1" d="M30.769 24.841l-7.591-7.591c2.070-4.491 1.257-9.993-2.438-13.689-4.748-4.748-12.434-4.749-17.183 0-4.737 4.737-4.737 12.445 0 17.183 3.695 3.695 9.198 4.508 13.689 2.438l7.591 7.591c1.636 1.636 4.297 1.635 5.932-0s1.635-4.297-0-5.932zM6.46 17.841c-3.137-3.137-3.137-8.24 0-11.377s8.24-3.137 11.377 0c3.137 3.137 3.137 8.24 0 11.377s-8.24 3.137-11.377 0z"></path>
</symbol>
<symbol id="icon-settings" viewBox="0 0 32 32">
<title>settings</title>
<path class="path1" d="M30.975 20.599l-3.333-2.324c0.292-1.5 0.292-3.048 0-4.549l3.333-2.324c0.341-0.238 0.443-0.696 0.235-1.056l-2.708-4.69c-0.208-0.36-0.656-0.501-1.032-0.324l-3.68 1.725c-1.153-1.004-2.498-1.781-3.938-2.276l-0.346-4.047c-0.035-0.414-0.382-0.732-0.797-0.732h-5.416c-0.415 0-0.762 0.318-0.797 0.732l-0.346 4.047c-1.441 0.495-2.785 1.272-3.938 2.276l-3.68-1.725c-0.376-0.176-0.825-0.035-1.032 0.324l-2.708 4.69c-0.208 0.36-0.106 0.819 0.235 1.056l3.333 2.324c-0.291 1.498-0.291 3.051 0 4.549l-3.333 2.324c-0.341 0.238-0.443 0.696-0.235 1.056l2.708 4.69c0.208 0.36 0.656 0.501 1.032 0.324l3.68-1.725c1.153 1.004 2.498 1.781 3.938 2.276l0.346 4.047c0.035 0.414 0.382 0.732 0.797 0.732h5.416c0.415 0 0.762-0.318 0.797-0.732l0.346-4.047c1.441-0.495 2.785-1.272 3.938-2.276l3.68 1.725c0.376 0.176 0.825 0.035 1.032-0.324l2.708-4.69c0.208-0.36 0.106-0.819-0.235-1.056zM16 21.073c-2.797 0-5.073-2.276-5.073-5.073s2.276-5.073 5.073-5.073 5.073 2.276 5.073 5.073-2.276 5.073-5.073 5.073z"></path>
</symbol>
<symbol id="icon-share" viewBox="0 0 32 32">
<title>share</title>
<path class="path1" d="M27.131 19.957c-1.766 0-3.315 0.945-4.169 2.356l-13.333-5.287c0.143-0.664 0.15-1.358 0-2.053l13.333-5.287c0.854 1.411 2.403 2.356 4.169 2.356 2.685 0 4.869-2.184 4.869-4.869s-2.184-4.869-4.869-4.869c-3.088 0-5.414 2.856-4.759 5.896l-13.333 5.287c-0.854-1.411-2.403-2.356-4.169-2.356-2.685 0-4.869 2.184-4.869 4.869s2.184 4.869 4.869 4.869c1.766 0 3.315-0.945 4.169-2.356l13.333 5.287c-0.656 3.044 1.677 5.896 4.759 5.896 2.685 0 4.869-2.184 4.869-4.869s-2.184-4.869-4.869-4.869z"></path>
</symbol>
<symbol id="icon-star" viewBox="0 0 32 32">
<title>star</title>
<path class="path1" d="M5.508 28.995l2.687-8.883c0.031-0.102-0.005-0.213-0.090-0.277l-7.395-5.607c-1.35-1.023-0.648-3.174 1.042-3.208l9.278-0.189c0.106-0.002 0.201-0.071 0.236-0.171l3.047-8.766c0.556-1.6 2.818-1.597 3.373 0l3.047 8.766c0.035 0.1 0.13 0.169 0.236 0.171l9.278 0.189c1.694 0.034 2.39 2.187 1.042 3.208l-7.395 5.607c-0.085 0.064-0.121 0.176-0.090 0.277l2.687 8.883c0.49 1.621-1.341 2.949-2.729 1.983l-7.617-5.301c-0.087-0.061-0.204-0.061-0.292 0l-7.617 5.301c-1.391 0.968-3.219-0.364-2.729-1.983z"></path>
</symbol>
<symbol id="icon-stop" viewBox="0 0 32 32">
<title>stop</title>
<path class="path1" d="M27.733 32h-23.467c-2.353 0-4.267-1.914-4.267-4.267v-23.467c0-2.353 1.914-4.267 4.267-4.267h23.467c2.353 0 4.267 1.914 4.267 4.267v23.467c0 2.353-1.914 4.267-4.267 4.267z"></path>
</symbol>
<symbol id="icon-stumbleupon" viewBox="0 0 32 32">
<title>stumbleupon</title>
<path class="path1" d="M17.693 10.963c0-0.935-0.758-1.693-1.694-1.693s-1.694 0.758-1.694 1.693l-0.008 10.205c-0.054 3.866-3.17 6.992-7.037 7.049-3.993 0.059-7.261-3.283-7.261-7.277v-3.548c0-0.422 0.342-0.764 0.764-0.764h3.948c0.422 0 0.764 0.342 0.764 0.764v3.559c0 0.932 0.73 1.732 1.662 1.748 0.95 0.017 1.724-0.747 1.724-1.693v-10.332c0.137-3.83 3.276-6.894 7.139-6.894 3.877 0 7.023 3.086 7.139 6.936v1.692c0 0.338-0.222 0.635-0.545 0.732l-2.436 0.727c-0.179 0.053-0.372 0.039-0.541-0.040l-1.482-0.691c-0.269-0.125-0.441-0.395-0.441-0.692l-0-1.483zM26.525 17.434v3.723c0 0.933-0.731 1.732-1.663 1.748-0.949 0.016-1.723-0.749-1.723-1.694v-3.47c0-0.511-0.492-0.878-0.982-0.732l-1.999 0.597c-0.179 0.053-0.372 0.039-0.541-0.040l-0.836-0.39c-0.506-0.236-1.086 0.134-1.086 0.692v3.26c0.033 3.883 3.163 7.029 7.039 7.089 3.996 0.062 7.267-3.281 7.267-7.278v-3.505c0-0.422-0.342-0.764-0.764-0.764h-3.948c-0.422 0-0.764 0.342-0.764 0.764z"></path>
</symbol>
<symbol id="icon-support" viewBox="0 0 32 32">
<title>support</title>
<path class="path1" d="M28.665 27.392c4.281-2.8 4.444-8.023 0.472-11.007-0.213-0.16-0.518-0.086-0.635 0.154-2.299 4.692-7.595 7.613-13.217 7.989-0.32 0.021-0.5 0.383-0.322 0.649 1.527 2.3 4.534 3.849 7.984 3.849 0.331 0 0.667-0.015 0.999-0.044l5.737 2.414c0.781 0.329 1.521-0.58 0.987-1.3l-2.005-2.704z"></path>
<path class="path2" d="M13.976 0.535c-7.586 0-13.976 4.878-13.976 11.174 0 3.544 2.060 6.822 5.56 8.927l-3.558 4.799c-0.505 0.681 0.211 1.611 1.003 1.278l9.293-3.91c8.423 0.812 15.653-4.463 15.653-11.094 0-6.298-6.392-11.174-13.976-11.174zM7.71 13.34c-0.828 0-1.499-0.671-1.499-1.499s0.671-1.499 1.499-1.499 1.499 0.671 1.499 1.499c0 0.828-0.671 1.499-1.499 1.499zM13.976 13.34c-0.828 0-1.499-0.671-1.499-1.499s0.671-1.499 1.499-1.499c0.828 0 1.499 0.671 1.499 1.499s-0.671 1.499-1.499 1.499zM20.241 13.34c-0.828 0-1.499-0.671-1.499-1.499s0.671-1.499 1.499-1.499c0.828 0 1.499 0.671 1.499 1.499s-0.671 1.499-1.499 1.499z"></path>
</symbol>
<symbol id="icon-tablet" viewBox="0 0 32 32">
<title>tablet</title>
<path class="path1" d="M29.57 4.1h-27.14c-1.34 0-2.43 1.090-2.43 2.43v18.94c0 1.34 1.090 2.43 2.43 2.43h27.14c1.34 0 2.43-1.090 2.43-2.43v-18.94c0-1.34-1.090-2.43-2.43-2.43zM25.622 24.255c0 0.447-0.363 0.81-0.81 0.81h-21.167c-0.447 0-0.81-0.363-0.81-0.81v-16.51c0-0.447 0.363-0.81 0.81-0.81h21.167c0.447 0 0.81 0.363 0.81 0.81v16.51zM28.811 17.253c-0.692 0-1.253-0.561-1.253-1.253s0.561-1.253 1.253-1.253 1.253 0.561 1.253 1.253c0 0.692-0.561 1.253-1.253 1.253z"></path>
</symbol>
<symbol id="icon-tag" viewBox="0 0 32 32">
<title>tag</title>
<path class="path1" d="M23.892 8.895l-7.281-8.612c-0.319-0.378-0.903-0.378-1.222 0l-7.281 8.612c-0.122 0.144-0.189 0.327-0.189 0.517v21.788c0 0.442 0.358 0.8 0.8 0.8h14.563c0.442 0 0.8-0.358 0.8-0.8v-21.788c-0-0.189-0.067-0.372-0.189-0.516zM16 14.917c-1.652 0-2.996-1.344-2.996-2.996s1.344-2.996 2.996-2.996 2.996 1.344 2.996 2.996c0 1.652-1.344 2.996-2.996 2.996z"></path>
</symbol>
<symbol id="icon-thumb-down" viewBox="0 0 32 32">
<title>thumb-down</title>
<path class="path1" d="M11.673 1.111h-10.831c-0.465 0-0.842 0.377-0.842 0.842v20.072c0 0.465 0.377 0.842 0.842 0.842h10.831c0.465 0 0.842-0.377 0.842-0.842v-20.072c0-0.465-0.377-0.842-0.842-0.842zM6.258 9.175c-1.025 0-1.856-0.831-1.856-1.856s0.831-1.856 1.856-1.856 1.856 0.831 1.856 1.856c-0 1.025-0.831 1.856-1.856 1.856z"></path>
<path class="path2" d="M28.943 2.639h-14.323c-0.232 0-0.421 0.188-0.421 0.421v17.94c0 0.233 0.189 0.421 0.421 0.421h1.336l3.239 7.373c1.622 3.692 7.249 2.153 6.712-1.881l-0.732-5.492h3.768c1.688 0 3.057-1.369 3.057-3.057v-12.669c0-1.688-1.368-3.057-3.057-3.057z"></path>
</symbol>
<symbol id="icon-thumb-up" viewBox="0 0 32 32">
<title>thumb-up</title>
<path class="path1" d="M12.515 30.048v-20.072c0-0.465-0.377-0.842-0.842-0.842h-10.831c-0.465 0-0.842 0.377-0.842 0.842v20.072c0 0.465 0.377 0.842 0.842 0.842h10.831c0.465 0 0.842-0.377 0.842-0.842zM8.114 24.682c0 1.025-0.831 1.856-1.856 1.856s-1.856-0.831-1.856-1.856c0-1.025 0.831-1.856 1.856-1.856s1.856 0.831 1.856 1.856z"></path>
<path class="path2" d="M28.943 29.362h-14.323c-0.232 0-0.421-0.189-0.421-0.421v-17.94c0-0.232 0.189-0.421 0.421-0.421h1.336l3.239-7.373c1.642-3.737 7.24-2.089 6.712 1.881l-0.732 5.492h3.768c1.688 0 3.057 1.369 3.057 3.057v12.669c0 1.688-1.368 3.057-3.057 3.057z"></path>
</symbol>
<symbol id="icon-time" viewBox="0 0 32 32">
<title>time</title>
<path class="path1" d="M16 0c-8.822 0-16 7.178-16 16s7.178 16 16 16c8.822 0 16-7.178 16-16s-7.178-16-16-16zM16.842 16c0 0.465-0.377 0.842-0.842 0.842h-5.704c-0.465 0-0.842-0.377-0.842-0.842s0.377-0.842 0.842-0.842h4.861v-8.226c0-0.465 0.377-0.842 0.842-0.842s0.842 0.377 0.842 0.842v9.068z"></path>
</symbol>
<symbol id="icon-trash" viewBox="0 0 32 32">
<title>trash</title>
<path class="path1" d="M26.873 4.096h-6.003v-3.296c0-0.442-0.358-0.8-0.8-0.8h-8.14c-0.442 0-0.8 0.358-0.8 0.8v3.296h-6.003c-1.323 0-2.4 1.077-2.4 2.4v2.496c0 0.442 0.358 0.8 0.8 0.8h24.947c0.442 0 0.8-0.358 0.8-0.8v-2.496c0-1.323-1.077-2.4-2.4-2.4zM12.73 1.6h6.54v2.496h-6.54v-2.496z"></path>
<path class="path2" d="M26.19 11.392h-20.379c-0.221 0-0.4 0.179-0.4 0.4v17.808c0 1.326 1.074 2.4 2.4 2.4h16.379c1.326 0 2.4-1.074 2.4-2.4v-17.808c0-0.221-0.179-0.4-0.4-0.4zM12 27.798c0 0.442-0.358 0.8-0.8 0.8s-0.8-0.358-0.8-0.8v-12.205c0-0.442 0.358-0.8 0.8-0.8s0.8 0.358 0.8 0.8v12.205zM16.8 27.798c0 0.442-0.358 0.8-0.8 0.8s-0.8-0.358-0.8-0.8v-12.205c0-0.442 0.358-0.8 0.8-0.8s0.8 0.358 0.8 0.8v12.205zM21.6 27.798c0 0.442-0.358 0.8-0.8 0.8s-0.8-0.358-0.8-0.8v-12.205c0-0.442 0.358-0.8 0.8-0.8s0.8 0.358 0.8 0.8v12.205z"></path>
</symbol>
<symbol id="icon-twitter" viewBox="0 0 32 32">
<title>twitter</title>
<path class="path1" d="M15.607 10.746c-6.583-0.833-9.396-3.027-12.66-6.334-0.472-0.479-1.294-0.261-1.453 0.392-0.61 2.496-0.482 4.859 1.465 6.942 0.925 1.025 0.717 1.171-0.879 0.561-0.555-0.195-1.040-0.342-1.087-0.268-0.164 0.173 0.181 4.377 4 6.391l1.133 0.561-1.341 0.024c-1.295 0-1.341 0.024-1.202 0.537 0.828 2.838 4.237 3.97 5.757 4.513-1.215 0.76-3.606 2.5-7.445 2.586-1.040 0.024-1.896 0.122-1.896 0.195 0 0.306 9.87 6.357 19.63 0.342 4.978-3.074 9.272-10.112 9.272-16.784 0-1.122 0.069-1.269 1.364-2.61 0.763-0.781 1.48-1.634 1.619-1.878 0.231-0.464 0.208-0.464-0.971-0.049-1.965 0.732-2.243 0.634-1.272-0.464 0.717-0.781 1.572-2.196 1.572-2.61 0-0.073-0.347 0.049-0.74 0.268-0.416 0.244-1.341 0.61-2.035 0.829l-1.249 0.415c-0.748-0.531-2.136-1.574-3.098-1.878-4.596-1.331-8.867 2.476-8.555 7.123-0.116-1.723-0.031-0.529 0.069 1.195z"></path>
</symbol>
<symbol id="icon-unlock" viewBox="0 0 32 32">
<title>unlock</title>
<path class="path1" d="M25.942 15.2h-16.46v-7.082c0-3.594 2.924-6.518 6.518-6.518s6.518 2.924 6.518 6.518c0 0.442 0.358 0.8 0.8 0.8s0.8-0.358 0.8-0.8c0-4.476-3.642-8.118-8.118-8.118s-8.118 3.642-8.118 8.118v7.082h-1.824c-0.442 0-0.8 0.358-0.8 0.8v15.2c0 0.442 0.358 0.8 0.8 0.8h19.884c0.442 0 0.8-0.358 0.8-0.8v-15.2c0-0.442-0.358-0.8-0.8-0.8zM16 27.149c-1.957 0-3.549-1.592-3.549-3.549s1.592-3.549 3.549-3.549 3.549 1.592 3.549 3.549c0 1.957-1.592 3.549-3.549 3.549z"></path>
</symbol>
<symbol id="icon-up" viewBox="0 0 32 32">
<title>up</title>
<path class="path1" d="M18.873 32h-5.745c-1.032 0-1.872-0.84-1.872-1.872v-15.115h-3.338c-1.523 0-2.409-1.725-1.521-2.963l8.082-11.27c0.746-1.040 2.296-1.040 3.042 0l8.082 11.27c0.887 1.237 0.002 2.963-1.521 2.963h-3.338v15.115c0 1.032-0.84 1.872-1.872 1.872z"></path>
</symbol>
<symbol id="icon-upload" viewBox="0 0 32 32">
<title>upload</title>
<path class="path1" d="M16 0c-8.822 0-16 7.178-16 16s7.178 16 16 16 16-7.178 16-16-7.178-16-16-16zM21.484 16.234h-1.274v6.664c0 0.929-0.756 1.684-1.684 1.684h-5.053c-0.929 0-1.684-0.756-1.684-1.684v-6.664h-1.274c-1.5 0-2.252-1.821-1.187-2.879l5.484-5.448c0.655-0.65 1.72-0.65 2.374-0l5.485 5.449c1.064 1.057 0.314 2.879-1.187 2.879z"></path>
</symbol>
<symbol id="icon-url" viewBox="0 0 32 32">
<title>url</title>
<path class="path1" d="M10.757 21.244c-0.347-0.347-0.347-0.91 0-1.257l9.23-9.23c0.347-0.347 0.91-0.347 1.257 0s0.347 0.91 0 1.257l-9.23 9.23c-0.347 0.347-0.91 0.347-1.257 0z"></path>
<path class="path2" d="M15.353 20.418c-0.089 0.090-0.137 0.213-0.129 0.339 0.079 1.189-0.334 2.404-1.241 3.31l-4.847 4.847c-1.671 1.671-4.453 1.718-6.117 0.040-1.64-1.654-1.672-4.353 0.013-6.038l4.9-4.9c0.907-0.907 2.122-1.32 3.31-1.241 0.126 0.008 0.25-0.039 0.339-0.129l0.79-0.79c0.252-0.252 0.119-0.682-0.23-0.751-1.917-0.38-3.984 0.171-5.467 1.654l-4.9 4.9c-2.367 2.367-2.367 6.198 0 8.565h0c2.361 2.361 6.204 2.361 8.565 0l4.9-4.9c1.483-1.483 2.034-3.549 1.654-5.467-0.069-0.35-0.499-0.482-0.751-0.23l-0.79 0.79z"></path>
<path class="path3" d="M30.617 2.205c-2.307-2.784-6.46-2.927-8.956-0.43l-4.9 4.9c-1.483 1.483-2.034 3.549-1.654 5.467 0.069 0.35 0.499 0.482 0.751 0.23l0.79-0.79c0.090-0.089 0.137-0.213 0.129-0.339-0.079-1.189 0.334-2.404 1.241-3.31l4.9-4.9c1.668-1.668 4.383-1.668 6.051 0 1.672 1.672 1.672 4.379 0 6.051l-4.9 4.9c-0.907 0.907-2.122 1.319-3.31 1.241-0.126-0.008-0.25 0.039-0.339 0.129l-0.791 0.791c-0.249 0.249-0.125 0.68 0.22 0.749 1.944 0.39 4.009-0.185 5.477-1.652l4.9-4.9c2.269-2.269 2.32-5.808 0.391-8.135z"></path>
</symbol>
<symbol id="icon-user" viewBox="0 0 32 32">
<title>user</title>
<path class="path1" d="M16 15.477c-4.267 0-7.739-3.472-7.739-7.739s3.472-7.739 7.739-7.739 7.739 3.472 7.739 7.739-3.472 7.739-7.739 7.739z"></path>
<path class="path2" d="M26.174 32h-20.349c-0.442 0-0.8-0.358-0.8-0.8v-3.251c0-6.051 4.923-10.974 10.974-10.974s10.974 4.923 10.974 10.974v3.251c0 0.442-0.358 0.8-0.8 0.8z"></path>
</symbol>
<symbol id="icon-visa" viewBox="0 0 32 32">
<title>visa</title>
<path class="path1" d="M13.907 11.030h1.267c0.41 0 0.717 0.378 0.632 0.779l-1.848 8.78c-0.063 0.299-0.327 0.513-0.632 0.513h-1.325c-0.412 0-0.719-0.381-0.631-0.783l1.906-8.78c0.064-0.297 0.327-0.509 0.631-0.509zM6.826 17.855l-1.127-5.832c-0.133-0.663-0.663-0.994-1.193-0.994h-4.44l-0.066 0.265c0.928 0.199 1.922 0.53 2.584 0.861 0.398 0.199 0.464 0.398 0.596 0.861l1.93 7.533c0.073 0.286 0.331 0.486 0.626 0.486h1.853c0.26 0 0.495-0.156 0.596-0.395l3.697-8.78c0.179-0.426-0.133-0.897-0.595-0.897h-1.279c-0.265 0-0.502 0.161-0.6 0.407l-2.581 6.485zM31.988 20.331c0.079 0.399-0.227 0.771-0.634 0.771h-1.079c-0.304 0-0.567-0.212-0.631-0.509l-0.221-1.015h-3.313l-0.379 1.090c-0.090 0.26-0.335 0.434-0.61 0.434h-1.287c-0.462 0-0.774-0.47-0.596-0.896l3.535-8.448c0.199-0.464 0.596-0.729 1.127-0.729h1.722c0.309 0 0.574 0.218 0.634 0.521l1.733 8.781zM27.342 17.524h1.498c0.164 0 0.287-0.151 0.253-0.312l-0.545-2.587c-0.053-0.254-0.406-0.28-0.495-0.036l-0.953 2.587c-0.062 0.169 0.063 0.348 0.242 0.348zM19.416 13.813c0-0.331 0.331-0.729 1.127-0.861 0.32-0.053 1.027-0.064 1.914 0.211 0.364 0.113 0.748-0.104 0.83-0.476l0.178-0.813c0.073-0.336-0.129-0.668-0.46-0.761-0.524-0.148-1.162-0.281-1.866-0.281-2.584 0-4.374 1.392-4.374 3.313 0 1.458 1.325 2.253 2.253 2.717 2.236 1.044 1.282 2.253-0.265 2.253-0.86 0-1.469-0.139-1.953-0.328-0.372-0.145-0.785 0.076-0.868 0.467l-0.177 0.834c-0.070 0.329 0.123 0.658 0.446 0.753 0.622 0.183 1.469 0.328 2.352 0.328 2.717 0 4.506-1.325 4.506-3.446-0-2.518-3.711-2.717-3.645-3.91z"></path>
</symbol>
<symbol id="icon-warning" viewBox="0 0 32 32">
<title>warning</title>
<path class="path1" d="M31.394 23.745l-11.523-19.959c-1.721-2.981-6.020-2.981-7.741 0l-11.523 19.959c-1.721 2.98 0.428 6.704 3.871 6.704h23.047c3.441 0 5.592-3.723 3.871-6.704zM16.010 10.215c0.78 0 1.44 0.44 1.44 1.22 0 2.38-0.28 5.799-0.28 8.179 0 0.62-0.68 0.88-1.16 0.88-0.64 0-1.18-0.26-1.18-0.88 0-2.38-0.28-5.799-0.28-8.179 0-0.78 0.64-1.22 1.46-1.22zM16.030 24.953c-0.88 0-1.54-0.72-1.54-1.54 0-0.84 0.66-1.54 1.54-1.54 0.82 0 1.52 0.7 1.52 1.54 0 0.82-0.7 1.54-1.52 1.54z"></path>
</symbol>
<symbol id="icon-youtube" viewBox="0 0 32 32">
<title>youtube</title>
<path class="path1" d="M31.421 8.448c-0.39-1.699-1.78-2.952-3.453-3.139-5.514-0.616-18.346-0.623-23.927 0-1.673 0.186-3.062 1.44-3.453 3.139-0.786 3.425-0.78 11.738-0.006 15.104 0.39 1.699 1.78 2.952 3.453 3.139 5.514 0.616 18.346 0.623 23.927 0 1.673-0.187 3.062-1.44 3.453-3.139 0.774-3.368 0.784-11.723 0.006-15.104zM12.889 18.836v-5.672c0-1.008 1.092-1.639 1.965-1.134l4.912 2.836c0.873 0.504 0.873 1.765 0 2.269l-4.912 2.836c-0.873 0.504-1.965-0.126-1.965-1.134z"></path>
</symbol>
<symbol id="icon-zoom-in" viewBox="0 0 32 32">
<title>zoom-in</title>
<path class="path1" d="M30.769 24.841l-7.591-7.591c2.070-4.491 1.257-9.993-2.438-13.689-4.748-4.748-12.434-4.749-17.183 0-4.737 4.737-4.737 12.445 0 17.183 3.695 3.695 9.198 4.508 13.689 2.438l7.591 7.591c1.636 1.636 4.297 1.635 5.932-0s1.635-4.297-0-5.932zM6.46 17.841c-3.137-3.137-3.137-8.24 0-11.377s8.24-3.137 11.377 0c3.137 3.137 3.137 8.24 0 11.377s-8.24 3.137-11.377 0z"></path>
<path class="path2" d="M15.237 11.243h-2.179v-2.179c0-0.502-0.407-0.909-0.909-0.909s-0.909 0.407-0.909 0.909v2.179h-2.179c-0.502 0-0.909 0.407-0.909 0.909s0.407 0.909 0.909 0.909h2.179v2.179c0 0.502 0.407 0.909 0.909 0.909s0.909-0.407 0.909-0.909v-2.179h2.179c0.502 0 0.909-0.407 0.909-0.909s-0.407-0.909-0.909-0.909z"></path>
</symbol>
<symbol id="icon-zoom-out" viewBox="0 0 32 32">
<title>zoom-out</title>
<path class="path1" d="M30.769 24.841l-7.591-7.591c2.070-4.491 1.257-9.993-2.438-13.689-4.748-4.748-12.434-4.749-17.183 0-4.737 4.737-4.737 12.445 0 17.183 3.695 3.695 9.198 4.508 13.689 2.438l7.591 7.591c1.636 1.636 4.297 1.635 5.932-0s1.636-4.297 0-5.932zM6.46 17.841c-3.137-3.137-3.137-8.24 0-11.377s8.24-3.137 11.377 0c3.137 3.137 3.137 8.24 0 11.377s-8.24 3.137-11.377 0z"></path>
<path class="path2" d="M15.237 11.243h-6.177c-0.502 0-0.909 0.407-0.909 0.909s0.407 0.909 0.909 0.909h6.177c0.502 0 0.909-0.407 0.909-0.909s-0.407-0.909-0.909-0.909z"></path>
</symbol>
<symbol id="icon-fire" viewBox="0 0 32 32">
<title>fire</title>
<path class="path1" d="M23.197 6.942c-0.493-0.791-1.467-1.137-2.349-0.833s-1.436 1.176-1.337 2.103c0.186 1.743-0.112 3.032-0.979 4.078-1.848-2.112-2.483-5.079-1.572-7.811 0.161-0.483 0.374-0.953 0.649-1.437 0.39-0.685 0.303-1.586-0.162-2.222-0.377-0.514-0.976-0.818-1.613-0.819-0.001 0-0.001 0-0.001 0-0.637 0-1.236 0.304-1.613 0.817-0.995 1.356-9.721 13.451-9.721 20.274 0 6.015 5.084 10.909 11.334 10.909 6.324 0 11.666-4.996 11.666-10.909 0-4.471-1.649-9.892-4.303-14.149zM15.893 30c-3.304 0-5.982-2.136-5.982-4.772 0-2.83 4.121-8.007 5.522-9.686 0.136-0.162 0.437-0.077 0.432 0.121-0.017 0.766-0.001 2.082 0.232 3.338 0.23 1.242 0.673 2.425 1.506 2.955 1.325-0.768 1.91-1.748 1.96-2.954 0.008-0.201 0.327-0.276 0.442-0.099 1.384 2.126 2.084 4.523 2.084 6.325 0 2.636-2.892 4.772-6.196 4.772z"></path>
</symbol>
<symbol id="icon-menu-dots" viewBox="0 0 32 32">
<title>menu-dots</title>
<path class="path1" d="M18.786 16c0 1.539-1.247 2.786-2.786 2.786s-2.786-1.247-2.786-2.786c0-1.539 1.247-2.786 2.786-2.786s2.786 1.247 2.786 2.786z"></path>
<path class="path2" d="M5.572 16c0 1.539-1.247 2.786-2.786 2.786s-2.786-1.247-2.786-2.786c0-1.539 1.247-2.786 2.786-2.786s2.786 1.247 2.786 2.786z"></path>
<path class="path3" d="M32 16c0 1.539-1.247 2.786-2.786 2.786s-2.786-1.247-2.786-2.786c0-1.539 1.247-2.786 2.786-2.786s2.786 1.247 2.786 2.786z"></path>
</symbol>
<symbol id="icon-menu-burger" viewBox="0 0 32 32">
<title>menu-burger</title>
<path class="path1" d="M30.951 5.911h-29.901c-0.58 0-1.049-0.47-1.049-1.049s0.47-1.049 1.049-1.049h29.901c0.579 0 1.049 0.47 1.049 1.049s-0.47 1.049-1.049 1.049z"></path>
<path class="path2" d="M30.951 17.049h-29.901c-0.58 0-1.049-0.47-1.049-1.049s0.47-1.049 1.049-1.049h29.901c0.579 0 1.049 0.47 1.049 1.049s-0.47 1.049-1.049 1.049z"></path>
<path class="path3" d="M30.951 28.188h-29.901c-0.58 0-1.049-0.47-1.049-1.049s0.47-1.049 1.049-1.049h29.901c0.579 0 1.049 0.47 1.049 1.049s-0.47 1.049-1.049 1.049z"></path>
</symbol>
<symbol id="icon-credit-card" viewBox="0 0 32 32">
<title>credit-card</title>
<path class="path1" d="M29.474 4.97h-26.947c-1.393 0-2.526 1.133-2.526 2.526 0 0.252 0 16.005 0 17.007 0 1.393 1.133 2.526 2.526 2.526h26.947c1.393 0 2.526-1.133 2.526-2.526 0-0.573 0-16.291 0-17.007 0-1.393-1.133-2.526-2.526-2.526zM30.316 11.3v2.244h-28.632v-2.244h28.632zM7.099 18.596h-2.888c-0.465 0-0.842-0.377-0.842-0.842s0.377-0.842 0.842-0.842h2.888c0.465 0 0.842 0.377 0.842 0.842s-0.377 0.842-0.842 0.842z"></path>
</symbol>
</defs>
</svg>
