<svg viewBox="0 0 32 32" xmlns="http://www.w3.org/2000/svg"><g fill="none"><path d="M5.953 29.251L1.09 13.915c-.293-.98.045-2.04.847-2.664l12.54-9.74a2.423 2.423 0 0 1 3.003.02l12.58 10.047a2.475 2.475 0 0 1 .819 2.654l-4.855 15.031A2.44 2.44 0 0 1 23.694 31H8.29a2.443 2.443 0 0 1-2.336-1.749z" fill="#4285F4"/><path d="M9.21 23.5s5.767-13.295 8.05-14.318l11.772 10.77-3.008 9.311A2.44 2.44 0 0 1 23.694 31h-5.883l-8.602-7.5z" fill-opacity=".1" fill="#000"/><path d="M19.126 20.09l1.272 3.41h2.372L17.261 9.182H14.72L9.21 23.5h2.375l1.272-3.41h6.27zm-5.592-2.045l2.457-6.818 2.458 6.818h-4.915z" fill="#F5F5F5"/></g></svg>