<svg viewBox="0 0 32 32" xmlns="http://www.w3.org/2000/svg"><g fill="none"><ellipse fill="#03A9F4" cx="16.5" cy="16" rx="13.5" ry="13.364"/><path d="M16.5 2.636C9.044 2.636 3 8.62 3 16h27c0-7.38-6.044-13.364-13.5-13.364z" fill="#039BE5"/><path d="M14.306 27.455l-4.688-4.643L11.735 9 9.618 6.903l13.953-2.288C27.43 6.968 30 11.187 30 16s-2.571 9.03-6.429 11.383l-9.265.072z" fill-opacity=".1" fill="#000"/><path d="M22.929 2a.64.64 0 0 1 .642.636v3.819a.64.64 0 0 1-.642.636H10.07a.642.642 0 0 1-.642-.636V2.636A.64.64 0 0 1 10.07 2h12.86zm0 7a.64.64 0 0 1 .642.636v12.728a.64.64 0 0 1-.642.636H10.07a.642.642 0 0 1-.642-.636V9.636A.64.64 0 0 1 10.07 9h12.86zm0 15.91a.64.64 0 0 1 .642.635v3.819a.64.64 0 0 1-.642.636H10.07a.642.642 0 0 1-.642-.636v-3.819a.64.64 0 0 1 .642-.636h12.86z" fill="#EEE"/></g></svg>