<svg viewBox="0 0 32 32" xmlns="http://www.w3.org/2000/svg"><g fill="none"><path d="M29.438 22.802c-.346.346-.823.56-1.348.56H3.909A1.914 1.914 0 0 1 2 21.454V4.909C2 3.859 2.86 3 3.909 3H28.09c1.05 0 1.909.86 1.909 1.909v16.545c0 .525-.215 1.002-.56 1.348z" fill="#03A9F4"/><path d="M29.999 21.454V18.51l-6.8-6.801H9.635v11.653H28.09c1.05 0 1.909-.86 1.909-1.91z" fill-opacity=".1" fill="#000"/><path d="M29.999 4.909v8.272H2V4.91C2 3.859 2.86 3 3.909 3H28.09c1.05 0 1.909.86 1.909 1.909z" fill="#039BE5"/><path d="M16 8.727c-5.624 0-10.182 4.558-10.182 10.182 0 5.623 4.558 10.181 10.182 10.181 5.623 0 10.181-4.558 10.181-10.181 0-5.624-4.558-10.182-10.181-10.182zm0 14.636a4.455 4.455 0 1 1 .001-8.91 4.455 4.455 0 0 1-.001 8.91z" fill="#EEE"/><path d="M16 27.181l1.909-1.909H14.09L16 27.181zm-8.273-8.272l1.91 1.909V17l-1.91 1.909zM16 10.636l-1.91 1.91h3.819l-1.91-1.91zm8.272 8.273l-1.91-1.91v3.819l1.91-1.91z" fill="#BDBDBD"/></g></svg>