<svg viewBox="0 0 32 32" xmlns="http://www.w3.org/2000/svg"><g fill="none"><path d="M3.045 26.997A2.056 2.056 0 0 1 1 24.93c0-.375.099-.729.273-1.032L14.227 1.165A2.04 2.04 0 0 1 16 .13c.759 0 1.42.417 1.773 1.035l12.954 22.733c.174.303.273.657.273 1.032a2.056 2.056 0 0 1-2.045 2.067H3.045z" fill="#03A9F4"/><path d="M31 24.93L16 9.774v17.223h12.955c1.13 0 2.045-.925 2.045-2.067z" fill-opacity=".1" fill="#000"/><path d="M14.227 1.165L1.273 23.898A2.069 2.069 0 0 0 1 24.93c0 1.142.915 2.067 2.045 2.067H16V.13a2.04 2.04 0 0 0-1.773 1.035z" fill="#039BE5"/><path fill="#F1F1F1" d="M16 9.774l11.59 20.667-.68.689L16 26.997 5.09 31.13l-.68-.689z"/><path fill="#E1E1E1" d="M16 9.774l11.59 20.667-.68.689L16 26.997"/></g></svg>