<svg viewBox="0 0 32 32" xmlns="http://www.w3.org/2000/svg"><g fill="none"><circle fill="#8BC34A" cx="16" cy="16" r="12.955"/><path d="M16 3.045C8.846 3.045 3.045 8.846 3.045 16h25.91c0-7.154-5.801-12.955-12.955-12.955z" fill="#7CB342"/><path d="M17.364 7.818l-2.728 2.046L13.244 16 9.82 27.388A12.89 12.89 0 0 0 16 28.955c2.238 0 4.343-.568 6.18-1.567l2.252-1.558a12.952 12.952 0 0 0 4.161-6.782l-11.23-11.23z" fill-opacity=".1" fill="#000"/><path d="M18.756 16h-3.15l8.018 13.887 1.85 1.067a.342.342 0 0 0 .513-.295v-2.137L18.757 16z" fill="#CFCFCF"/><path d="M22.818 16a6.818 6.818 0 0 1-9.927 6.068L16 16.682l.394-.682h-3.15l-7.23 12.522v2.137a.342.342 0 0 0 .512.295l1.85-1.067 3.15-5.455A9.545 9.545 0 0 0 25.546 16h-2.728z" fill="#EEE"/><path d="M19.068 9.864h-1.704V7.818h-2.728v2.046h-1.704c-.563 0-1.023.46-1.023 1.022V16l3.368 3.365a1.023 1.023 0 0 0 1.446 0L20.09 16v-5.114c0-.562-.46-1.022-1.023-1.022z" fill="#616161"/><circle fill="#7CAF42" cx="16" cy="13.955" r="1.705"/></g></svg>