<svg viewBox="0 0 32 32" xmlns="http://www.w3.org/2000/svg"><g fill-rule="nonzero" fill="none"><path d="M18.424 21.572L11.19 31h3.763a2.05 2.05 0 0 0 1.623-.8l6.62-8.626h-4.772v-.002zM2.93 24.182c-.636 0-1.234.295-1.62.8L1 25.383l2.037.453 1.191 1.554 2.469-3.21H2.93z" fill="#E0E0E0"/><path d="M12.994 28.649l2.32 2.319a2.042 2.042 0 0 1-.36.032H11.19l1.804-2.351z" fill-opacity=".05" fill="#000"/><path d="M16 1c-.496 0-.991.179-1.382.537L3.558 11.67a2.046 2.046 0 0 0-.24 2.753H28.68a2.045 2.045 0 0 0-.24-2.753L17.38 1.537A2.038 2.038 0 0 0 16 1z" fill="#009688"/><path d="M7.144 19.41h17.712l-7.233 9.425a2.045 2.045 0 0 1-3.246 0L7.144 19.41z" fill="#FDD835"/><path d="M23.808 20.774L16 20.091l-7.808.683-4.874-6.35a2.04 2.04 0 0 1-.419-1.369L16 11.91l13.1 1.146c.03.477-.107.964-.418 1.368l-4.874 6.351z" fill="#00E676"/><path d="M14.953 31a2.05 2.05 0 0 1-1.622-.8l-4.004-5.217a2.044 2.044 0 0 0-1.623-.8H2.931a2.05 2.05 0 0 1 1.623.8l4.004 5.218c.387.504.987.799 1.623.799h4.772z" fill="#F5F5F5"/></g></svg>