<svg viewBox="0 0 32 32" xmlns="http://www.w3.org/2000/svg"><g fill="none"><path d="M23.873 20.795a.938.938 0 0 1-.342.345l-6.562 3.822a.935.935 0 0 1-.94 0l-6.562-3.831a.923.923 0 0 1-.336-.338l-4.88 2.842c.163.282.396.523.686.692l10.625 6.188c.58.337 1.296.337 1.876 0l10.625-6.188c.289-.169.523-.41.685-.692l-4.875-2.84z" fill="#00ACC1"/><path d="M9.275 21.138a.993.993 0 0 1-.205-.308v-.002l-4.818 2.805c.162.282.395.524.686.692l10.625 6.188c.58.337 1.295.337 1.874 0l.718-.418-8.88-8.957z" fill-opacity=".1" fill="#000"/><path d="M28.063 8.675l-1.565-.911-1.564-.911a1.852 1.852 0 0 0-.936-.25v13.719a.966.966 0 0 1-.125.473l4.875 2.838a1.89 1.89 0 0 0 .252-.945V10.312c0-.676-.358-1.3-.938-1.637z" fill="#FF5722"/><path d="M24 12.133l5 5.043v-6.864a.625.625 0 0 0-.938-.545L24 12.133z" fill-opacity=".1" fill="#000"/><path d="M9.131 20.792A.948.948 0 0 1 9 20.31v-7.633a.95.95 0 0 1 .469-.82l6.562-3.822a.945.945 0 0 0 .469-.82V2.624a.391.391 0 0 0-.586-.342L4.938 8.675c-.58.337-.938.963-.938 1.637v12.376c0 .337.09.663.252.945l4.88-2.841z" fill="#673AB7"/><path d="M14.583 12.473l.08.046c.26.151.26.53 0 .682l-1.327.773a.395.395 0 0 0 0 .682l.078.046a.395.395 0 0 1 0 .682l-1.328.774a.395.395 0 0 0 0 .682l.195.115c.29.17.647.17.938 0l1.562-.909a.932.932 0 0 1 .938 0l.312.181c.29.169.647.169.938 0L24 12.133l-2.317-2.319a2.485 2.485 0 0 0-3.019-.395l-4.081 2.383a.386.386 0 0 0 0 .671z" fill="#FFC107"/><path d="M22.281 12.587l-.312-.182a.932.932 0 0 0-.938 0l-2.812 1.638a.932.932 0 0 1-.938 0l-.195-.114a.395.395 0 0 1 0-.682l1.328-.774a.395.395 0 0 0 0-.682l-.078-.046a.395.395 0 0 1 0-.682l.08-.046a.395.395 0 0 0 0-.683l-.082-.047a.397.397 0 0 1 0-.682l4.725-2.752a1.864 1.864 0 0 1 1.875 0l1.563.91.001 2.184c0 .45-.237.868-.625 1.093l-.623.365-2.031 1.183a.928.928 0 0 1-.938-.001z" fill="#FF9800"/><path d="M29 10.312c0-.676-.358-1.3-.938-1.637l-3.126-1.82a1.86 1.86 0 0 0-1.863-.007l-.989.575a.395.395 0 0 0 0 .683l.08.045a.396.396 0 0 1 0 .683l-1.327.772a.395.395 0 0 0 0 .683l.196.113a.93.93 0 0 0 .937 0l.313-.181a.932.932 0 0 1 .937 0l1.563.91c.29.168.647.168.937 0l2.344-1.366a.625.625 0 0 1 .936.547z" fill="#FF5722"/></g></svg>